<svg width="34" height="35" viewBox="0 0 34 35" fill="none" xmlns="http://www.w3.org/2000/svg">
<g filter="url(#filter0_dii_10115_80779)">
<path d="M1 17C1 8.16344 8.16344 1 17 1C25.8366 1 33 8.16344 33 17C33 25.8366 25.8366 33 17 33C8.16344 33 1 25.8366 1 17Z" fill="url(#paint0_linear_10115_80779)"/>
<path d="M12.29 16.5117H16.5557V22.2461C15.9567 22.444 15.3369 22.5977 14.6963 22.707C14.0557 22.8164 13.3369 22.8711 12.54 22.8711C11.3786 22.8711 10.3942 22.6419 9.58691 22.1836C8.78483 21.7201 8.17546 21.0508 7.75879 20.1758C7.34212 19.2956 7.13379 18.2357 7.13379 16.9961C7.13379 15.8034 7.36556 14.7695 7.8291 13.8945C8.29264 13.0143 8.96712 12.3346 9.85254 11.8555C10.738 11.3711 11.8109 11.1289 13.0713 11.1289C13.6911 11.1289 14.29 11.1914 14.8682 11.3164C15.4515 11.4362 15.9854 11.6029 16.4697 11.8164L15.8135 13.3633C15.4281 13.181 14.9958 13.0273 14.5166 12.9023C14.0374 12.7773 13.54 12.7148 13.0244 12.7148C12.2067 12.7148 11.501 12.8919 10.9072 13.2461C10.3187 13.6003 9.86556 14.1003 9.54785 14.7461C9.23014 15.3867 9.07129 16.1445 9.07129 17.0195C9.07129 17.8685 9.19889 18.6133 9.4541 19.2539C9.70931 19.8945 10.1077 20.3945 10.6494 20.7539C11.1963 21.1081 11.902 21.2852 12.7666 21.2852C13.1989 21.2852 13.5661 21.2617 13.8682 21.2148C14.1702 21.168 14.4489 21.1159 14.7041 21.0586V18.1133H12.29V16.5117Z" fill="#000724"/>
<path d="M23.6239 12.7227C23.077 12.7227 22.5874 12.8216 22.1551 13.0195C21.7281 13.2174 21.3661 13.5039 21.0692 13.8789C20.7723 14.2487 20.5458 14.6992 20.3895 15.2305C20.2333 15.7565 20.1551 16.3503 20.1551 17.0117C20.1551 17.8971 20.2801 18.6602 20.5301 19.3008C20.7801 19.9362 21.1604 20.4258 21.6708 20.7695C22.1812 21.1081 22.827 21.2773 23.6083 21.2773C24.0926 21.2773 24.564 21.2305 25.0223 21.1367C25.4807 21.043 25.9546 20.9154 26.4442 20.7539V22.3477C25.9807 22.5299 25.5119 22.6628 25.038 22.7461C24.564 22.8294 24.0171 22.8711 23.3973 22.8711C22.2307 22.8711 21.2619 22.6289 20.4911 22.1445C19.7255 21.6602 19.1525 20.9779 18.7723 20.0977C18.3973 19.2174 18.2098 18.1862 18.2098 17.0039C18.2098 16.1393 18.3296 15.3477 18.5692 14.6289C18.8088 13.9102 19.1577 13.2904 19.6161 12.7695C20.0744 12.2435 20.6395 11.8398 21.3114 11.5586C21.9885 11.2721 22.7619 11.1289 23.6317 11.1289C24.2046 11.1289 24.7671 11.194 25.3192 11.3242C25.8765 11.4492 26.3921 11.6289 26.8661 11.8633L26.2098 13.4102C25.814 13.2227 25.3999 13.0612 24.9676 12.9258C24.5354 12.7904 24.0874 12.7227 23.6239 12.7227Z" fill="#000724"/>
</g>
<defs>
<filter id="filter0_dii_10115_80779" x="0" y="0.5" width="34" height="34" filterUnits="userSpaceOnUse" color-interpolation-filters="sRGB">
<feFlood flood-opacity="0" result="BackgroundImageFix"/>
<feColorMatrix in="SourceAlpha" type="matrix" values="0 0 0 0 0 0 0 0 0 0 0 0 0 0 0 0 0 0 127 0" result="hardAlpha"/>
<feOffset dy="0.5"/>
<feGaussianBlur stdDeviation="0.5"/>
<feComposite in2="hardAlpha" operator="out"/>
<feColorMatrix type="matrix" values="0 0 0 0 0 0 0 0 0 0 0 0 0 0 0 0 0 0 0.25 0"/>
<feBlend mode="multiply" in2="BackgroundImageFix" result="effect1_dropShadow_10115_80779"/>
<feBlend mode="normal" in="SourceGraphic" in2="effect1_dropShadow_10115_80779" result="shape"/>
<feColorMatrix in="SourceAlpha" type="matrix" values="0 0 0 0 0 0 0 0 0 0 0 0 0 0 0 0 0 0 127 0" result="hardAlpha"/>
<feOffset dy="0.5"/>
<feGaussianBlur stdDeviation="0.5"/>
<feComposite in2="hardAlpha" operator="arithmetic" k2="-1" k3="1"/>
<feColorMatrix type="matrix" values="0 0 0 0 1 0 0 0 0 1 0 0 0 0 1 0 0 0 0.45 0"/>
<feBlend mode="plus-lighter" in2="shape" result="effect2_innerShadow_10115_80779"/>
<feColorMatrix in="SourceAlpha" type="matrix" values="0 0 0 0 0 0 0 0 0 0 0 0 0 0 0 0 0 0 127 0" result="hardAlpha"/>
<feOffset dy="-0.5"/>
<feGaussianBlur stdDeviation="0.5"/>
<feComposite in2="hardAlpha" operator="arithmetic" k2="-1" k3="1"/>
<feColorMatrix type="matrix" values="0 0 0 0 0 0 0 0 0 0 0 0 0 0 0 0 0 0 0.25 0"/>
<feBlend mode="plus-darker" in2="effect2_innerShadow_10115_80779" result="effect3_innerShadow_10115_80779"/>
</filter>
<linearGradient id="paint0_linear_10115_80779" x1="-8.6" y1="-12.3333" x2="44.8437" y2="39.3734" gradientUnits="userSpaceOnUse">
<stop stop-color="#FFDE32"/>
<stop offset="0.127699" stop-color="#FFEB82"/>
<stop offset="0.307699" stop-color="#FFDE32"/>
<stop offset="0.447699" stop-color="#FFF3B2"/>
<stop offset="0.610007" stop-color="#FFDE32"/>
<stop offset="0.785007" stop-color="#FFF3B5"/>
<stop offset="1" stop-color="#FFDE32"/>
</linearGradient>
</defs>
</svg>
