<svg width="34" height="35" viewBox="0 0 34 35" fill="none" xmlns="http://www.w3.org/2000/svg">
<g filter="url(#filter0_dii_10115_80774)">
<path d="M1 17C1 8.16344 8.16344 1 17 1C25.8366 1 33 8.16344 33 17C33 25.8366 25.8366 33 17 33C8.16344 33 1 25.8366 1 17Z" fill="url(#paint0_linear_10115_80774)"/>
<path d="M1 17C1 8.16344 8.16344 1 17 1C25.8366 1 33 8.16344 33 17C33 25.8366 25.8366 33 17 33C8.16344 33 1 25.8366 1 17Z" fill="url(#paint1_linear_10115_80774)"/>
<path d="M1 17C1 8.16344 8.16344 1 17 1C25.8366 1 33 8.16344 33 17C33 25.8366 25.8366 33 17 33C8.16344 33 1 25.8366 1 17Z" fill="#04CE00" style="mix-blend-mode:color"/>
<path d="M15.7666 19.6055C15.7666 20.2826 15.5999 20.8659 15.2666 21.3555C14.9385 21.8451 14.4645 22.2201 13.8447 22.4805C13.2301 22.7409 12.4958 22.8711 11.6416 22.8711C11.2249 22.8711 10.8265 22.8477 10.4463 22.8008C10.0661 22.7539 9.70671 22.6862 9.36816 22.5977C9.03483 22.5039 8.73014 22.3919 8.4541 22.2617V20.4961C8.91764 20.6992 9.43587 20.8841 10.0088 21.0508C10.5817 21.2122 11.165 21.293 11.7588 21.293C12.2432 21.293 12.6442 21.2305 12.9619 21.1055C13.2848 20.9753 13.5244 20.793 13.6807 20.5586C13.8369 20.319 13.915 20.0404 13.915 19.7227C13.915 19.3841 13.8239 19.0977 13.6416 18.8633C13.4593 18.6289 13.1833 18.4154 12.8135 18.2227C12.4489 18.0247 11.9906 17.8138 11.4385 17.5898C11.0635 17.4388 10.7041 17.2669 10.3604 17.0742C10.0218 16.8815 9.71973 16.6549 9.4541 16.3945C9.18848 16.1341 8.97754 15.8268 8.82129 15.4727C8.67025 15.1133 8.59473 14.6914 8.59473 14.207C8.59473 13.5612 8.74837 13.0091 9.05566 12.5508C9.36816 12.0924 9.80566 11.7409 10.3682 11.4961C10.9359 11.2513 11.5973 11.1289 12.3525 11.1289C12.9515 11.1289 13.514 11.1914 14.04 11.3164C14.5713 11.4414 15.0921 11.6185 15.6025 11.8477L15.0088 13.3555C14.54 13.1628 14.0843 13.0091 13.6416 12.8945C13.2041 12.7799 12.7562 12.7227 12.2979 12.7227C11.902 12.7227 11.5661 12.7826 11.29 12.9023C11.014 13.0221 10.8031 13.1914 10.6572 13.4102C10.5166 13.6237 10.4463 13.8789 10.4463 14.1758C10.4463 14.5091 10.527 14.7904 10.6885 15.0195C10.8551 15.2435 11.1104 15.4492 11.4541 15.6367C11.8031 15.8242 12.251 16.0326 12.7979 16.2617C13.4281 16.5221 13.9619 16.7956 14.3994 17.082C14.8421 17.3685 15.1807 17.7122 15.415 18.1133C15.6494 18.5091 15.7666 19.0065 15.7666 19.6055Z" fill="#000724"/>
<path d="M22.3036 12.7227C21.7567 12.7227 21.2671 12.8216 20.8348 13.0195C20.4077 13.2174 20.0458 13.5039 19.7489 13.8789C19.452 14.2487 19.2255 14.6992 19.0692 15.2305C18.913 15.7565 18.8348 16.3503 18.8348 17.0117C18.8348 17.8971 18.9598 18.6602 19.2098 19.3008C19.4598 19.9362 19.84 20.4258 20.3505 20.7695C20.8609 21.1081 21.5067 21.2773 22.288 21.2773C22.7723 21.2773 23.2437 21.2305 23.702 21.1367C24.1604 21.043 24.6343 20.9154 25.1239 20.7539V22.3477C24.6604 22.5299 24.1916 22.6628 23.7176 22.7461C23.2437 22.8294 22.6968 22.8711 22.077 22.8711C20.9104 22.8711 19.9416 22.6289 19.1708 22.1445C18.4051 21.6602 17.8322 20.9779 17.452 20.0977C17.077 19.2174 16.8895 18.1862 16.8895 17.0039C16.8895 16.1393 17.0093 15.3477 17.2489 14.6289C17.4885 13.9102 17.8374 13.2904 18.2958 12.7695C18.7541 12.2435 19.3192 11.8398 19.9911 11.5586C20.6682 11.2721 21.4416 11.1289 22.3114 11.1289C22.8843 11.1289 23.4468 11.194 23.9989 11.3242C24.5562 11.4492 25.0718 11.6289 25.5458 11.8633L24.8895 13.4102C24.4937 13.2227 24.0796 13.0612 23.6473 12.9258C23.215 12.7904 22.7671 12.7227 22.3036 12.7227Z" fill="#000724"/>
</g>
<defs>
<filter id="filter0_dii_10115_80774" x="0" y="0.5" width="34" height="34" filterUnits="userSpaceOnUse" color-interpolation-filters="sRGB">
<feFlood flood-opacity="0" result="BackgroundImageFix"/>
<feColorMatrix in="SourceAlpha" type="matrix" values="0 0 0 0 0 0 0 0 0 0 0 0 0 0 0 0 0 0 127 0" result="hardAlpha"/>
<feOffset dy="0.5"/>
<feGaussianBlur stdDeviation="0.5"/>
<feComposite in2="hardAlpha" operator="out"/>
<feColorMatrix type="matrix" values="0 0 0 0 0 0 0 0 0 0 0 0 0 0 0 0 0 0 0.25 0"/>
<feBlend mode="multiply" in2="BackgroundImageFix" result="effect1_dropShadow_10115_80774"/>
<feBlend mode="normal" in="SourceGraphic" in2="effect1_dropShadow_10115_80774" result="shape"/>
<feColorMatrix in="SourceAlpha" type="matrix" values="0 0 0 0 0 0 0 0 0 0 0 0 0 0 0 0 0 0 127 0" result="hardAlpha"/>
<feOffset dy="0.5"/>
<feGaussianBlur stdDeviation="0.5"/>
<feComposite in2="hardAlpha" operator="arithmetic" k2="-1" k3="1"/>
<feColorMatrix type="matrix" values="0 0 0 0 1 0 0 0 0 1 0 0 0 0 1 0 0 0 0.45 0"/>
<feBlend mode="plus-lighter" in2="shape" result="effect2_innerShadow_10115_80774"/>
<feColorMatrix in="SourceAlpha" type="matrix" values="0 0 0 0 0 0 0 0 0 0 0 0 0 0 0 0 0 0 127 0" result="hardAlpha"/>
<feOffset dy="-0.5"/>
<feGaussianBlur stdDeviation="0.5"/>
<feComposite in2="hardAlpha" operator="arithmetic" k2="-1" k3="1"/>
<feColorMatrix type="matrix" values="0 0 0 0 0 0 0 0 0 0 0 0 0 0 0 0 0 0 0.25 0"/>
<feBlend mode="plus-darker" in2="effect2_innerShadow_10115_80774" result="effect3_innerShadow_10115_80774"/>
</filter>
<linearGradient id="paint0_linear_10115_80774" x1="-8.6" y1="-12.3333" x2="44.8437" y2="39.3734" gradientUnits="userSpaceOnUse">
<stop stop-color="#FFDE32"/>
<stop offset="0.127699" stop-color="#FFEB82"/>
<stop offset="0.307699" stop-color="#FFDE32"/>
<stop offset="0.447699" stop-color="#FFF3B2"/>
<stop offset="0.610007" stop-color="#FFDE32"/>
<stop offset="0.785007" stop-color="#FFF3B5"/>
<stop offset="1" stop-color="#FFDE32"/>
</linearGradient>
<linearGradient id="paint1_linear_10115_80774" x1="17" y1="1" x2="17" y2="33" gradientUnits="userSpaceOnUse">
<stop stop-color="#F6D97E"/>
<stop offset="0.333333" stop-color="#D2AB3D"/>
<stop offset="0.666667" stop-color="#BA8827"/>
<stop offset="1" stop-color="#AC7721"/>
</linearGradient>
</defs>
</svg>
