<svg width="24" height="24" viewBox="0 0 24 24" fill="none" xmlns="http://www.w3.org/2000/svg">
<g opacity="0.5">
<path fill-rule="evenodd" clip-rule="evenodd" d="M8.7168 21.125V15.5C8.7168 15.155 8.4368 14.875 8.0918 14.875H5.5918C5.2468 14.875 4.9668 15.155 4.9668 15.5V21.125C4.9668 21.47 5.2468 21.75 5.5918 21.75C5.9368 21.75 6.2168 21.47 6.2168 21.125V16.125H7.4668V21.125C7.4668 21.47 7.7468 21.75 8.0918 21.75C8.4368 21.75 8.7168 21.47 8.7168 21.125Z" fill="white"/>
<path fill-rule="evenodd" clip-rule="evenodd" d="M19.875 21.125V9.25C19.875 8.905 19.595 8.625 19.25 8.625H16.75C16.405 8.625 16.125 8.905 16.125 9.25V21.125C16.125 21.47 16.405 21.75 16.75 21.75C17.095 21.75 17.375 21.47 17.375 21.125V9.875H18.625V21.125C18.625 21.47 18.905 21.75 19.25 21.75C19.595 21.75 19.875 21.47 19.875 21.125Z" fill="white"/>
<path fill-rule="evenodd" clip-rule="evenodd" d="M14.3418 21.125V12.375C14.3418 12.03 14.0618 11.75 13.7168 11.75H11.2168C10.8718 11.75 10.5918 12.03 10.5918 12.375V21.125C10.5918 21.47 10.8718 21.75 11.2168 21.75C11.5618 21.75 11.8418 21.47 11.8418 21.125V13H13.0918V21.125C13.0918 21.47 13.3718 21.75 13.7168 21.75C14.0618 21.75 14.3418 21.47 14.3418 21.125Z" fill="white"/>
<path fill-rule="evenodd" clip-rule="evenodd" d="M7.34626 9.50625C7.22876 9.345 7.04126 9.25 6.84188 9.25C6.64251 9.25 6.45501 9.345 6.33751 9.50625L5.77251 10.2781L4.86376 10.5769C4.67438 10.6387 4.52563 10.7881 4.46438 10.9775C4.40251 11.1669 4.43501 11.375 4.55188 11.5362L5.11188 12.3119L5.11438 13.2687C5.11501 13.4681 5.21126 13.6556 5.37251 13.7725C5.53376 13.89 5.74126 13.9231 5.93126 13.8619L6.84188 13.5687L7.75251 13.8619C7.94251 13.9231 8.15001 13.89 8.31126 13.7725C8.47251 13.6556 8.56813 13.4681 8.56876 13.2687L8.57188 12.3119L9.13188 11.5362C9.24876 11.375 9.28126 11.1669 9.21938 10.9775C9.15751 10.7881 9.00938 10.6387 8.82001 10.5769L7.91126 10.2781L7.34626 9.50625ZM6.84188 10.9338L7.02063 11.1781C7.09751 11.2837 7.20626 11.3625 7.33001 11.4031L7.61813 11.4975C7.61813 11.4981 7.44063 11.7431 7.44063 11.7431C7.36438 11.8494 7.32251 11.9769 7.32251 12.1075L7.32126 12.41L7.03313 12.3175C6.90876 12.2775 6.77501 12.2775 6.65063 12.3175L6.36188 12.41L6.36126 12.1075C6.36063 11.9769 6.31938 11.8494 6.24313 11.7431L6.06563 11.4981C6.06563 11.4975 6.35313 11.4031 6.35313 11.4031C6.47751 11.3625 6.58563 11.2837 6.66313 11.1781L6.84188 10.9338Z" fill="white"/>
<path fill-rule="evenodd" clip-rule="evenodd" d="M18.5963 3.25625C18.4788 3.095 18.2913 3 18.0919 3C17.8925 3 17.705 3.095 17.5875 3.25625L17.0225 4.02812L16.1138 4.32687C15.9244 4.38875 15.7756 4.53812 15.7144 4.7275C15.6525 4.91687 15.685 5.125 15.8019 5.28625L16.3619 6.06187L16.3644 7.01875C16.365 7.21812 16.4613 7.40562 16.6225 7.5225C16.7838 7.64 16.9913 7.67312 17.1813 7.61187L18.0919 7.31875L19.0025 7.61187C19.1925 7.67312 19.4 7.64 19.5613 7.5225C19.7225 7.40562 19.8181 7.21812 19.8188 7.01875L19.8219 6.06187L20.3819 5.28625C20.4988 5.125 20.5313 4.91687 20.4694 4.7275C20.4075 4.53812 20.2594 4.38875 20.07 4.32687L19.1613 4.02812L18.5963 3.25625ZM18.0919 4.68375L18.2706 4.92812C18.3475 5.03375 18.4563 5.1125 18.58 5.15312L18.8681 5.2475C18.8681 5.24812 18.6906 5.49312 18.6906 5.49312C18.6144 5.59937 18.5725 5.72687 18.5725 5.8575L18.5713 6.16L18.2831 6.0675C18.1588 6.0275 18.025 6.0275 17.9006 6.0675L17.6119 6.16L17.6113 5.8575C17.6106 5.72687 17.5694 5.59937 17.4931 5.49312L17.3156 5.24812C17.3156 5.2475 17.6031 5.15312 17.6031 5.15312C17.7275 5.1125 17.8356 5.03375 17.9131 4.92812L18.0919 4.68375Z" fill="white"/>
<path fill-rule="evenodd" clip-rule="evenodd" d="M12.9713 6.38125C12.8538 6.22 12.6663 6.125 12.4669 6.125C12.2675 6.125 12.08 6.22 11.9625 6.38125L11.3975 7.15312L10.4888 7.45187C10.2994 7.51375 10.1506 7.66312 10.0894 7.8525C10.0275 8.04187 10.06 8.25 10.1769 8.41125L10.7369 9.18687L10.7394 10.1437C10.74 10.3431 10.8363 10.5306 10.9975 10.6475C11.1588 10.765 11.3663 10.7981 11.5563 10.7369L12.4669 10.4437L13.3775 10.7369C13.5675 10.7981 13.775 10.765 13.9363 10.6475C14.0975 10.5306 14.1931 10.3431 14.1938 10.1437L14.1969 9.18687L14.7569 8.41125C14.8738 8.25 14.9063 8.04187 14.8444 7.8525C14.7825 7.66312 14.6344 7.51375 14.445 7.45187L13.5363 7.15312L12.9713 6.38125ZM12.4669 7.80875L12.6456 8.05312C12.7225 8.15875 12.8313 8.2375 12.955 8.27812L13.2431 8.3725C13.2431 8.37312 13.0656 8.61812 13.0656 8.61812C12.9894 8.72438 12.9475 8.85187 12.9475 8.9825L12.9463 9.285L12.6581 9.1925C12.5338 9.1525 12.4 9.1525 12.2756 9.1925L11.9869 9.285L11.9863 8.9825C11.9856 8.85187 11.9444 8.72438 11.8681 8.61812L11.6906 8.37312C11.6906 8.3725 11.9781 8.27812 11.9781 8.27812C12.1025 8.2375 12.2106 8.15875 12.2881 8.05312L12.4669 7.80875Z" fill="white"/>
<path fill-rule="evenodd" clip-rule="evenodd" d="M3.625 21.75H21.125C21.47 21.75 21.75 21.47 21.75 21.125C21.75 20.78 21.47 20.5 21.125 20.5H3.625C3.28 20.5 3 20.78 3 21.125C3 21.47 3.28 21.75 3.625 21.75Z" fill="white"/>
</g>
</svg>
