<svg width="24" height="24" viewBox="0 0 24 24" fill="none" xmlns="http://www.w3.org/2000/svg">
<g opacity="0.5">
<path d="M12.3333 20.6667C16.9357 20.6667 20.6667 16.9357 20.6667 12.3333C20.6667 7.73096 16.9357 4 12.3333 4C7.73096 4 4 7.73096 4 12.3333C4 13.6664 4.31302 14.9263 4.86955 16.0437C5.01745 16.3407 5.06667 16.6801 4.98093 17.0005L4.48459 18.8556C4.26913 19.6608 5.00584 20.3975 5.81112 20.1821L7.66616 19.6858C7.98661 19.6 8.32601 19.6492 8.62294 19.7971C9.74031 20.3537 11.0002 20.6667 12.3333 20.6667Z" stroke="white" stroke-width="1.5"/>
<path d="M9 11.083H15.6667" stroke="white" stroke-width="1.5" stroke-linecap="round"/>
<path d="M9 14H13.5833" stroke="white" stroke-width="1.5" stroke-linecap="round"/>
</g>
</svg>
