<svg width="24" height="24" viewBox="0 0 24 24" fill="none" xmlns="http://www.w3.org/2000/svg">
<g opacity="0.5">
<path d="M21.2401 14.6737C21.3225 14.4592 21.3676 14.2265 21.3676 13.9833V9.10496C21.3676 8.86177 21.3221 8.62905 21.2401 8.41455L21.5857 7.72187C21.9505 6.99094 21.8754 6.1293 21.3899 5.47214C20.904 4.81544 20.102 4.49073 19.2964 4.62553L16.7306 5.05362C16.3084 5.12421 15.8826 4.92109 15.6718 4.54811L14.2891 2.09845C13.9007 1.41078 13.1975 1 12.4074 1C11.6172 1 10.9141 1.41078 10.5256 2.09845L9.14299 4.54811C8.93213 4.92109 8.50678 5.12466 8.08415 5.05362L5.51837 4.62553C4.71274 4.49073 3.91076 4.81544 3.42484 5.47214C2.93937 6.1293 2.86423 6.99094 3.22901 7.72187L3.57467 8.41455C3.49224 8.62905 3.44715 8.86177 3.44715 9.10496V13.9833C3.44715 14.2265 3.4927 14.4592 3.57467 14.6737L3.22901 15.3664C2.86423 16.0973 2.93937 16.959 3.42484 17.6161C3.91076 18.2728 4.71274 18.5976 5.51837 18.4628L8.08415 18.0347C8.50678 17.9641 8.93213 18.1672 9.14299 18.5402L10.5256 20.9898C10.9141 21.6775 11.6172 22.0883 12.4074 22.0883C13.1975 22.0883 13.9007 21.6775 14.2891 20.9898L15.6718 18.5402C15.8826 18.1672 16.308 17.9636 16.7306 18.0347L19.2964 18.4628C20.102 18.5976 20.904 18.2728 21.3899 17.6161C21.8754 16.959 21.9505 16.0973 21.5857 15.3664L21.2401 14.6737ZM4.58568 13.9833V9.10496C4.58568 8.66549 4.94318 8.30799 5.38265 8.30799H19.4321C19.8716 8.30799 20.2291 8.66549 20.2291 9.10496V13.9833C20.2291 14.4228 19.8716 14.7803 19.4321 14.7803H5.38265C4.94318 14.7803 4.58568 14.4228 4.58568 13.9833ZM4.34067 6.14888C4.57384 5.83374 4.94409 5.68391 5.33119 5.74858L7.89652 6.17666C8.79004 6.32558 9.68902 5.89613 10.1344 5.10736L11.517 2.65815C11.7006 2.33253 12.0335 2.13853 12.4074 2.13853C12.7813 2.13853 13.1142 2.33253 13.2977 2.65815L14.6803 5.10781C15.1257 5.89613 16.0247 6.32604 16.9182 6.17666L19.4836 5.74858C19.8707 5.68391 20.2409 5.83374 20.4741 6.14888C20.7077 6.46448 20.7423 6.86251 20.567 7.21363L20.4454 7.45682C20.1503 7.27466 19.8033 7.16946 19.4321 7.16946H5.38265C5.01149 7.16946 4.66401 7.27466 4.36936 7.45682L4.24777 7.21363C4.07243 6.86251 4.10705 6.46448 4.34067 6.14888ZM20.4741 16.9394C20.2409 17.2545 19.8707 17.4048 19.4836 17.3397L16.9182 16.9116C16.0247 16.7622 15.1257 17.1922 14.6803 17.9809L13.2977 20.4301C13.1142 20.7557 12.7813 20.9498 12.4074 20.9498C12.0335 20.9498 11.7006 20.7557 11.517 20.4301L10.1344 17.9805C9.74777 17.2964 9.01957 16.882 8.24992 16.882C8.13288 16.882 8.01448 16.8916 7.89652 16.9116L5.33119 17.3397C4.94409 17.4048 4.57384 17.2545 4.34067 16.9394C4.10705 16.6238 4.07243 16.2258 4.24777 15.8746L4.36936 15.6315C4.66447 15.8136 5.01149 15.9188 5.38265 15.9188H19.4321C19.8033 15.9188 20.1507 15.8136 20.4454 15.6315L20.567 15.8746C20.7423 16.2258 20.7077 16.6238 20.4741 16.9394Z" fill="white"/>
<path d="M7.9844 13.2137C8.06319 13.4441 8.27951 13.599 8.52315 13.599C8.7668 13.599 8.98312 13.4441 9.0619 13.2137L9.5369 11.8211L10.0119 13.2137C10.0907 13.4441 10.307 13.599 10.5506 13.599C10.7943 13.599 11.0106 13.4441 11.0894 13.2137L12.1031 10.2417C12.2047 9.9443 12.0458 9.6205 11.7484 9.51895C11.451 9.41739 11.1272 9.57633 11.0256 9.87371L10.5506 11.2664L10.0756 9.87371C9.99686 9.64328 9.78054 9.48844 9.5369 9.48844C9.29325 9.48844 9.07693 9.64328 8.99815 9.87371L8.52315 11.2664L8.04816 9.87371C7.9466 9.57633 7.62326 9.41739 7.32542 9.51895C7.02758 9.6205 6.8691 9.94385 6.97065 10.2417L7.9844 13.2137Z" fill="white"/>
<path d="M13.0236 13.5998C13.3378 13.5998 13.5929 13.3448 13.5929 13.0305V10.0585C13.5929 9.74429 13.3378 9.48926 13.0236 9.48926C12.7094 9.48926 12.4543 9.74429 12.4543 10.0585V13.0305C12.4543 13.3448 12.7094 13.5998 13.0236 13.5998Z" fill="white"/>
<path d="M14.6633 13.5993C14.9775 13.5993 15.2326 13.3442 15.2326 13.03V11.8537L16.2928 13.3579C16.4016 13.5123 16.5765 13.5993 16.7582 13.5993C16.8156 13.5993 16.8734 13.5906 16.9303 13.5724C17.1667 13.4973 17.3274 13.2778 17.3274 13.0296V10.0575C17.3274 9.74331 17.0724 9.48828 16.7582 9.48828C16.444 9.48828 16.1889 9.74331 16.1889 10.0575V11.2339L15.1287 9.72965C14.9857 9.52699 14.728 9.44001 14.4916 9.51515C14.2552 9.59029 14.0945 9.8098 14.0945 10.058V13.03C14.0945 13.3442 14.3495 13.5993 14.6637 13.5993H14.6633Z" fill="white"/>
</g>
</svg>
