<svg width="24" height="24" viewBox="0 0 24 24" fill="none" xmlns="http://www.w3.org/2000/svg">
<g opacity="0.5">
<g clip-path="url(#clip0_12014_4143)">
<path d="M7.61578 6.70664H6.97023C6.64527 6.70664 6.38094 6.44227 6.38094 6.1173C6.38094 5.79238 6.64531 5.52801 6.97023 5.52801H7.60098C7.92633 5.52801 8.19102 5.79266 8.19102 6.11801H9.36289C9.36289 5.24105 8.71883 4.51195 7.87891 4.37824V3.74609H6.70703V4.37586C5.86027 4.50328 5.20898 5.23563 5.20898 6.1173C5.20898 7.08844 5.99906 7.87852 6.97016 7.87852H7.6157C7.94066 7.87852 8.205 8.14289 8.205 8.46785C8.205 8.79277 7.94062 9.05715 7.6157 9.05715H6.95867C6.6452 9.05715 6.39016 8.80215 6.39016 8.48863H5.21828C5.21828 9.36281 5.86621 10.0882 6.70699 10.2106V10.8391H7.87887V10.2093C8.72562 10.0819 9.37691 9.34953 9.37691 8.46785C9.37699 7.49672 8.58691 6.70664 7.61578 6.70664Z" fill="white"/>
<path d="M7.29297 2C4.37441 2 2 4.37441 2 7.29297C2 10.2115 4.37441 12.5859 7.29297 12.5859C10.2115 12.5859 12.5859 10.2115 12.5859 7.29297C12.5859 4.37441 10.2115 2 7.29297 2ZM7.29297 11.4141C5.02059 11.4141 3.17188 9.56535 3.17188 7.29297C3.17188 5.02059 5.02059 3.17188 7.29297 3.17188C9.56535 3.17188 11.4141 5.02059 11.4141 7.29297C11.4141 9.56535 9.56535 11.4141 7.29297 11.4141Z" fill="white"/>
<path d="M18.4747 7.29297V8.38816L17.8107 7.72422L16.9821 8.55285L19.0606 10.6314L21.1391 8.55285L20.3104 7.72422L19.6465 8.38816V7.29297C19.6465 5.67215 18.3279 4.35352 16.707 4.35352H13.7285V5.52539H16.707C17.6818 5.52539 18.4747 6.31832 18.4747 7.29297Z" fill="white"/>
<path d="M5.52525 16.7066V15.6114L6.1892 16.2753L7.01783 15.4466L4.93936 13.3682L2.86084 15.4466L3.68947 16.2753L4.35342 15.6113V16.7066C4.35342 18.3274 5.67205 19.646 7.29287 19.646H10.2714V18.4741H7.29287C6.31814 18.4741 5.52525 17.6812 5.52525 16.7066Z" fill="white"/>
<path d="M22 12.5905H17.8599L18.6696 11.4808L17.723 10.79L16.707 12.1824L15.6911 10.79L14.7445 11.4808L15.5541 12.5905H11.4141V16.1159H12.4346V21.9997H20.9795V16.1159H22V12.5905ZM20.8281 14.944H17.293V13.7624H20.8281V14.944ZM12.5859 13.7624H16.1211V14.944H12.5859V13.7624ZM13.6064 16.1159H16.1211V20.8278H13.6064V16.1159ZM19.8076 20.8278H17.293V16.1159H19.8076V20.8278Z" fill="white"/>
</g>
</g>
<defs>
<clipPath id="clip0_12014_4143">
<rect width="20" height="20" fill="white" transform="translate(2 2)"/>
</clipPath>
</defs>
</svg>
