<svg width="24" height="24" viewBox="0 0 24 24" fill="none" xmlns="http://www.w3.org/2000/svg">
<g opacity="0.5">
<path d="M5.99896 7.1022C5.93499 7.26254 5.87633 7.42449 5.823 7.58781C6.27839 7.65794 6.76956 7.75306 7.28156 7.88206C7.52325 7.20323 7.87882 6.55588 8.3483 5.96966L12.4924 10.1138L12.2446 10.3615C12.4287 10.5204 12.6092 10.6877 12.7855 10.8639C12.9617 11.04 13.129 11.2206 13.2877 11.4047L13.5355 11.1569L17.6793 15.3006C17.0932 15.77 16.4459 16.1256 15.7672 16.3673C15.8962 16.8793 15.9914 17.3705 16.0615 17.8258C16.3812 17.7214 16.6958 17.5966 17.0032 17.4513C17.8243 17.0633 18.5938 16.5298 19.2729 15.8508C19.4014 15.7222 19.5247 15.5905 19.6429 15.4557C20.1956 14.8242 20.652 14.1062 20.9892 13.3247C21.3968 12.3776 21.6157 11.3686 21.6457 10.3551C21.6481 10.275 21.6493 10.1945 21.6493 10.1138C21.6493 10.0113 21.6473 9.90923 21.6436 9.80761C21.6221 9.23462 21.5402 8.66347 21.398 8.10452C20.6676 5.2383 18.4116 2.98134 15.5453 2.25088C15.1562 2.15178 14.7607 2.08222 14.3631 2.0417C14.091 2.01412 13.8149 2 13.5355 2C13.2626 2 12.9927 2.01347 12.7267 2.0398C12.0831 2.10391 11.4457 2.24471 10.8293 2.46224C8.62791 3.24083 6.86273 4.94254 5.99896 7.1022ZM19.7289 7.71881C18.8633 8.40198 17.6767 8.48088 16.7369 7.95549L18.7228 5.96966C19.1545 6.5087 19.4898 7.09944 19.7289 7.71881ZM15.6677 9.02475C16.9913 9.94827 18.73 10.0173 20.1156 9.23177C20.3488 10.9817 19.8844 12.8069 18.7225 14.2575L14.5787 10.1138L15.6677 9.02475ZM14.6245 7.9816L13.5355 9.0706L9.3914 4.92647C10.8422 3.76442 12.6676 3.30006 14.4177 3.5334C13.6321 4.91906 13.701 6.65793 14.6245 7.9816ZM15.6938 6.91234C15.1684 5.97253 15.2473 4.7858 15.9307 3.92022C16.55 4.15934 17.1407 4.49476 17.6796 4.92647L15.6938 6.91234Z" fill="white"/>
<path d="M6.86716 13.2805C7.15522 12.9924 7.62226 12.9924 7.91031 13.2805L10.369 15.7392C10.6571 16.0273 10.6571 16.4943 10.369 16.7823C10.081 17.0704 9.61394 17.0704 9.32589 16.7823L6.86716 14.3236C6.57911 14.0355 6.57911 13.5686 6.86716 13.2805Z" fill="white"/>
<path d="M2.00704 10.8695C1.89949 9.45155 3.03845 8.31258 4.45637 8.42012C6.40177 8.56769 9.70756 9.17656 12.09 11.559C14.4724 13.9415 15.0813 17.2473 15.2289 19.1926C15.3364 20.6105 14.1974 21.7495 12.7795 21.642C10.8342 21.4944 7.52837 20.8855 5.14592 18.5031C2.76347 16.1206 2.1546 12.8149 2.00704 10.8695ZM4.34479 9.89118C3.8277 9.85192 3.43883 10.2408 3.47805 10.7578C3.61701 12.5898 4.18458 15.4555 6.18906 17.4599C8.19355 19.4645 11.0592 20.032 12.8912 20.171C13.4082 20.2102 13.7971 19.8213 13.7579 19.3043C13.619 17.4723 13.0514 14.6066 11.0468 12.6022C9.04238 10.5977 6.17674 10.03 4.34479 9.89118Z" fill="white"/>
</g>
</svg>
