<svg width="24" height="24" viewBox="0 0 24 24" fill="none" xmlns="http://www.w3.org/2000/svg">
<g opacity="0.5">
<path d="M20.5694 9.80188C20.21 9.53552 19.9036 9.20417 19.6663 8.825C19.5559 8.36842 19.5332 7.89504 19.5994 7.43C19.6525 6.55875 19.7131 5.57125 19.0706 4.93C18.4281 4.28875 17.4419 4.3475 16.5706 4.40188C16.1053 4.4679 15.6317 4.44499 15.175 4.33437C14.7958 4.09699 14.4645 3.79066 14.1981 3.43125C13.6112 2.76063 12.9462 2 12 2C11.0538 2 10.3888 2.76063 9.80188 3.43125C9.53535 3.79034 9.20403 4.09643 8.825 4.33375C8.36846 4.44441 7.89503 4.46711 7.43 4.40062C6.56 4.34687 5.57188 4.28687 4.93 4.92937C4.28813 5.57187 4.3475 6.55875 4.40125 7.42938C4.46775 7.8944 4.44505 8.36784 4.33437 8.82437C4.09712 9.20383 3.79078 9.5354 3.43125 9.80188C2.76 10.3888 2 11.0538 2 12C2 12.9462 2.76 13.6112 3.43125 14.1981C3.7905 14.4645 4.09662 14.7958 4.33375 15.175C4.44444 15.6317 4.46714 16.1054 4.40062 16.5706C4.34687 17.4412 4.28625 18.4287 4.92875 19.0706C5.57125 19.7125 6.55687 19.6525 7.42875 19.5988C7.89383 19.5327 8.36722 19.5556 8.82375 19.6663C9.20312 19.9034 9.53468 20.2095 9.80125 20.5687C10.3881 21.2394 11.0512 22 11.9994 22C12.9475 22 13.6106 21.2394 14.1975 20.5694C14.4639 20.21 14.7952 19.9036 15.1744 19.6663C15.6309 19.5555 16.1044 19.5328 16.5694 19.5994C17.4394 19.6531 18.4275 19.7137 19.0694 19.0706C19.7113 18.4275 19.6513 17.4419 19.5975 16.5706C19.5312 16.1054 19.5541 15.6317 19.665 15.175C19.9024 14.7958 20.2087 14.4645 20.5681 14.1981C21.2394 13.6112 22 12.9462 22 12C22 11.0538 21.2394 10.3888 20.5694 9.80188ZM19.7463 13.2575C19.2323 13.6383 18.8103 14.1295 18.5112 14.695C18.3139 15.3255 18.2592 15.992 18.3512 16.6462C18.3888 17.2531 18.4312 17.9419 18.1869 18.1856C17.9425 18.4294 17.2537 18.3869 16.6469 18.3506C15.9929 18.2588 15.3267 18.3132 14.6962 18.51C14.1308 18.809 13.6396 19.231 13.2587 19.745C12.825 20.24 12.3787 20.75 12 20.75C11.6213 20.75 11.1744 20.24 10.7425 19.7463C10.3615 19.2324 9.87035 18.8104 9.305 18.5112C8.92805 18.3705 8.52711 18.3053 8.125 18.3194C7.86875 18.3194 7.60875 18.3356 7.35125 18.3512C6.74312 18.3894 6.05562 18.4312 5.81125 18.1869C5.56687 17.9425 5.61 17.2544 5.64687 16.6475C5.73911 15.9933 5.68467 15.3268 5.4875 14.6962C5.18848 14.1308 4.76646 13.6396 4.2525 13.2587C3.76 12.825 3.25 12.3787 3.25 12C3.25 11.6213 3.76 11.175 4.25375 10.7425C4.76771 10.3617 5.18973 9.87047 5.48875 9.305C5.68591 8.67466 5.74035 8.00836 5.64812 7.35438C5.61125 6.74563 5.56875 6.05687 5.8125 5.8125C6.05625 5.56813 6.745 5.61125 7.3525 5.6475C8.00647 5.7401 8.67286 5.68566 9.30313 5.48812C9.86847 5.18893 10.3597 4.76694 10.7406 4.25312C11.1744 3.76 11.6213 3.25 12 3.25C12.3787 3.25 12.825 3.76 13.2575 4.25375C13.6383 4.76771 14.1295 5.18973 14.695 5.48875C15.3255 5.68613 15.992 5.74078 16.6462 5.64875C17.2537 5.61062 17.9419 5.56813 18.1856 5.81312C18.4294 6.05813 18.3881 6.74562 18.3506 7.35312C18.2584 8.00711 18.3128 8.67341 18.51 9.30375C18.809 9.86922 19.231 10.3604 19.745 10.7413C20.24 11.175 20.75 11.6213 20.75 12C20.75 12.3787 20.24 12.825 19.7463 13.2575Z" fill="white"/>
<path d="M10.5729 15.2246C10.5898 15.11 10.5738 14.9929 10.5267 14.8871L8.94167 11.4889C8.907 11.4145 8.858 11.3477 8.79749 11.2922C8.73698 11.2368 8.66614 11.1938 8.58901 11.1657C8.51188 11.1376 8.42997 11.125 8.34796 11.1285C8.26595 11.1321 8.18545 11.1518 8.11105 11.1864C8.03665 11.2211 7.9698 11.2701 7.91434 11.3306C7.85887 11.3911 7.81586 11.462 7.78777 11.5391C7.75968 11.6162 7.74706 11.6981 7.75062 11.7802C7.75419 11.8622 7.77387 11.9427 7.80855 12.0171L8.2748 13.0171L7.0623 12.0558C6.95179 11.9685 6.81503 11.9211 6.67418 11.9212C6.53333 11.9213 6.39667 11.9691 6.28633 12.0566C6.176 12.1441 6.09847 12.2664 6.06631 12.4035C6.03416 12.5406 6.04926 12.6846 6.10917 12.8121L7.69417 16.2108C7.76582 16.3596 7.89278 16.4745 8.04795 16.531C8.20313 16.5875 8.37424 16.5812 8.5248 16.5133C8.59921 16.4787 8.66606 16.4297 8.72153 16.3692C8.77701 16.3086 8.82002 16.2378 8.84811 16.1607C8.8762 16.0835 8.88882 16.0016 8.88525 15.9196C8.88168 15.8376 8.86199 15.7571 8.8273 15.6827L8.36105 14.6827L9.57167 15.6433C9.68205 15.7267 9.81645 15.7722 9.9548 15.7729C10.0931 15.7735 10.228 15.7294 10.3392 15.6471C10.4685 15.5415 10.5522 15.3902 10.5729 15.2246Z" fill="white"/>
<path d="M12.528 13.2653L11.9618 13.5296L11.6974 12.9628L12.2643 12.6984C12.4119 12.6267 12.5254 12.4998 12.5802 12.3452C12.6351 12.1905 12.6269 12.0205 12.5575 11.8718C12.4881 11.7231 12.363 11.6077 12.2092 11.5504C12.0554 11.4932 11.8852 11.4988 11.7355 11.5659L11.1693 11.8303L10.9049 11.2634L11.4718 10.999C11.5474 10.9651 11.6155 10.9165 11.6722 10.856C11.7288 10.7955 11.7729 10.7244 11.8018 10.6467C11.8307 10.569 11.8439 10.4864 11.8406 10.4035C11.8372 10.3207 11.8174 10.2394 11.7824 10.1643C11.7473 10.0892 11.6977 10.0218 11.6363 9.9661C11.575 9.91037 11.5031 9.86739 11.425 9.83968C11.3469 9.81197 11.2641 9.80007 11.1813 9.80468C11.0986 9.80928 11.0176 9.8303 10.943 9.86651L9.8105 10.3953C9.73609 10.4299 9.66924 10.4789 9.61377 10.5394C9.5583 10.5999 9.51529 10.6708 9.4872 10.7479C9.4591 10.825 9.44648 10.907 9.45005 10.989C9.45362 11.071 9.47332 11.1515 9.508 11.2259L11.093 14.6253C11.1433 14.7331 11.2234 14.8243 11.3239 14.8882C11.4243 14.9521 11.5409 14.986 11.6599 14.9859C11.751 14.9858 11.8409 14.966 11.9236 14.9278L13.0555 14.4003C13.1299 14.3656 13.1967 14.3166 13.2522 14.2561C13.3077 14.1956 13.3507 14.1247 13.3788 14.0476C13.4069 13.9705 13.4195 13.8886 13.4159 13.8066C13.4124 13.7245 13.3927 13.644 13.358 13.5696C13.3233 13.4952 13.2743 13.4284 13.2138 13.3729C13.1533 13.3175 13.0825 13.2745 13.0053 13.2464C12.9282 13.2183 12.8463 13.2056 12.7643 13.2092C12.6823 13.2128 12.6018 13.2325 12.5274 13.2671L12.528 13.2653Z" fill="white"/>
<path d="M17.9376 11.5978C17.9376 11.5815 17.9307 11.5659 17.9263 11.5503L16.9082 7.88777C16.8639 7.72797 16.7579 7.59234 16.6135 7.5107C16.4692 7.42907 16.2983 7.40811 16.1385 7.45246C15.9787 7.4968 15.8431 7.6028 15.7614 7.74714C15.6798 7.89149 15.6589 8.06235 15.7032 8.22214L16.207 10.0346L15.5232 9.49214C15.431 9.42457 15.3224 9.383 15.2087 9.3718C15.095 9.3606 14.9803 9.38018 14.8768 9.42848C14.7732 9.47678 14.6845 9.55203 14.62 9.64636C14.5555 9.74068 14.5175 9.85061 14.5101 9.96464L14.4857 10.8396L13.4232 9.28964C13.328 9.15665 13.1844 9.06629 13.0233 9.03796C12.8622 9.00962 12.6964 9.04557 12.5615 9.13809C12.4266 9.23061 12.3334 9.37232 12.3018 9.53281C12.2702 9.6933 12.3028 9.85978 12.3926 9.99652L14.5445 13.1315C14.6215 13.2363 14.7282 13.3155 14.8508 13.3589C14.9733 13.4024 15.1061 13.4081 15.232 13.3753C15.3568 13.3349 15.4668 13.2581 15.5476 13.1548C15.6285 13.0514 15.6766 12.9262 15.6857 12.7953L15.7276 11.2503C15.7276 11.2503 16.9376 12.2103 16.9445 12.214C17.068 12.3123 17.2249 12.3585 17.3819 12.343C17.539 12.3275 17.6838 12.2514 17.7857 12.1309C17.8483 12.0585 17.8944 11.9732 17.9206 11.8811C17.9469 11.789 17.9526 11.6923 17.9376 11.5978Z" fill="white"/>
</g>
</svg>
