<svg width="24" height="24" viewBox="0 0 24 24" fill="none" xmlns="http://www.w3.org/2000/svg">
<g opacity="0.5">
<path d="M9.83317 4.08024C10.3839 3.61094 10.6592 3.3763 10.9471 3.2387C11.613 2.92043 12.387 2.92043 13.0529 3.2387C13.3408 3.3763 13.6161 3.61094 14.1668 4.08024C14.386 4.26702 14.4956 4.36042 14.6127 4.43886C14.881 4.61869 15.1823 4.74349 15.4991 4.80605C15.6374 4.83334 15.7808 4.8448 16.068 4.8677C16.7892 4.92525 17.1498 4.95404 17.4507 5.0603C18.1465 5.3061 18.6939 5.85346 18.9397 6.54934C19.046 6.85021 19.0747 7.21083 19.1323 7.93207C19.1552 8.21913 19.1666 8.36266 19.194 8.50089C19.2565 8.81776 19.3813 9.11906 19.5612 9.38736C19.6396 9.5044 19.733 9.61399 19.9198 9.83316C20.3891 10.3838 20.6238 10.6593 20.7614 10.9471C21.0795 11.6129 21.0795 12.387 20.7614 13.0529C20.6238 13.3408 20.3891 13.6161 19.9198 14.1668C19.733 14.386 19.6396 14.4956 19.5612 14.6127C19.3813 14.8809 19.2565 15.1822 19.194 15.4992C19.1666 15.6373 19.1552 15.7809 19.1323 16.0679C19.0747 16.7892 19.046 17.1498 18.9397 17.4507C18.6939 18.1465 18.1465 18.6939 17.4507 18.9397C17.1498 19.046 16.7892 19.0747 16.068 19.1323C15.7808 19.1552 15.6374 19.1667 15.4991 19.194C15.1823 19.2566 14.881 19.3813 14.6127 19.5612C14.4956 19.6396 14.386 19.733 14.1668 19.9198C13.6161 20.3891 13.3408 20.6237 13.0529 20.7613C12.387 21.0795 11.613 21.0795 10.9471 20.7613C10.6592 20.6237 10.3839 20.3891 9.83317 19.9198C9.61399 19.733 9.50439 19.6396 9.38735 19.5612C9.11906 19.3813 8.81776 19.2566 8.50089 19.194C8.36266 19.1667 8.21914 19.1552 7.93207 19.1323C7.21083 19.0747 6.8502 19.046 6.54934 18.9397C5.85346 18.6939 5.30609 18.1465 5.06031 17.4507C4.95404 17.1498 4.92526 16.7892 4.8677 16.0679C4.84479 15.7809 4.83335 15.6373 4.80605 15.4992C4.7435 15.1822 4.61869 14.8809 4.43887 14.6127C4.36042 14.4956 4.26703 14.386 4.08025 14.1668C3.61094 13.6161 3.3763 13.3408 3.23869 13.0529C2.92044 12.387 2.92044 11.6129 3.23869 10.9471C3.3763 10.6592 3.61094 10.3838 4.08025 9.83316C4.26703 9.61399 4.36042 9.5044 4.43887 9.38736C4.61869 9.11906 4.7435 8.81776 4.80605 8.50089C4.83335 8.36266 4.84479 8.21913 4.8677 7.93207C4.92526 7.21083 4.95404 6.85021 5.06031 6.54934C5.30609 5.85346 5.85346 5.3061 6.54934 5.0603C6.8502 4.95404 7.21083 4.92525 7.93207 4.8677C8.21914 4.8448 8.36266 4.83334 8.50089 4.80605C8.81776 4.74349 9.11906 4.61869 9.38735 4.43886C9.5044 4.36042 9.61399 4.26702 9.83317 4.08024Z" stroke="white" stroke-width="1.5"/>
<path d="M9.07031 14.9301L14.9301 9.07031" stroke="white" stroke-width="1.5" stroke-linecap="round"/>
<path d="M15.4186 14.4425C15.4186 14.9818 14.9814 15.4191 14.442 15.4191C13.9026 15.4191 13.4653 14.9818 13.4653 14.4425C13.4653 13.9031 13.9026 13.4658 14.442 13.4658C14.9814 13.4658 15.4186 13.9031 15.4186 14.4425Z" fill="white"/>
<path d="M10.5355 9.55866C10.5355 10.0981 10.0983 10.5353 9.55891 10.5353C9.01953 10.5353 8.58228 10.0981 8.58228 9.55866C8.58228 9.01929 9.01953 8.58203 9.55891 8.58203C10.0983 8.58203 10.5355 9.01929 10.5355 9.55866Z" fill="white"/>
</g>
</svg>
