<svg width="24" height="24" viewBox="0 0 24 24" fill="none" xmlns="http://www.w3.org/2000/svg">
<g opacity="0.5">
<path d="M17.2272 2H6.77548C5.22184 2 3.95068 3.27116 3.95068 4.8248V22.1266C3.95068 22.5857 4.26847 23.0094 4.7275 23.1153C5.18653 23.2566 5.64556 23.0447 5.89273 22.6563L7.12858 20.6083L8.71753 22.9035C8.89408 23.186 9.24718 23.3625 9.56497 23.3625C9.91807 23.3625 10.2359 23.186 10.4124 22.9035L12.0367 20.5377L13.6609 22.9035C13.8375 23.186 14.1906 23.3625 14.5084 23.3625C14.8262 23.3625 15.1793 23.186 15.3558 22.9035L16.9095 20.6083L18.1453 22.6916C18.3925 23.08 18.8515 23.292 19.3105 23.1507C19.7696 23.0095 20.0873 22.621 20.0873 22.162V4.8248C20.052 3.27116 18.7809 2 17.2272 2ZM18.4631 20.1494L17.7922 19.0194C17.6157 18.7016 17.2979 18.525 16.9448 18.525C16.5917 18.525 16.2739 18.7016 16.062 18.9841L14.4731 21.3145L12.8488 18.9488C12.6723 18.6663 12.3545 18.4897 12.0014 18.4897C11.6483 18.4897 11.3305 18.6663 11.1539 18.9488L9.52966 21.3145L7.94071 18.9488C7.72885 18.6663 7.41106 18.4897 7.09327 18.4897H7.05796C6.70486 18.4897 6.38707 18.7016 6.21052 18.9841L5.57494 20.0787V4.8248C5.57494 4.1186 6.1399 3.58895 6.81079 3.58895H17.2272C17.9334 3.58895 18.4631 4.15391 18.4631 4.8248V20.1494Z" fill="white"/>
<path d="M15.6385 8.32043H8.36462C7.9409 8.32043 7.55249 8.67353 7.55249 9.13256C7.55249 9.59159 7.90559 9.94469 8.36462 9.94469H15.6385C16.0622 9.94469 16.4506 9.59159 16.4506 9.13256C16.4506 8.67353 16.0622 8.32043 15.6385 8.32043Z" fill="white"/>
<path d="M15.6385 11.9574H8.36462C7.9409 11.9574 7.55249 12.3105 7.55249 12.7695C7.55249 13.1932 7.90559 13.5817 8.36462 13.5817H15.6385C16.0622 13.5817 16.4506 13.2286 16.4506 12.7695C16.4153 12.3105 16.0622 11.9574 15.6385 11.9574Z" fill="white"/>
</g>
</svg>
