<svg width="24" height="24" viewBox="0 0 24 24" fill="none" xmlns="http://www.w3.org/2000/svg">
<g opacity="0.5">
<path d="M17.8438 4H5.65472C4.1908 4 3 5.1908 3 6.65442V14.7715C3 16.2363 4.19171 17.4277 5.65625 17.4277H11.0673C12.3283 17.4277 13.567 17.858 14.5558 18.6393L16.3105 20.0272C16.4979 20.1743 16.7219 20.25 16.9484 20.25C17.101 20.25 17.2554 20.2158 17.3994 20.1456C17.7583 19.9723 17.9811 19.6165 17.9811 19.2179V17.4241C19.3818 17.3533 20.5 16.1912 20.5 14.7727V6.65625C20.5 5.19141 19.3086 4 17.8438 4ZM19.25 14.7727C19.25 15.5472 18.6201 16.1777 17.8456 16.1777H17.3561C17.0106 16.1777 16.7311 16.4573 16.7311 16.8027V18.7656L15.3309 17.6591C14.1224 16.7039 12.6082 16.1777 11.0673 16.1777H5.65625C4.8808 16.1777 4.25 15.5466 4.25 14.7715V6.65442C4.25 5.87988 4.88019 5.25 5.65472 5.25H17.8438C18.6189 5.25 19.25 5.8811 19.25 6.65625V14.7727Z" fill="white"/>
<path d="M14.3019 10.4824C13.5455 10.4824 12.8767 10.8356 12.4274 11.3779L10.8881 10.6583C10.9008 10.5651 10.9166 10.4728 10.9166 10.3762C10.9166 10.2796 10.9008 10.1872 10.8881 10.094L13.1353 9.04317C13.4423 9.32935 13.8504 9.5083 14.3019 9.5083C15.2498 9.5083 16.0206 8.7356 16.0206 7.78589C16.0206 6.83618 15.2498 6.06348 14.3019 6.06348C13.354 6.06348 12.5831 6.83618 12.5831 7.78589C12.5831 7.83002 12.5929 7.87149 12.5961 7.91479L10.3568 8.962C9.97601 8.54997 9.43654 8.2876 8.83344 8.2876C7.68475 8.2876 6.75 9.22449 6.75 10.3762C6.75 11.5273 7.68475 12.4642 8.83344 12.4642C9.43646 12.4642 9.9759 12.202 10.3566 11.7901L11.8974 12.5105C11.8729 12.6495 11.8544 12.7907 11.8544 12.9366C11.8544 14.2898 12.9524 15.3909 14.3019 15.3909C15.652 15.3909 16.75 14.2898 16.75 12.9366C16.75 11.5835 15.652 10.4824 14.3019 10.4824ZM14.3019 8.2583C14.0437 8.2583 13.8331 8.04651 13.8331 7.78589C13.8331 7.52527 14.0437 7.31348 14.3019 7.31348C14.5601 7.31348 14.7706 7.52527 14.7706 7.78589C14.7706 8.04651 14.5601 8.2583 14.3019 8.2583ZM8.83344 11.2142C8.37384 11.2142 8 10.8383 8 10.3762C8 9.91357 8.37384 9.5376 8.83344 9.5376C9.29272 9.5376 9.66656 9.91357 9.66656 10.3762C9.66656 10.8383 9.29272 11.2142 8.83344 11.2142ZM14.3019 14.1409C13.6415 14.1409 13.1044 13.6007 13.1044 12.9366C13.1044 12.2726 13.6415 11.7324 14.3019 11.7324C14.9623 11.7324 15.5 12.2726 15.5 12.9366C15.5 13.6007 14.9623 14.1409 14.3019 14.1409Z" fill="white"/>
</g>
</svg>
