<svg width="24" height="24" viewBox="0 0 24 24" fill="none" xmlns="http://www.w3.org/2000/svg">
<g opacity="0.5">
<path d="M15.5 15.75V17.5L17 18.5M7.66846 8.45044L5.7876 10.3313M5.80615 8.46887L7.68701 10.3497M10.1104 9.40009H10.1165M12.54 9.40009H12.5462M11.3252 10.6211V10.6088M11.3252 8.19141V8.17908M15.3335 10.0167V8.7834C15.3335 5.70002 14.1001 4.46667 11.0168 4.46667H7.31672C4.23335 4.46667 3 5.70002 3 8.7834V10.0167C3 13.1001 4.23335 14.3335 7.31672 14.3335M9.78945 2L9.78328 2.62284C9.77711 2.96201 9.50578 3.23335 9.16661 3.23335H9.14811C8.80893 3.23335 8.5376 3.51085 8.5376 3.85002C8.5376 4.1892 8.8151 4.4667 9.15427 4.4667H9.77095M21 17.5C21 20.5376 18.5376 23 15.5 23C12.4624 23 10 20.5376 10 17.5C10 14.4624 12.4624 12 15.5 12C18.5376 12 21 14.4624 21 17.5Z" stroke="white" stroke-width="1.5" stroke-linecap="round" stroke-linejoin="round"/>
</g>
</svg>
