<svg width="24" height="24" viewBox="0 0 24 24" fill="none" xmlns="http://www.w3.org/2000/svg">
<g opacity="0.5" clip-path="url(#clip0_12025_36890)">
<path fill-rule="evenodd" clip-rule="evenodd" d="M14.9935 4.26035C15.3485 3.91322 15.9242 3.91322 16.2792 4.26035L21.4234 9.2902C22.1105 9.96217 21.6238 11.1111 20.652 11.1111H2.90909C2.40702 11.1111 2 10.7132 2 10.2222C2 9.73131 2.40702 9.33334 2.90909 9.33334H18.8962L14.9935 5.51743C14.6385 5.17029 14.6385 4.60749 14.9935 4.26035ZM5.10383 14.6667H21.0909C21.593 14.6667 22 14.2687 22 13.7778C22 13.2869 21.593 12.8889 21.0909 12.8889H3.34804C2.37615 12.8889 1.88941 14.0379 2.57665 14.7098L7.72081 19.7397C8.07584 20.0868 8.65144 20.0868 9.00646 19.7397C9.36148 19.3926 9.36148 18.8297 9.00646 18.4826L5.10383 14.6667Z" fill="white"/>
</g>
<defs>
<clipPath id="clip0_12025_36890">
<rect width="24" height="24" fill="white"/>
</clipPath>
</defs>
</svg>
