<svg width="24" height="24" viewBox="0 0 24 24" fill="none" xmlns="http://www.w3.org/2000/svg">
<g opacity="0.5">
<path fill-rule="evenodd" clip-rule="evenodd" d="M17.7883 2.75H17.7857H6.21429C4.43904 2.75 3 4.18904 3 5.96429V17.5357C3 19.311 4.43904 20.75 6.21429 20.75H17.7857C18.6381 20.75 19.4559 20.4112 20.0585 19.8085C20.6612 19.2059 21 18.3881 21 17.5357V5.96429C21 5.11186 20.6612 4.29414 20.0585 3.69146C19.4652 3.09811 18.6635 2.76061 17.8256 2.75032V2.75129L17.8188 2.75096L17.7918 2.75H17.7905H17.7883ZM17.8098 4.03571C18.3125 4.04214 18.7934 4.24464 19.1495 4.60046C19.5111 4.96239 19.7143 5.45289 19.7143 5.96429V17.5357C19.7143 18.0471 19.5111 18.5376 19.1495 18.8995C18.7876 19.2611 18.2971 19.4643 17.7857 19.4643C14.6431 19.4643 9.35689 19.4643 6.21429 19.4643C5.14907 19.4643 4.28571 18.6009 4.28571 17.5357V5.96429C4.28571 4.89907 5.14907 4.03571 6.21429 4.03571H17.7857L17.8175 4.03604L17.8098 4.03571Z" fill="white"/>
<path fill-rule="evenodd" clip-rule="evenodd" d="M10.5063 6.21036L9.41926 8.18908L7.20172 8.61143C6.58715 8.72843 6.08508 9.17072 5.8919 9.76568C5.6984 10.3606 5.84465 11.0135 6.2728 11.4696L7.81887 13.1146L7.53537 15.3544C7.45662 15.975 7.72212 16.5893 8.22837 16.957C8.7343 17.3247 9.40062 17.3874 9.96665 17.1209L12.009 16.1589L14.0514 17.1209C14.6174 17.3874 15.2834 17.3247 15.7897 16.957C16.2956 16.5893 16.5614 15.975 16.4827 15.3544L16.1988 13.1146L17.7449 11.4696C18.1734 11.0135 18.3193 10.3606 18.1261 9.76568C17.9329 9.17072 17.4309 8.72843 16.8163 8.61143L14.5984 8.18908L13.5117 6.21036C13.2105 5.662 12.6345 5.32129 12.009 5.32129C11.3835 5.32129 10.8075 5.662 10.5063 6.21036ZM11.6333 6.82943C11.7085 6.69218 11.8525 6.607 12.009 6.607C12.1652 6.607 12.3092 6.69218 12.3848 6.82943L13.6174 9.07333C13.7097 9.24143 13.8723 9.3594 14.0607 9.3954L16.5759 9.87433C16.7295 9.90358 16.8549 10.0141 16.9034 10.163C16.9516 10.3118 16.9153 10.4751 16.8079 10.5892L15.0549 12.4548C14.9234 12.5946 14.8614 12.7858 14.8855 12.9758L15.2072 15.516C15.2268 15.6713 15.1603 15.8246 15.034 15.9169C14.9073 16.0088 14.7408 16.0242 14.5991 15.9577L12.2829 14.8668C12.1093 14.7851 11.9084 14.7851 11.7352 14.8668L9.41862 15.9577C9.27719 16.0242 9.11069 16.0088 8.98405 15.9169C8.8574 15.8246 8.79119 15.6713 8.8108 15.516L9.13255 12.9758C9.15665 12.7858 9.09462 12.5946 8.96315 12.4548L7.20976 10.5892C7.10272 10.4751 7.06608 10.3118 7.11462 10.163C7.16283 10.0141 7.28851 9.90358 7.44215 9.87433L9.95733 9.3954C10.1457 9.3594 10.308 9.24143 10.4006 9.07333L11.6333 6.82943Z" fill="white"/>
</g>
</svg>
