<svg width="16" height="17" viewBox="0 0 16 17" fill="none" xmlns="http://www.w3.org/2000/svg">
<g filter="url(#filter0_dii_12001_64734)">
<path d="M1 8C1 4.13401 4.13401 1 8 1C11.866 1 15 4.13401 15 8C15 11.866 11.866 15 8 15C4.13401 15 1 11.866 1 8Z" fill="url(#paint0_linear_12001_64734)"/>
<path d="M1 8C1 4.13401 4.13401 1 8 1C11.866 1 15 4.13401 15 8C15 11.866 11.866 15 8 15C4.13401 15 1 11.866 1 8Z" fill="url(#paint1_linear_12001_64734)"/>
<path d="M1 8C1 4.13401 4.13401 1 8 1C11.866 1 15 4.13401 15 8C15 11.866 11.866 15 8 15C4.13401 15 1 11.866 1 8Z" fill="#04CE00" style="mix-blend-mode:color"/>
<path d="M7.46045 9.13989C7.46045 9.43612 7.38753 9.69132 7.2417 9.90552C7.09814 10.1197 6.89079 10.2838 6.61963 10.3977C6.35075 10.5116 6.02946 10.5686 5.65576 10.5686C5.47347 10.5686 5.29915 10.5583 5.13281 10.5378C4.96647 10.5173 4.80924 10.4877 4.66113 10.449C4.5153 10.408 4.382 10.359 4.26123 10.302V9.52954C4.46403 9.61841 4.69076 9.6993 4.94141 9.77222C5.19206 9.84285 5.44727 9.87817 5.70703 9.87817C5.91895 9.87817 6.0944 9.85083 6.2334 9.79614C6.37467 9.73918 6.47949 9.65942 6.54785 9.55688C6.61621 9.45207 6.65039 9.33016 6.65039 9.19116C6.65039 9.04305 6.61051 8.91772 6.53076 8.81519C6.45101 8.71265 6.33024 8.61922 6.16846 8.53491C6.00895 8.44832 5.80843 8.35604 5.56689 8.25806C5.40283 8.19198 5.24561 8.11678 5.09521 8.03247C4.9471 7.94816 4.81494 7.84904 4.69873 7.73511C4.58252 7.62118 4.49023 7.48673 4.42188 7.33179C4.35579 7.17456 4.32275 6.98999 4.32275 6.77808C4.32275 6.49552 4.38997 6.25399 4.52441 6.05347C4.66113 5.85295 4.85254 5.69914 5.09863 5.59204C5.34701 5.48494 5.63639 5.4314 5.9668 5.4314C6.22884 5.4314 6.47493 5.45874 6.70508 5.51343C6.9375 5.56812 7.16536 5.64559 7.38867 5.74585L7.12891 6.40552C6.92383 6.32121 6.72445 6.25399 6.53076 6.20386C6.33936 6.15373 6.14339 6.12866 5.94287 6.12866C5.76969 6.12866 5.62272 6.15487 5.50195 6.20728C5.38118 6.25968 5.2889 6.33374 5.2251 6.42944C5.16357 6.52287 5.13281 6.63452 5.13281 6.7644C5.13281 6.91024 5.16813 7.03328 5.23877 7.13354C5.31169 7.23153 5.42334 7.32153 5.57373 7.40356C5.7264 7.4856 5.92236 7.57674 6.16162 7.677C6.43734 7.79093 6.6709 7.91056 6.8623 8.03589C7.05599 8.16121 7.2041 8.3116 7.30664 8.48706C7.40918 8.66024 7.46045 8.87785 7.46045 9.13989Z" fill="#000724"/>
<path d="M10.3204 6.12866C10.0811 6.12866 9.86693 6.17196 9.6778 6.25854C9.49095 6.34513 9.33258 6.47046 9.2027 6.63452C9.07282 6.79631 8.9737 6.99341 8.90534 7.22583C8.83698 7.45597 8.8028 7.71574 8.8028 8.00513C8.8028 8.3925 8.85749 8.72632 8.96686 9.00659C9.07624 9.28459 9.24258 9.49878 9.46589 9.64917C9.68919 9.79728 9.97175 9.87134 10.3135 9.87134C10.5255 9.87134 10.7317 9.85083 10.9322 9.80981C11.1327 9.7688 11.3401 9.71297 11.5543 9.64233V10.3396C11.3515 10.4194 11.1464 10.4775 10.939 10.5139C10.7317 10.5504 10.4924 10.5686 10.2213 10.5686C9.71084 10.5686 9.28701 10.4626 8.94977 10.2507C8.61481 10.0388 8.36416 9.74032 8.19782 9.35522C8.03376 8.97013 7.95173 8.51896 7.95173 8.00171C7.95173 7.62345 8.00413 7.2771 8.10895 6.96265C8.21377 6.64819 8.36644 6.37703 8.56696 6.14917C8.76748 5.91903 9.01471 5.74243 9.30866 5.61938C9.60488 5.49406 9.94326 5.4314 10.3238 5.4314C10.5744 5.4314 10.8205 5.45988 11.0621 5.51685C11.3059 5.57153 11.5315 5.65015 11.7388 5.75269L11.4517 6.42944C11.2785 6.34741 11.0974 6.27677 10.9083 6.21753C10.7191 6.15828 10.5232 6.12866 10.3204 6.12866Z" fill="#000724"/>
</g>
<defs>
<filter id="filter0_dii_12001_64734" x="0" y="0.5" width="16" height="16" filterUnits="userSpaceOnUse" color-interpolation-filters="sRGB">
<feFlood flood-opacity="0" result="BackgroundImageFix"/>
<feColorMatrix in="SourceAlpha" type="matrix" values="0 0 0 0 0 0 0 0 0 0 0 0 0 0 0 0 0 0 127 0" result="hardAlpha"/>
<feOffset dy="0.5"/>
<feGaussianBlur stdDeviation="0.5"/>
<feComposite in2="hardAlpha" operator="out"/>
<feColorMatrix type="matrix" values="0 0 0 0 0 0 0 0 0 0 0 0 0 0 0 0 0 0 0.25 0"/>
<feBlend mode="multiply" in2="BackgroundImageFix" result="effect1_dropShadow_12001_64734"/>
<feBlend mode="normal" in="SourceGraphic" in2="effect1_dropShadow_12001_64734" result="shape"/>
<feColorMatrix in="SourceAlpha" type="matrix" values="0 0 0 0 0 0 0 0 0 0 0 0 0 0 0 0 0 0 127 0" result="hardAlpha"/>
<feOffset dy="0.5"/>
<feGaussianBlur stdDeviation="0.5"/>
<feComposite in2="hardAlpha" operator="arithmetic" k2="-1" k3="1"/>
<feColorMatrix type="matrix" values="0 0 0 0 1 0 0 0 0 1 0 0 0 0 1 0 0 0 0.45 0"/>
<feBlend mode="plus-lighter" in2="shape" result="effect2_innerShadow_12001_64734"/>
<feColorMatrix in="SourceAlpha" type="matrix" values="0 0 0 0 0 0 0 0 0 0 0 0 0 0 0 0 0 0 127 0" result="hardAlpha"/>
<feOffset dy="-0.5"/>
<feGaussianBlur stdDeviation="0.5"/>
<feComposite in2="hardAlpha" operator="arithmetic" k2="-1" k3="1"/>
<feColorMatrix type="matrix" values="0 0 0 0 0 0 0 0 0 0 0 0 0 0 0 0 0 0 0.25 0"/>
<feBlend mode="plus-darker" in2="effect2_innerShadow_12001_64734" result="effect3_innerShadow_12001_64734"/>
</filter>
<linearGradient id="paint0_linear_12001_64734" x1="-3.2" y1="-4.83333" x2="20.1816" y2="17.7884" gradientUnits="userSpaceOnUse">
<stop stop-color="#FFDE32"/>
<stop offset="0.127699" stop-color="#FFEB82"/>
<stop offset="0.307699" stop-color="#FFDE32"/>
<stop offset="0.447699" stop-color="#FFF3B2"/>
<stop offset="0.610007" stop-color="#FFDE32"/>
<stop offset="0.785007" stop-color="#FFF3B5"/>
<stop offset="1" stop-color="#FFDE32"/>
</linearGradient>
<linearGradient id="paint1_linear_12001_64734" x1="8" y1="1" x2="8" y2="15" gradientUnits="userSpaceOnUse">
<stop stop-color="#F6D97E"/>
<stop offset="0.333333" stop-color="#D2AB3D"/>
<stop offset="0.666667" stop-color="#BA8827"/>
<stop offset="1" stop-color="#AC7721"/>
</linearGradient>
</defs>
</svg>
