<svg width="24" height="24" viewBox="0 0 24 24" fill="none" xmlns="http://www.w3.org/2000/svg">
<path d="M9.00195 18H5.60636C4.34793 18 3.71872 18 3.58633 17.9023C3.4376 17.7925 3.40126 17.7277 3.38515 17.5436C3.37082 17.3797 3.75646 16.7486 4.52776 15.4866C5.32411 14.1835 6.00031 12.2862 6.00031 9.6C6.00031 8.11479 6.63245 6.69041 7.75766 5.6402C8.88288 4.59 10.409 4 12.0003 4C13.5916 4 15.1177 4.59 16.2429 5.6402C17.3682 6.69041 18.0003 8.11479 18.0003 9.6C18.0003 12.2862 18.6765 14.1835 19.4729 15.4866C20.2441 16.7486 20.6298 17.3797 20.6155 17.5436C20.5994 17.7277 20.563 17.7925 20.4143 17.9023C20.2819 18 19.6527 18 18.3943 18H15.0003M9.00195 18L9.00031 19C9.00031 20.6569 10.3435 22 12.0003 22C13.6572 22 15.0003 20.6569 15.0003 19V18M9.00195 18H15.0003" stroke="white" stroke-width="1.4" stroke-linecap="round" stroke-linejoin="round"/>
</svg>
