<svg width="24" height="24" viewBox="0 0 24 24" fill="none" xmlns="http://www.w3.org/2000/svg">
<path fill-rule="evenodd" clip-rule="evenodd" d="M20.0449 11.6756C19.6436 11.6756 19.2424 11.8263 18.9401 12.1285L17.1066 13.9632C16.9036 13.6426 16.5875 13.3927 16.1972 13.2881L11.8698 12.1285C11.5249 12.0361 11.1683 12.0187 10.8225 12.0711C10.4766 12.1235 10.1418 12.2457 9.83979 12.4361L7.13837 14.1402L6.91987 13.7606C6.64774 13.2892 6.0228 13.1222 5.55146 13.3943L3.49701 14.5796C3.02568 14.8518 2.85868 15.4767 3.1308 15.9481L6.19233 21.2496C6.46445 21.7209 7.08818 21.8891 7.55951 21.617L9.61396 20.4305C10.0853 20.1584 10.2535 19.5334 9.98139 19.0621L9.94108 18.9913L11.1117 18.2003L15.4184 19.0474C16.0086 19.1634 16.5362 18.9988 16.9565 18.5689C18.3455 17.1481 19.7363 15.7338 21.1471 14.3416C21.1484 14.3408 21.1496 14.3399 21.1509 14.3391C21.7553 13.7347 21.7553 12.7329 21.1509 12.1284C20.8487 11.8262 20.4462 11.6756 20.0449 11.6756ZM20.0449 12.9146C20.1228 12.9146 20.2008 12.9472 20.2658 13.0123C20.3959 13.1423 20.3959 13.3253 20.2658 13.4554C18.8473 14.8552 17.4524 16.2749 16.0629 17.6961C16.0374 17.7222 15.6957 17.8276 15.6601 17.8206L11.0983 16.9246C11.0174 16.9086 10.9341 16.9088 10.8532 16.9251C10.7723 16.9415 10.6955 16.9736 10.6271 17.0198L9.31489 17.9073L7.76459 15.223L10.5063 13.4944C10.8161 13.2991 11.1925 13.241 11.5463 13.3358L15.8737 14.4954C16.0514 14.543 16.1423 14.7011 16.0947 14.8787C16.047 15.0564 15.889 15.1473 15.7114 15.0997L12.9953 14.3721C12.8352 14.3293 12.6646 14.3517 12.5211 14.4346C12.3776 14.5175 12.2728 14.6539 12.2299 14.814C12.187 14.9741 12.2095 15.1447 12.2924 15.2882C12.3753 15.4317 12.5117 15.5365 12.6718 15.5794L15.3879 16.3069C15.9978 16.4704 16.6296 16.239 17.0078 15.7747C17.0682 15.7471 17.1238 15.71 17.1726 15.6649L19.8239 13.0123C19.889 12.9472 19.9669 12.9146 20.0449 12.9146ZM5.96161 14.6004L6.26435 15.1253C6.27503 15.2139 6.30458 15.2993 6.35102 15.3755C6.39111 15.4363 6.44151 15.4896 6.49994 15.533L8.77411 19.4722L7.15058 20.4097L4.33808 15.5379L5.96161 14.6004Z" fill="#8297BD"/>
<path fill-rule="evenodd" clip-rule="evenodd" d="M14.7824 8C14.6166 8 14.4577 8.06584 14.3405 8.18305C14.2233 8.30026 14.1574 8.45924 14.1574 8.625C14.1574 8.79076 14.2233 8.94972 14.3405 9.06693C14.4577 9.18414 14.6166 9.25 14.7824 9.25H16.0324C16.1982 9.25 16.3571 9.18414 16.4744 9.06693C16.5916 8.94972 16.6574 8.79076 16.6574 8.625C16.6574 8.45924 16.5916 8.30026 16.4744 8.18305C16.3571 8.06584 16.1982 8 16.0324 8H14.7824Z" fill="#8297BD"/>
<path fill-rule="evenodd" clip-rule="evenodd" d="M14.7824 5.5C14.6166 5.5 14.4577 5.56584 14.3405 5.68305C14.2233 5.80026 14.1574 5.95924 14.1574 6.125C14.1574 6.29076 14.2233 6.44972 14.3405 6.56693C14.4577 6.68414 14.6166 6.75 14.7824 6.75H16.0324C16.1982 6.75 16.3571 6.68414 16.4744 6.56693C16.5916 6.44972 16.6574 6.29076 16.6574 6.125C16.6574 5.95924 16.5916 5.80026 16.4744 5.68305C16.3571 5.56584 16.1982 5.5 16.0324 5.5H14.7824Z" fill="#8297BD"/>
<path fill-rule="evenodd" clip-rule="evenodd" d="M15.4074 3C12.9986 3 11.0324 4.96617 11.0324 7.375C11.0324 9.78384 12.9986 11.75 15.4074 11.75C17.8162 11.75 19.7824 9.78384 19.7824 7.375C19.7824 4.96617 17.8162 3 15.4074 3ZM15.4074 4.25C17.1407 4.25 18.5324 5.64171 18.5324 7.375C18.5324 9.10829 17.1407 10.5 15.4074 10.5C13.6741 10.5 12.2824 9.10829 12.2824 7.375C12.2824 5.64171 13.6741 4.25 15.4074 4.25Z" fill="#8297BD"/>
</svg>
