<svg width="16" height="16" viewBox="0 0 16 16" fill="none" xmlns="http://www.w3.org/2000/svg">
<g clip-path="url(#clip0_12001_6002)">
<path d="M9.71595 0.740698L9.18842 1.79577C9.17548 1.82157 9.15462 1.84249 9.12882 1.85539L8.07375 2.38292C7.97542 2.43206 7.97542 2.5723 8.07375 2.62144L9.12882 3.14897C9.15462 3.16188 9.17548 3.1828 9.18842 3.2086L9.71595 4.26367C9.76508 4.36194 9.90535 4.36194 9.95448 4.26367L10.482 3.2086C10.4949 3.1828 10.5158 3.16187 10.5416 3.14897L11.5967 2.62144C11.6949 2.5723 11.6949 2.43206 11.5967 2.38292L10.5416 1.85539C10.5158 1.84249 10.4949 1.82157 10.482 1.79577L9.95448 0.740698C9.90535 0.642423 9.76508 0.642424 9.71595 0.740698Z" fill="#8297BD"/>
<path d="M12.828 3.38121L12.309 4.93849C12.2957 4.9783 12.2644 5.00955 12.2246 5.02282L10.6674 5.54191C10.5458 5.58243 10.5458 5.75438 10.6674 5.7949L12.2246 6.31399C12.2644 6.32726 12.2957 6.3585 12.309 6.39832L12.828 7.95559C12.8686 8.07712 13.0405 8.07712 13.081 7.95559L13.6001 6.39832C13.6134 6.3585 13.6446 6.32726 13.6844 6.31399L15.2418 5.7949C15.3633 5.75438 15.3633 5.58243 15.2418 5.54191L13.6844 5.02282C13.6446 5.00955 13.6134 4.9783 13.6001 4.93849L13.081 3.38121C13.0405 3.25965 12.8686 3.25965 12.828 3.38121Z" fill="#8297BD"/>
<path fill-rule="evenodd" clip-rule="evenodd" d="M6.93842 9.10979C8.82328 10.9947 11.7679 11.1579 13.7761 9.58052C13.801 9.56099 13.8257 9.54119 13.8503 9.52112C13.9433 9.44526 14.0341 9.36559 14.1225 9.28206C14.1585 9.24819 14.194 9.21372 14.2291 9.17859C14.5705 8.83712 15.271 9.03886 15.1679 9.51052C15.1323 9.67352 15.0911 9.83479 15.0445 9.99399C15.0169 10.0884 14.9875 10.1821 14.9561 10.2751C14.9476 10.3005 14.9389 10.3259 14.9301 10.3511C13.9319 13.2098 11.1925 15.3339 8.00008 15.3339C3.94999 15.3339 0.666748 12.0506 0.666748 8.00052C0.666748 4.75576 2.86065 1.98871 5.77934 1.02867L5.81507 1.01702C5.87908 0.99633 5.94343 0.97651 6.00811 0.95757C6.17981 0.907296 6.35381 0.863243 6.52985 0.825663C7.02535 0.719883 7.22795 1.46082 6.86962 1.81909C6.83408 1.85464 6.79921 1.89058 6.76495 1.92692C6.69715 1.99884 6.63186 2.07228 6.56908 2.14714C6.55532 2.16356 6.54168 2.18004 6.52816 2.19658C4.88652 4.20595 5.0298 7.20112 6.93842 9.10979ZM5.99562 10.0526C7.81661 11.8736 10.4483 12.4203 12.7249 11.6465C11.6188 13.0686 9.90008 14.0005 8.00008 14.0005C4.68637 14.0005 2.00008 11.3143 2.00008 8.00052C2.00008 6.06141 2.9711 4.31473 4.44047 3.21263C3.61054 5.51413 4.14501 8.20199 5.99562 10.0526Z" fill="#8297BD"/>
</g>
<defs>
<clipPath id="clip0_12001_6002">
<rect width="16" height="16" fill="white"/>
</clipPath>
</defs>
</svg>
