<svg width="56" height="23" viewBox="0 0 56 23" fill="none" xmlns="http://www.w3.org/2000/svg">
<path d="M26.5628 10.9395V17.3327H24.5205V1.54427H29.9371C30.5837 1.53086 31.2265 1.64474 31.8285 1.87933C32.4305 2.11393 32.9798 2.4646 33.4446 2.9111C33.9141 3.3305 34.2878 3.84484 34.5405 4.41956C34.7932 4.99429 34.9191 5.61607 34.9097 6.24313C34.9232 6.87355 34.7992 7.4994 34.5463 8.07778C34.2934 8.65617 33.9176 9.17341 33.4446 9.59406C32.4974 10.491 31.3283 10.9391 29.9371 10.9382H26.5628V10.9395ZM26.5628 3.48807V8.99946H29.9879C30.3633 9.01052 30.737 8.94362 31.085 8.80306C31.4329 8.66249 31.7475 8.45135 32.0086 8.18315C32.2684 7.93238 32.4748 7.63243 32.6158 7.30105C32.7568 6.96967 32.8294 6.61358 32.8294 6.25384C32.8294 5.8941 32.7568 5.53801 32.6158 5.20663C32.4748 4.87525 32.2684 4.57531 32.0086 4.32454C31.7508 4.05068 31.4373 3.83437 31.0889 3.68994C30.7405 3.54551 30.3652 3.47627 29.9879 3.48681H26.5628V3.48807Z" fill="white"/>
<path d="M39.6161 6.17773C41.1256 6.17773 42.3172 6.57833 43.1908 7.37953C44.0644 8.18073 44.5007 9.27923 44.4999 10.675V17.3328H42.5464V15.8337H42.4576C41.6119 17.0683 40.4871 17.6855 39.0833 17.6855C37.8849 17.6855 36.8824 17.3328 36.0756 16.6273C35.6884 16.3036 35.3789 15.8981 35.1695 15.4404C34.9602 14.9827 34.8563 14.4845 34.8654 13.9819C34.8654 12.8641 35.2908 11.9751 36.1416 11.315C36.9923 10.6549 38.1281 10.324 39.5488 10.3223C40.7615 10.3223 41.7603 10.5428 42.5451 10.9837V10.5201C42.5474 10.1775 42.4729 9.83861 42.327 9.52812C42.1811 9.21762 41.9674 8.94327 41.7015 8.72495C41.1614 8.24105 40.4576 7.97702 39.7302 7.98547C38.5894 7.98547 37.6866 8.46334 37.0219 9.41907L35.2232 8.29411C36.2126 6.88319 37.6769 6.17773 39.6161 6.17773ZM36.9737 14.026C36.9723 14.2841 37.0331 14.5388 37.1509 14.7689C37.2688 14.999 37.4403 15.1978 37.6511 15.3487C38.1028 15.7015 38.6634 15.8885 39.238 15.8778C40.0999 15.8764 40.926 15.5357 41.5353 14.9305C42.2119 14.2981 42.5502 13.5561 42.5502 12.7045C41.9134 12.2006 41.0254 11.9486 39.8863 11.9486C39.0566 11.9486 38.3649 12.1473 37.8109 12.5445C37.2515 12.9476 36.9737 13.4377 36.9737 14.026Z" fill="#8297BD"/>
<path d="M55.7133 6.53027L48.8937 22.0945H46.7854L49.3162 16.6486L44.8319 6.53027H47.0518L50.2929 14.2903H50.3373L53.4896 6.53027H55.7133Z" fill="#8297BD"/>
<path d="M18.3096 9.56156C18.3104 8.94346 18.2578 8.32644 18.1524 7.71729H9.53906V11.2106H14.4724C14.3714 11.7685 14.1577 12.3003 13.8442 12.7741C13.5307 13.2478 13.1239 13.6535 12.6482 13.9669V16.2344H15.5925C17.3164 14.656 18.3096 12.3217 18.3096 9.56156Z" fill="#4F6080"/>
<path d="M9.53971 18.4251C12.0045 18.4251 14.0798 17.6214 15.5931 16.2356L12.6489 13.9681C11.8294 14.5199 10.774 14.8348 9.53971 14.8348C7.15741 14.8348 5.13538 13.2399 4.41232 11.0908H1.37927V13.4277C2.13946 14.9299 3.30512 16.1927 4.74612 17.0752C6.18712 17.9576 7.84675 18.425 9.53971 18.4251Z" fill="#8297BD"/>
<path d="M4.41196 11.0907C4.02971 9.96452 4.02971 8.74497 4.41196 7.61882V5.28198H1.37892C0.739421 6.5457 0.406372 7.94043 0.406372 9.35475C0.406372 10.7691 0.739421 12.1638 1.37892 13.4275L4.41196 11.0907Z" fill="#8297BD"/>
<path d="M9.53971 3.87481C10.8422 3.85368 12.1008 4.3424 13.0434 5.23534L15.6502 2.64656C13.9972 1.10472 11.8074 0.258228 9.53971 0.284531C7.84675 0.284607 6.18712 0.751966 4.74612 1.63443C3.30512 2.51689 2.13946 3.77973 1.37927 5.28195L4.41232 7.61878C5.13538 5.46965 7.15741 3.87481 9.53971 3.87481Z" fill="#8297BD"/>
</svg>
