<svg width="51" height="31" viewBox="0 0 51 31" fill="none" xmlns="http://www.w3.org/2000/svg">
<path d="M50.6304 15.1891C50.6304 23.5237 43.8538 30.3782 35.4413 30.3782C27.1068 30.3782 20.2522 23.5237 20.2522 15.1891C20.2522 6.85458 27.0289 0 35.3634 0C43.8538 0 50.6304 6.85458 50.6304 15.1891Z" fill="#8297BD"/>
<path d="M30.3003 15.267C30.3003 14.1765 30.1446 13.086 29.9888 12.0734H20.6416C20.7195 11.5282 20.8753 11.0608 21.0311 10.4377H29.3656C29.2098 9.8924 28.9762 9.34715 28.7425 8.8019H21.6542C21.8879 8.25665 22.1995 7.78929 22.5111 7.16615H27.8857C27.5741 6.6209 27.1846 6.07565 26.7173 5.5304H23.7573C24.2247 4.98515 24.6921 4.51779 25.3152 3.97254C22.6668 1.47997 19.0838 0 15.1112 0C6.85458 0.233679 0 6.85458 0 15.1891C0 23.5237 6.77668 30.3782 15.1891 30.3782C19.1617 30.3782 22.6668 28.8204 25.3931 26.4057C25.9383 25.9383 26.4057 25.3931 26.9509 24.7699H23.8352C23.4458 24.3026 23.0563 23.7573 22.7447 23.2121H28.0415C28.353 22.7447 28.6646 22.1995 28.8983 21.5763H21.81C21.5763 21.109 21.3427 20.5637 21.1869 19.9406H29.5214C29.9888 18.5385 30.3003 16.9807 30.3003 15.267Z" fill="#4F6080"/>
<path d="M20.5641 19.0836L20.7978 17.6815C20.7199 17.6815 20.5641 17.7594 20.4083 17.7594C19.863 17.7594 19.7852 17.4479 19.863 17.2921L20.3304 14.4879H21.1872L21.4209 12.9301H20.642L20.7978 11.9954H19.162C19.162 11.9954 18.2273 17.2921 18.2273 17.9152C18.2273 18.8499 18.7725 19.3173 19.5515 19.3173C20.0188 19.3173 20.4083 19.1615 20.5641 19.0836Z" fill="white"/>
<path d="M21.1086 16.5133C21.1086 18.7722 22.6665 19.3174 23.9128 19.3174C25.0812 19.3174 25.6264 19.0837 25.6264 19.0837L25.938 17.5259C25.938 17.5259 25.0812 17.9154 24.2244 17.9154C22.4328 17.9154 22.7444 16.5912 22.7444 16.5912H26.0159C26.0159 16.5912 26.2496 15.5786 26.2496 15.1112C26.2496 14.0986 25.7043 12.7744 23.9128 12.7744C22.3549 12.6965 21.1086 14.4881 21.1086 16.5133ZM23.9128 14.1765C24.7696 14.1765 24.6138 15.1891 24.6138 15.267H22.8223C22.9002 15.1891 23.056 14.1765 23.9128 14.1765Z" fill="white"/>
<path d="M34.1169 19.0837L34.4285 17.2922C34.4285 17.2922 33.6495 17.6817 33.0264 17.6817C31.9359 17.6817 31.3906 16.8248 31.3906 15.8122C31.3906 13.8649 32.3254 12.8523 33.4938 12.8523C34.2727 12.8523 34.9737 13.3197 34.9737 13.3197L35.2074 11.606C35.2074 11.606 34.2727 11.2166 33.338 11.2166C31.4685 11.2166 29.677 12.8523 29.677 15.8901C29.677 17.9153 30.6117 19.2395 32.559 19.2395C33.2601 19.3174 34.1169 19.0837 34.1169 19.0837Z" fill="white"/>
<path d="M11.7619 12.6963C10.6714 12.6963 9.81462 13.0079 9.81462 13.0079L9.58094 14.4099C9.58094 14.4099 10.282 14.0984 11.3725 14.0984C11.9177 14.0984 12.3851 14.1763 12.3851 14.6436C12.3851 14.9552 12.3072 15.0331 12.3072 15.0331H11.6062C10.2041 15.0331 8.72412 15.5783 8.72412 17.4478C8.72412 18.9277 9.65884 19.2393 10.282 19.2393C11.3725 19.2393 11.9177 18.5383 11.9956 18.5383L11.9177 19.1614H13.2419L13.8651 14.7215C13.8651 12.7742 12.3072 12.6963 11.7619 12.6963ZM12.0735 16.2794C12.0735 16.513 11.9177 17.8372 10.983 17.8372C10.5157 17.8372 10.3599 17.4478 10.3599 17.2141C10.3599 16.8246 10.5936 16.2794 11.8398 16.2794C11.9956 16.2794 12.0735 16.2794 12.0735 16.2794Z" fill="white"/>
<path d="M15.4227 19.2398C15.8121 19.2398 17.8373 19.3177 17.8373 17.1367C17.8373 15.1115 15.89 15.5009 15.89 14.722C15.89 14.3325 16.2016 14.1768 16.7468 14.1768C16.9805 14.1768 17.8373 14.2546 17.8373 14.2546L18.071 12.7747C18.071 12.7747 17.5258 12.6189 16.5132 12.6189C15.3448 12.6189 14.0985 13.0863 14.0985 14.722C14.0985 16.5914 16.1237 16.4356 16.1237 17.1367C16.1237 17.604 15.5785 17.6819 15.189 17.6819C14.488 17.6819 13.709 17.4483 13.709 17.4483L13.4753 18.9282C13.6311 19.084 14.0985 19.2398 15.4227 19.2398Z" fill="white"/>
<path d="M47.5144 11.4504L47.2028 13.6314C47.2028 13.6314 46.5797 12.8525 45.645 12.8525C44.165 12.8525 42.9187 14.644 42.9187 16.7472C42.9187 18.0713 43.5418 19.3955 44.9439 19.3955C45.8786 19.3955 46.5018 18.7724 46.5018 18.7724L46.4239 19.3176H48.0596L49.228 11.6062L47.5144 11.4504ZM46.7355 15.6567C46.7355 16.5135 46.346 17.6819 45.4113 17.6819C44.866 17.6819 44.5545 17.2145 44.5545 16.3577C44.5545 15.0335 45.0997 14.2546 45.8786 14.2546C46.4239 14.3325 46.7355 14.7219 46.7355 15.6567Z" fill="white"/>
<path d="M2.95971 19.1618L3.89443 13.3978L4.05021 19.1618H5.14072L7.24382 13.3978L6.387 19.1618H8.10065L9.42483 11.4504H6.77647L5.14072 16.2019L5.06282 11.4504H2.72604L1.40186 19.1618H2.95971Z" fill="white"/>
<path d="M27.8858 19.1616C28.3531 16.5133 28.431 14.3323 29.5994 14.7217C29.7552 13.7091 29.9889 13.2418 30.1447 12.8523H29.8331C29.1321 12.8523 28.5089 13.787 28.5089 13.787L28.6647 12.9302H27.1068L26.0942 19.1616H27.8858Z" fill="white"/>
<path d="M37.8562 12.6963C36.7657 12.6963 35.9089 13.0079 35.9089 13.0079L35.6752 14.4099C35.6752 14.4099 36.3762 14.0984 37.4667 14.0984C38.012 14.0984 38.4793 14.1763 38.4793 14.6436C38.4793 14.9552 38.4014 15.0331 38.4014 15.0331H37.7004C36.2983 15.0331 34.8184 15.5783 34.8184 17.4478C34.8184 18.9277 35.7531 19.2393 36.3762 19.2393C37.4667 19.2393 38.012 18.5383 38.0899 18.5383L38.012 19.1614H39.4919L40.1151 14.7215C40.1151 12.7742 38.4014 12.6963 37.8562 12.6963ZM38.2456 16.2794C38.2456 16.513 38.0899 17.8372 37.1551 17.8372C36.6878 17.8372 36.532 17.4478 36.532 17.2141C36.532 16.8246 36.7657 16.2794 38.012 16.2794C38.1678 16.2794 38.1678 16.2794 38.2456 16.2794Z" fill="white"/>
<path d="M41.3609 19.1616C41.8282 16.5133 41.9061 14.3323 43.0745 14.7217C43.2303 13.7091 43.464 13.2418 43.6198 12.8523H43.3082C42.6072 12.8523 41.984 13.787 41.984 13.787L42.1398 12.9302H40.5819L39.5693 19.1616H41.3609Z" fill="white"/>
</svg>
