<svg width="69" height="21" viewBox="0 0 69 21" fill="none" xmlns="http://www.w3.org/2000/svg">
<path fill-rule="evenodd" clip-rule="evenodd" d="M3.08918 7.80032C2.94411 8.16299 2.87157 8.54985 2.77486 8.9367C2.53308 10.0973 2.33965 11.3304 2.07369 12.4909C1.54176 12.4909 0.98566 12.4909 0.453735 12.4909C1.0582 8.57402 2.1704 4.75384 2.65397 0.546794C3.18589 0.546794 3.71782 0.546794 4.22556 0.546794C4.15303 0.933648 4.05632 1.29633 4.00796 1.68318C4.00796 1.70736 3.9596 1.73153 3.9596 1.77989C4.68496 0.836934 5.79716 0.184118 7.56218 0.377546C9.30303 0.546794 10.246 1.92496 10.3185 3.54492C10.4878 6.63975 8.84364 9.44444 5.45866 9.20266C4.34646 9.13013 3.50021 8.7191 3.08918 7.80032ZM5.36195 1.92496C3.93543 2.65032 2.55725 5.98693 4.17721 7.41346C5.24106 8.35642 6.90937 7.84867 7.61054 6.97825C8.40843 5.98693 9.13378 3.13388 7.92486 2.11839C7.51383 1.77989 6.86101 1.659 6.25655 1.73154C5.82134 1.75571 5.60374 1.80407 5.36195 1.92496Z" fill="#8297BD"/>
<path fill-rule="evenodd" clip-rule="evenodd" d="M17.79 9.03364C17.2822 9.03364 16.7745 9.03364 16.2425 9.03364C16.3151 8.55008 16.4118 8.09069 16.5085 7.6313C16.0491 8.30829 15.2512 9.082 14.0907 9.20289C12.4224 9.37214 10.8991 8.5259 10.754 7.14773C10.7057 6.68834 10.7299 5.93881 11.1167 5.35853C12.0839 3.83529 14.5984 3.73858 17.0888 3.81111C17.8383 1.05477 13.8247 1.4658 12.4465 2.36041C12.5191 1.82848 12.64 1.32073 12.7125 0.78881C15.2029 0.0151009 18.5637 0.208529 18.7571 2.89233C18.8296 3.95618 18.5153 4.99585 18.3219 6.01134C18.1285 7.00266 17.935 7.96979 17.79 9.03364ZM12.5191 6.83341C12.5674 7.53459 13.3411 7.92144 13.9698 7.92144C15.6864 7.94562 16.5085 6.44655 16.7745 4.97167C14.8402 4.87496 12.3982 5.11675 12.5191 6.83341Z" fill="#8297BD"/>
<path fill-rule="evenodd" clip-rule="evenodd" d="M21.5129 0.571045C21.8756 2.81964 22.3108 4.99569 22.6493 7.29264C23.9307 5.09241 25.1155 2.79546 26.3728 0.571045C26.953 0.571045 27.5333 0.571045 28.1378 0.571045C26.5904 3.37574 24.777 6.4464 23.0361 9.39616C22.5042 10.3149 21.9723 11.548 21.1986 12.1525C20.5216 12.6844 19.216 12.8053 18.1279 12.5877C18.1521 12.1041 18.3214 11.7415 18.3455 11.2821C18.5631 11.2579 18.8291 11.403 19.0951 11.403C20.2798 11.403 20.9326 10.3149 21.3678 9.4687C20.8601 6.54311 20.304 3.6417 19.7962 0.691937C19.7479 0.64358 19.7721 0.619402 19.7962 0.571045C20.3765 0.571045 20.9568 0.571045 21.5129 0.571045Z" fill="#8297BD"/>
<path fill-rule="evenodd" clip-rule="evenodd" d="M28.839 13.99C28.4763 16.0452 28.017 17.9795 27.6543 20.0346C26.5179 20.0346 25.3815 20.0346 24.2209 20.0346C24.7529 17.5201 25.2123 15.0297 25.72 12.5393C26.2278 10.0731 26.8322 7.60695 27.1224 4.99568C28.0411 4.92315 29.2742 4.92315 30.193 4.99568C30.1688 5.57596 30.0238 6.05953 29.9754 6.61563C30.87 5.72103 31.8371 4.53629 33.8923 4.72972C35.8508 4.92314 36.9388 6.56728 37.0839 8.64662C37.3498 12.225 35.609 15.7309 32.4658 15.9727C30.5073 16.1177 29.5886 15.2231 28.839 13.99ZM30.2172 8.64662C29.4193 9.78301 29.1533 11.9591 30.1688 12.8053C30.7975 13.3372 31.958 13.0713 32.49 12.6361C33.167 12.08 33.6505 11.0161 33.6263 9.68629C33.6022 8.47737 33.0702 7.46188 31.7888 7.63113C31.0393 7.72784 30.5799 8.1147 30.2172 8.64662Z" fill="white"/>
<path fill-rule="evenodd" clip-rule="evenodd" d="M46.4893 15.7551C45.5947 15.731 44.5792 15.8035 43.7571 15.7068C43.8538 15.2232 43.8538 14.6188 43.9264 14.1352C43.6604 14.4011 43.467 14.788 43.1285 15.1023C42.0163 16.1178 39.5259 16.3354 38.2928 15.3199C36.963 14.2077 37.1806 11.5481 38.2928 10.4117C39.5743 9.0819 41.9921 8.7434 44.4825 9.00937C44.7243 7.99387 44.0473 7.36523 43.201 7.24434C41.9679 7.07509 40.3238 7.60702 39.5985 8.04223C39.7435 7.17181 39.7919 6.22885 39.9611 5.35843C40.8315 5.04411 41.6536 4.80232 42.6933 4.75397C45.5705 4.56054 47.5531 5.52767 47.7466 7.99387C47.8433 9.2995 47.4564 10.6535 47.1663 11.935C46.9003 13.1922 46.7069 14.4737 46.4893 15.7551ZM43.0318 10.9195C41.9921 10.9436 40.8557 11.2821 40.6139 12.0558C40.4205 12.7328 40.9041 13.3615 41.4118 13.4582C43.0076 13.7967 44.0956 12.2251 44.2165 10.9678C43.8538 10.8953 43.3219 10.9195 43.0318 10.9195Z" fill="white"/>
<path fill-rule="evenodd" clip-rule="evenodd" d="M57.0311 5.35809C56.8619 6.22851 56.5475 6.95386 56.3783 7.82429C55.5321 7.53414 54.5166 7.09894 53.1867 7.24401C52.6548 7.31654 52.1229 7.5825 52.1229 8.11443C52.1471 8.76724 53.1384 9.00903 53.7429 9.25081C54.5891 9.61349 55.6046 10.0971 56.0156 10.8224C56.7168 12.0797 56.0156 13.9172 55.2661 14.691C54.6375 15.3438 53.4527 15.8757 52.2438 15.9724C50.6722 16.0933 49.0281 15.8032 47.6741 15.4405C47.8675 14.5459 48.0851 13.7238 48.3269 12.9017C49.2215 13.2644 50.237 13.6029 51.6151 13.482C52.268 13.4095 52.9933 13.1919 52.8966 12.4182C52.8241 11.7895 51.8811 11.5719 51.1799 11.2818C49.8743 10.7499 48.9072 10.0729 48.9072 8.30785C48.9072 4.68109 53.9363 4.07663 57.0311 5.35809Z" fill="white"/>
<path fill-rule="evenodd" clip-rule="evenodd" d="M65.59 5.35816C65.3965 6.2044 65.1306 7.00229 64.8888 7.82435C64.0909 7.51003 63.0512 7.099 61.7214 7.24407C61.1895 7.29243 60.6576 7.55839 60.6576 8.11449C60.6817 8.79149 61.8907 9.15416 62.4468 9.39595C63.5832 9.87952 64.6712 10.4114 64.8163 11.7171C64.9613 12.9985 64.4294 14.0382 63.6799 14.7394C62.9787 15.4164 61.939 15.8758 60.7785 15.9725C59.1827 16.0934 57.6353 15.8032 56.2087 15.4405C56.3538 14.5218 56.644 13.7722 56.8132 12.9018C57.466 13.0952 58.0947 13.4096 58.8684 13.4821C59.9564 13.5788 61.4313 13.5063 61.4071 12.5633C61.3829 11.5478 59.2794 11.3302 58.4573 10.6774C57.5627 9.97623 57.0066 8.25956 57.7078 6.85722C58.8684 4.68116 62.8578 4.19759 65.59 5.35816Z" fill="white"/>
<path d="M66.8723 6.47028H66.4371L66.4613 6.30103H67.5252L67.501 6.47028H67.0658L66.824 7.80009H66.6306L66.8723 6.47028Z" fill="#8297BD"/>
<path d="M68.6617 7.80009L68.7584 7.0022C68.7826 6.85713 68.8068 6.63952 68.831 6.49445C68.7584 6.63952 68.6859 6.83295 68.5892 6.97802L68.154 7.80009H68.0089L67.888 7.0022C67.8638 6.83295 67.8396 6.6637 67.8396 6.49445C67.8155 6.63952 67.7671 6.85713 67.7188 7.0022L67.5253 7.80009H67.3561L67.7429 6.30103H67.9847L68.1056 7.14727C68.1298 7.26816 68.1298 7.41323 68.1298 7.53413C68.1781 7.41323 68.2507 7.29234 68.299 7.17145L68.7584 6.30103H69.0002L68.8068 7.80009H68.6617Z" fill="#8297BD"/>
</svg>
