<svg width="61" height="16" viewBox="0 0 61 16" fill="none" xmlns="http://www.w3.org/2000/svg">
<path d="M23.4448 7.13745C23.289 8.30584 22.3543 8.30584 21.4975 8.30584H21.0301L21.4196 6.04694C21.4196 5.89116 21.5754 5.81326 21.7312 5.81326H21.9649C22.588 5.81326 23.1333 5.81327 23.4448 6.12484C23.4448 6.43641 23.4448 6.74798 23.4448 7.13745ZM23.0554 4.02173H19.706C19.4723 4.02173 19.3165 4.17751 19.2386 4.41119L17.9144 12.9794C17.9144 13.1352 17.9923 13.291 18.226 13.291H19.7839C20.0175 13.291 20.1733 13.1352 20.2512 12.9015L20.6407 10.5647C20.6407 10.3311 20.8744 10.1753 21.108 10.1753H22.1985C24.3795 10.1753 25.6258 9.08477 26.0153 6.98166C26.1711 6.04694 26.0153 5.34591 25.6258 4.80066C25.0027 4.3333 24.1459 4.02173 23.0554 4.02173Z" fill="white"/>
<path d="M30.7671 10.2532C30.6113 11.1879 29.9102 11.8111 28.9755 11.8111C28.5082 11.8111 28.1187 11.6553 27.885 11.3437C27.6514 11.0321 27.5735 10.6427 27.6513 10.2532C27.8071 9.31848 28.5082 8.69533 29.4429 8.69533C29.9103 8.69533 30.2997 8.85112 30.5334 9.16269C30.6892 9.39637 30.845 9.78584 30.7671 10.2532ZM32.9481 7.13748H31.3902C31.2344 7.13748 31.1565 7.21537 31.0786 7.37115L31.0008 7.83851L30.9229 7.68273C30.6113 7.21537 29.8324 6.98169 29.0534 6.98169C27.2619 6.98169 25.7819 8.30587 25.4704 10.1753C25.3146 11.11 25.5482 11.9668 26.0935 12.59C26.5608 13.1352 27.2619 13.3689 28.1187 13.3689C29.5208 13.3689 30.2997 12.4342 30.2997 12.4342L30.2218 12.9016C30.2218 13.0573 30.2997 13.2131 30.5334 13.2131H31.9355C32.1691 13.2131 32.3249 13.0573 32.4028 12.8237L33.2596 7.37115C33.2596 7.29326 33.1818 7.13748 32.9481 7.13748Z" fill="white"/>
<path d="M41.4384 7.13745H39.8026C39.6468 7.13745 39.491 7.21534 39.4131 7.37113L37.2322 10.6426L36.2974 7.52692C36.2195 7.29324 36.0637 7.21534 35.8301 7.21534H34.2722C34.1164 7.21534 33.9606 7.37113 34.0385 7.60481L35.8301 12.7457L34.1943 15.0825C34.0385 15.2383 34.1943 15.5499 34.428 15.5499H36.0638C36.2195 15.5499 36.3753 15.472 36.4532 15.3162L41.7499 7.60481C41.8278 7.37113 41.672 7.13745 41.4384 7.13745Z" fill="white"/>
<path d="M47.1245 7.13745C46.9687 8.30584 46.034 8.30584 45.1772 8.30584H44.7098L45.0993 6.04694C45.0993 5.89116 45.2551 5.81326 45.4109 5.81326H45.6446C46.2677 5.81326 46.8129 5.81327 47.1245 6.12484C47.2024 6.43641 47.2024 6.74798 47.1245 7.13745ZM46.7351 4.02173H43.3857C43.152 4.02173 42.9962 4.17751 42.9183 4.41119L41.5941 12.9794C41.5941 13.1352 41.672 13.291 41.9057 13.291H43.6193C43.7751 13.291 43.9309 13.2131 43.9309 12.9794L44.3204 10.5647C44.3204 10.3311 44.5541 10.1753 44.7877 10.1753H45.8782C48.0592 10.1753 49.3055 9.08477 49.695 6.98166C49.8508 6.04694 49.695 5.34591 49.3055 4.80066C48.7603 4.3333 47.9034 4.02173 46.7351 4.02173Z" fill="white"/>
<path d="M54.5244 10.2532C54.3686 11.1879 53.6676 11.8111 52.7329 11.8111C52.2655 11.8111 51.876 11.6553 51.6424 11.3437C51.4087 11.0321 51.3308 10.6427 51.4087 10.2532C51.5645 9.31848 52.2655 8.69533 53.2002 8.69533C53.6676 8.69533 54.057 8.85112 54.2907 9.16269C54.4465 9.39637 54.6023 9.78584 54.5244 10.2532ZM56.7054 7.13748H55.1475C54.9918 7.13748 54.9138 7.21537 54.836 7.37115L54.7581 7.83851L54.6802 7.68273C54.3686 7.21537 53.5897 6.98169 52.8108 6.98169C51.0192 6.98169 49.5392 8.30587 49.2277 10.1753C49.0719 11.11 49.3056 11.9668 49.8508 12.59C50.3182 13.1352 51.0192 13.3689 51.876 13.3689C53.2781 13.3689 54.057 12.4342 54.057 12.4342L53.9791 12.9016C53.9791 13.0573 54.057 13.2131 54.2907 13.2131H55.6928C55.9265 13.2131 56.0822 13.0573 56.1601 12.8237L57.017 7.37115C57.017 7.29326 56.8612 7.13748 56.7054 7.13748Z" fill="white"/>
<path d="M58.5748 4.25541L57.1727 12.9794C57.1727 13.1352 57.2506 13.291 57.4843 13.291H58.8864C59.1201 13.291 59.2759 13.1352 59.3537 12.9015L60.6779 4.3333C60.6779 4.17752 60.6 4.02173 60.3663 4.02173H58.8085C58.7306 4.02173 58.6527 4.17751 58.5748 4.25541Z" fill="white"/>
<path d="M4.04931 14.9269L4.28297 13.2912H3.73773H1.01147L2.88091 1.37355C2.88091 1.37355 2.8809 1.29565 2.9588 1.29565H3.0367H7.63237C9.11234 1.29565 10.2028 1.60723 10.7481 2.23037C10.9818 2.54194 11.1376 2.85351 11.2155 3.16509C11.2933 3.55455 11.2933 3.94401 11.2155 4.48926V4.80084L11.4491 4.95662C11.6828 5.03451 11.8386 5.1903 11.9944 5.34609C12.2281 5.57977 12.3838 5.89134 12.3838 6.2808C12.4617 6.67027 12.4617 7.13762 12.3059 7.68287C12.1502 8.30602 11.9944 8.77337 11.7607 9.24073C11.527 9.63019 11.2154 9.94177 10.9039 10.2533C10.5923 10.487 10.1249 10.6428 9.73548 10.7986C9.26812 10.8765 8.80077 10.9544 8.25552 10.9544H7.86605C7.63237 10.9544 7.3987 11.0323 7.16502 11.1881C7.00924 11.3438 6.85345 11.5775 6.77556 11.8112V11.967L6.3082 14.849V14.9269V15.0048C6.3082 15.0048 6.30819 15.0048 6.2303 15.0048H4.04931V14.9269Z" fill="#8297BD"/>
<path d="M11.7613 4.48926C11.7613 4.56715 11.7613 4.64505 11.6834 4.72294C11.0602 7.83866 9.03503 8.85126 6.38667 8.85126H5.06248C4.75091 8.85126 4.43935 9.08494 4.43935 9.39651L3.7383 13.7585L3.58252 15.0048C3.58252 15.2385 3.7383 15.3943 3.89409 15.3943H6.30877C6.62034 15.3943 6.85402 15.1606 6.85402 14.9269V14.7711L7.32138 11.967V11.8112C7.39927 11.4996 7.63295 11.3438 7.86663 11.3438H8.25609C10.5929 11.3438 12.3844 10.4091 12.8518 7.68287C13.0855 6.51448 12.9297 5.57976 12.3844 4.95662C12.2286 4.80083 11.995 4.64504 11.7613 4.48926Z" fill="white"/>
<path d="M11.1379 4.25541C11.06 4.25541 10.9821 4.17751 10.8263 4.17751C10.7484 4.17751 10.5926 4.09962 10.5147 4.09962C10.1253 4.02173 9.7358 4.02173 9.34633 4.02173H5.76326C5.68537 4.02173 5.60748 4.02173 5.52958 4.09962C5.3738 4.17751 5.21802 4.3333 5.21802 4.48908L4.43909 9.31845V9.47423C4.51698 9.16266 4.75065 8.92898 5.06222 8.92898H6.38641C9.03477 8.92898 11.06 7.83848 11.6831 4.80066C11.6831 4.72276 11.6831 4.64487 11.761 4.56698C11.6052 4.48909 11.4494 4.41119 11.2937 4.3333C11.2158 4.25541 11.1379 4.25541 11.1379 4.25541Z" fill="#4F6080"/>
<path d="M5.21801 4.48909C5.21801 4.3333 5.37379 4.17752 5.52958 4.09963C5.60747 4.09963 5.68536 4.02173 5.76326 4.02173H9.34632C9.73579 4.02173 10.2031 4.02173 10.5147 4.09963C10.5926 4.09963 10.7484 4.09963 10.8263 4.17752C10.9042 4.17752 10.9821 4.25541 11.1379 4.25541C11.2158 4.25541 11.2158 4.25541 11.2936 4.33331C11.4494 4.4112 11.6052 4.48909 11.761 4.56698C11.9168 3.39859 11.761 2.61966 11.1379 1.91862C10.4368 1.13969 9.19054 0.828125 7.63268 0.828125H3.037C2.72543 0.828125 2.41386 1.0618 2.41386 1.37337L0.544434 13.3689C0.544434 13.6026 0.700219 13.8362 0.933898 13.8362H3.73804L4.43908 9.31845L5.21801 4.48909Z" fill="#8297BD"/>
</svg>
