<svg width="103" height="46" viewBox="0 0 103 46" fill="none" xmlns="http://www.w3.org/2000/svg">
<rect x="18.3701" y="19.2283" width="32.5242" height="8.20432" fill="#D9D9D9"/>
<path fill-rule="evenodd" clip-rule="evenodd" d="M60.1727 15.2738C59.5573 15.375 58.74 15.6959 58.0537 16.1056C57.3699 16.514 56.2679 17.6733 55.9409 18.3282C55.7972 18.616 55.0447 20.8351 54.2686 23.2596L52.8575 27.6678L52.8533 28.5902C52.8497 29.376 52.8801 29.5702 53.0591 29.902C53.3888 30.5128 53.7952 30.9132 54.3689 31.1922L54.8981 31.4495L57.6458 31.4799C59.5381 31.5008 60.553 31.476 60.9058 31.4C62.478 31.0615 63.9864 29.8863 64.8109 28.3573C65.0271 27.9564 66.96 22.04 66.96 21.7791C66.96 21.7445 65.6117 21.727 63.9638 21.7404L60.9675 21.7648L60.473 23.2866C60.2012 24.1237 59.9776 24.8605 59.9765 24.9238C59.9749 25.0081 60.2126 25.0391 60.861 25.0391H61.7476L61.6853 25.285C61.651 25.4202 61.4913 25.9495 61.3303 26.461L61.0378 27.3911L59.1855 27.4162C58.1668 27.43 57.3002 27.4086 57.2599 27.3687C57.2196 27.3288 57.5997 25.9893 58.1045 24.3921C58.6093 22.7948 59.1759 21.0008 59.3635 20.4053L59.7047 19.3224L63.7243 19.2985L67.744 19.2744L67.8599 18.9516C68.1702 18.0872 69.0091 15.4261 69.0091 15.3061C69.0091 15.1879 68.4602 15.1713 64.841 15.1807C62.5486 15.1866 60.4478 15.2285 60.1727 15.2738ZM73.7039 15.3031C71.9824 15.6854 70.3467 16.873 69.5802 18.2972C69.4175 18.5993 68.6909 20.7481 67.9203 23.2051L66.5497 27.5756L66.5453 28.498C66.5415 29.2897 66.5724 29.4838 66.7637 29.8684C67.0599 30.4644 67.5291 30.9136 68.1628 31.2078C68.6787 31.4475 68.7044 31.4498 71.2489 31.4789C74.1518 31.5122 74.6083 31.4525 75.7352 30.8926C77.0856 30.2214 78.1806 29.1521 78.7541 27.9445C78.9228 27.5894 79.6515 25.3689 80.3735 23.0099C81.8102 18.3162 81.8699 18.008 81.5344 17.0078C81.3146 16.3527 80.683 15.7288 79.9478 15.4407C79.4206 15.2341 79.2735 15.2227 76.833 15.2004C74.9322 15.1831 74.1252 15.2096 73.7039 15.3031ZM19.1919 18.029C18.2057 18.3803 17.4261 19.0165 16.9071 19.8935C16.7731 20.1198 16.2997 21.4636 15.855 22.8796C15.119 25.2229 15.0467 25.5205 15.049 26.1921C15.0507 26.6807 15.1049 27.0488 15.2094 27.282C15.446 27.8099 16.0484 28.4039 16.5957 28.649L17.0826 28.8669L34.0111 28.891C50.1186 28.9139 50.9397 28.9071 50.9425 28.7526C50.9554 28.02 51.2993 26.7126 52.4715 22.9393C53.2164 20.5414 53.8889 18.43 53.9661 18.247C54.0433 18.0641 54.1064 17.8988 54.1064 17.8796C54.1064 17.8604 46.3629 17.8462 36.8985 17.8481C20.1515 17.8513 19.6772 17.8562 19.1919 18.029ZM83.3761 18.4549C83.3632 18.7902 83.2908 19.2986 83.2154 19.5846C82.9599 20.5524 80.5814 28.2188 80.4286 28.5671L80.2768 28.913H81.5158C82.9044 28.913 83.5325 28.7927 84.4495 28.3508C85.1313 28.0223 86.0556 27.2098 86.3896 26.6454C86.7503 26.0359 88.1963 21.2494 88.1963 20.665C88.1963 19.8181 87.9644 19.2606 87.3655 18.6675C86.6583 17.9671 86.2491 17.8446 84.6167 17.8449L83.3995 17.8451L83.3761 18.4549ZM73.3563 19.3897C73.2762 19.5234 70.872 27.1956 70.872 27.3175C70.872 27.4174 71.2463 27.4361 72.8415 27.416L74.8111 27.3911L76.0523 23.425C76.7349 21.2436 77.2947 19.4277 77.2961 19.3897C77.2975 19.3517 76.4211 19.3205 75.3483 19.3205C74.2754 19.3205 73.3791 19.3517 73.3563 19.3897ZM20.8267 20.1225C20.7929 20.1777 19.2027 25.2431 18.8416 26.4457C18.798 26.5911 18.8768 26.6071 19.632 26.6071H20.471L20.7095 25.8328L20.948 25.0586L22.0424 25.0242C23.048 24.9925 23.1777 24.9675 23.6417 24.7146C24.3622 24.3221 24.6768 23.8407 25.0941 22.4924C25.5017 21.1756 25.4939 20.8283 25.0474 20.3858L24.7636 20.1045L22.8179 20.0764C21.7478 20.0609 20.8517 20.0816 20.8267 20.1225ZM25.6749 23.271C25.1242 25.037 24.6736 26.5309 24.6736 26.5906C24.6736 26.6714 25.3075 26.6994 27.1369 26.6994H29.6004L30.0293 25.3389C30.2652 24.5906 30.498 23.858 30.5465 23.711C30.595 23.5639 30.6347 23.4291 30.6347 23.4113C30.6347 23.3935 30.261 23.3789 29.8042 23.3789H28.9737L28.7023 24.1859L28.4309 24.993L27.67 25.0198C27.102 25.0398 26.909 25.0168 26.909 24.9293C26.909 24.8647 27.2234 23.7854 27.6076 22.5308C27.9918 21.2761 28.3062 20.2066 28.3062 20.154C28.3062 20.0952 27.9921 20.0587 27.4912 20.0592L26.6762 20.06L25.6749 23.271ZM33.429 20.2501C32.9241 20.4761 32.4471 20.9111 32.2232 21.3497C32.1326 21.5272 31.7354 22.7239 31.3407 24.0088C30.9461 25.2939 30.5997 26.4058 30.571 26.4798C30.5271 26.5928 30.6559 26.6101 31.3766 26.5877L32.2343 26.561L32.5159 25.6848C32.6708 25.2028 32.8399 24.7567 32.8918 24.6932C32.9527 24.6186 33.2452 24.5779 33.7197 24.5779C34.5906 24.5779 34.5699 24.525 34.1814 25.7573L33.9114 26.6139L34.76 26.5874L35.6088 26.561L36.3761 24.1168C37.18 21.5568 37.2898 20.9361 37.0092 20.5396C36.7241 20.1363 36.4106 20.0582 35.0869 20.0604C34.0434 20.0621 33.7821 20.0921 33.429 20.2501ZM38.5044 20.1737C38.4816 20.2371 38.227 21.0526 37.9386 21.9859C37.3788 23.7971 37.3494 24.1137 37.6977 24.5757C37.7942 24.7037 38.0363 24.8677 38.2357 24.9401C38.4351 25.0126 38.6118 25.0813 38.6283 25.0928C38.6448 25.1044 38.5545 25.4394 38.4278 25.8374C38.301 26.2354 38.2166 26.5921 38.2403 26.6302C38.2639 26.6683 38.6364 26.6994 39.068 26.6994H39.8528L40.102 25.8749L40.3512 25.0505L40.8003 24.9438C41.322 24.8198 41.9917 24.346 42.2584 23.9121C42.4314 23.6307 43.4883 20.4079 43.4883 20.1618C43.4883 20.0823 43.2614 20.0587 42.6804 20.0779L41.8724 20.1045L41.5146 21.2575C41.3178 21.8916 41.0915 22.6284 41.0119 22.8946L40.8671 23.3789H40.0292C39.2741 23.3789 39.1962 23.3629 39.2415 23.2175C39.7603 21.5525 40.1352 20.2791 40.1352 20.1815C40.1352 20.0115 38.5654 20.004 38.5044 20.1737ZM44.4828 20.1276C44.4158 20.2406 43.954 21.7826 43.954 21.8934C43.954 21.961 44.2662 21.9953 44.881 21.9953H45.8081L46.0919 21.118C46.248 20.6354 46.3757 20.1996 46.3757 20.1495C46.3757 20.0432 44.5454 20.0219 44.4828 20.1276ZM21.7866 22.4335C21.6694 22.8266 21.554 23.2002 21.5302 23.2636C21.4976 23.3504 21.6918 23.3789 22.3168 23.3789H23.1467L23.3434 22.7563C23.7134 21.5851 23.7795 21.7186 22.8306 21.7186H21.9996L21.7866 22.4335ZM33.5407 22.4085C33.2383 23.4266 33.2097 23.3789 34.1218 23.3789H34.9079L35.1464 22.6046C35.2776 22.1787 35.3849 21.8052 35.3849 21.7744C35.3849 21.7437 35.0161 21.7186 34.5653 21.7186H33.7457L33.5407 22.4085ZM47.1674 21.8908C46.6774 22.112 46.2197 22.5013 46.0285 22.8595C45.8266 23.2378 44.7971 26.5403 44.8532 26.6301C44.8769 26.6682 45.247 26.6994 45.6753 26.6994H46.4544L46.5491 26.3996C46.6012 26.2347 46.8372 25.4877 47.0736 24.7394L47.5031 23.3789H48.29C48.7227 23.3789 49.0763 23.4101 49.0757 23.4481C49.0752 23.4861 48.8676 24.1989 48.6144 25.0318C48.3613 25.8649 48.1755 26.5808 48.2018 26.6229C48.2281 26.665 48.6015 26.6994 49.0317 26.6994H49.8139L50.1045 25.7539C51.0749 22.5971 51.0317 22.815 50.7873 22.305C50.5431 21.7954 50.2845 21.7184 48.8253 21.7207C47.7828 21.7223 47.4695 21.7545 47.1674 21.8908Z" fill="black" fill-opacity="0.573"/>
<path fill-rule="evenodd" clip-rule="evenodd" d="M19.1919 18.0291C18.2057 18.3804 17.4261 19.0166 16.9071 19.8935C16.7731 20.1199 16.2997 21.4637 15.855 22.8797C15.119 25.223 15.0467 25.5206 15.049 26.1921C15.0507 26.6808 15.1049 27.0489 15.2094 27.2821C15.446 27.8099 16.0484 28.4039 16.5957 28.649L17.0826 28.867L34.0111 28.891C50.1186 28.9139 50.9397 28.9072 50.9425 28.7527C50.9554 28.02 51.2993 26.7126 52.4715 22.9393C53.2164 20.5415 53.8889 18.43 53.9661 18.247C54.0433 18.0641 54.1064 17.8988 54.1064 17.8797C54.1064 17.8605 46.3629 17.8463 36.8985 17.8481C20.1515 17.8513 19.6772 17.8562 19.1919 18.0291ZM83.3761 18.4549C83.3632 18.7903 83.2908 19.2986 83.2154 19.5846C82.9599 20.5525 80.5814 28.2188 80.4286 28.5672L80.2768 28.9131H81.5158C82.9044 28.9131 83.5325 28.7927 84.4495 28.3508C85.1313 28.0224 86.0556 27.2099 86.3896 26.6455C86.7503 26.036 88.1963 21.2495 88.1963 20.6651C88.1963 19.8182 87.9644 19.2606 87.3655 18.6675C86.6583 17.9672 86.2491 17.8447 84.6167 17.845L83.3995 17.8452L83.3761 18.4549ZM20.8267 20.1225C20.7929 20.1777 19.2027 25.2431 18.8416 26.4458C18.798 26.5911 18.8768 26.6072 19.632 26.6072H20.471L20.7095 25.8329L20.948 25.0586L22.0424 25.0242C23.048 24.9926 23.1777 24.9675 23.6417 24.7147C24.3622 24.3221 24.6768 23.8408 25.0941 22.4925C25.5017 21.1756 25.4939 20.8283 25.0474 20.3859L24.7636 20.1046L22.8179 20.0764C21.7478 20.0609 20.8517 20.0817 20.8267 20.1225ZM25.6749 23.271C25.1242 25.0371 24.6736 26.5309 24.6736 26.5907C24.6736 26.6715 25.3075 26.6994 27.1369 26.6994H29.6004L30.0293 25.3389C30.2652 24.5906 30.498 23.8581 30.5465 23.7111C30.595 23.564 30.6347 23.4291 30.6347 23.4113C30.6347 23.3935 30.261 23.3789 29.8042 23.3789H28.9737L28.7023 24.186L28.4309 24.9931L27.67 25.0198C27.102 25.0398 26.909 25.0169 26.909 24.9293C26.909 24.8648 27.2234 23.7854 27.6076 22.5308C27.9918 21.2761 28.3062 20.2067 28.3062 20.1541C28.3062 20.0952 27.9921 20.0587 27.4912 20.0593L26.6762 20.06L25.6749 23.271ZM33.429 20.2502C32.9241 20.4762 32.4471 20.9112 32.2232 21.3497C32.1326 21.5273 31.7354 22.724 31.3407 24.0089C30.9461 25.2939 30.5997 26.4058 30.571 26.4799C30.5271 26.5929 30.6559 26.6101 31.3766 26.5877L32.2343 26.5611L32.5159 25.6848C32.6708 25.2029 32.8399 24.7567 32.8918 24.6933C32.9527 24.6187 33.2452 24.578 33.7197 24.578C34.5906 24.578 34.5699 24.5251 34.1814 25.7573L33.9114 26.6139L34.76 26.5874L35.6088 26.5611L36.3761 24.1168C37.18 21.5568 37.2898 20.9362 37.0092 20.5396C36.7241 20.1364 36.4106 20.0583 35.0869 20.0605C34.0434 20.0621 33.7821 20.0921 33.429 20.2502ZM38.5044 20.1737C38.4816 20.2372 38.227 21.0527 37.9386 21.986C37.3788 23.7971 37.3494 24.1138 37.6977 24.5758C37.7942 24.7037 38.0363 24.8677 38.2357 24.9401C38.4351 25.0126 38.6118 25.0813 38.6283 25.0929C38.6448 25.1045 38.5545 25.4395 38.4278 25.8375C38.301 26.2355 38.2166 26.5921 38.2403 26.6302C38.2639 26.6683 38.6364 26.6994 39.068 26.6994H39.8528L40.102 25.8749L40.3512 25.0505L40.8003 24.9438C41.322 24.8198 41.9917 24.346 42.2584 23.9121C42.4314 23.6307 43.4883 20.4079 43.4883 20.1618C43.4883 20.0823 43.2614 20.0587 42.6804 20.0779L41.8724 20.1046L41.5146 21.2575C41.3178 21.8916 41.0915 22.6284 41.0119 22.8947L40.8671 23.3789H40.0292C39.2741 23.3789 39.1962 23.363 39.2415 23.2175C39.7603 21.5526 40.1352 20.2792 40.1352 20.1816C40.1352 20.0116 38.5654 20.004 38.5044 20.1737ZM44.4828 20.1276C44.4158 20.2406 43.954 21.7827 43.954 21.8935C43.954 21.9611 44.2662 21.9954 44.881 21.9954H45.8081L46.0919 21.118C46.248 20.6355 46.3757 20.1997 46.3757 20.1496C46.3757 20.0432 44.5454 20.0219 44.4828 20.1276ZM21.7866 22.4335C21.6694 22.8266 21.554 23.2003 21.5302 23.2636C21.4976 23.3504 21.6918 23.3789 22.3168 23.3789H23.1467L23.3434 22.7563C23.7134 21.5851 23.7795 21.7187 22.8306 21.7187H21.9996L21.7866 22.4335ZM33.5407 22.4085C33.2383 23.4266 33.2097 23.3789 34.1218 23.3789H34.9079L35.1464 22.6046C35.2776 22.1788 35.3849 21.8052 35.3849 21.7745C35.3849 21.7438 35.0161 21.7187 34.5653 21.7187H33.7457L33.5407 22.4085ZM47.1674 21.8909C46.6774 22.1121 46.2197 22.5014 46.0285 22.8596C45.8266 23.2378 44.7971 26.5404 44.8532 26.6301C44.8769 26.6682 45.247 26.6994 45.6753 26.6994H46.4544L46.5491 26.3997C46.6012 26.2347 46.8372 25.4877 47.0736 24.7394L47.5031 23.3789H48.29C48.7227 23.3789 49.0763 23.4101 49.0757 23.4481C49.0752 23.4861 48.8676 24.1989 48.6144 25.0319C48.3613 25.865 48.1755 26.5809 48.2018 26.623C48.2281 26.665 48.6015 26.6994 49.0317 26.6994H49.8139L50.1045 25.754C51.0749 22.5971 51.0317 22.8151 50.7873 22.305C50.5431 21.7954 50.2845 21.7184 48.8253 21.7207C47.7828 21.7224 47.4695 21.7546 47.1674 21.8909Z" fill="#0082C3"/>
<path fill-rule="evenodd" clip-rule="evenodd" d="M60.2539 15.3255C59.7731 15.4044 58.7954 15.7456 58.391 15.9755C57.8306 16.2943 57.6001 16.4729 56.9939 17.0581C56.1069 17.9145 55.8697 18.4023 55.0421 21.073C54.8299 21.7579 54.5986 22.4842 54.5281 22.6871C54.4575 22.8901 54.227 23.6164 54.0158 24.3013C53.8045 24.9861 53.5734 25.7125 53.5023 25.9154C53.4311 26.1183 53.2604 26.6559 53.1229 27.1099C52.5371 29.0448 52.9642 30.3832 54.4118 31.1492C54.791 31.3498 54.9057 31.3583 57.6247 31.3864C60.6815 31.4181 61.0796 31.3784 61.983 30.9521C63.614 30.1825 64.7343 28.8287 65.3264 26.9116C65.4487 26.5159 65.7793 25.445 66.061 24.5319C66.3427 23.6187 66.6389 22.6641 66.7191 22.4104C66.7993 22.1568 66.8653 21.8968 66.8659 21.8327C66.8667 21.7406 66.2536 21.7212 63.9562 21.7404L61.0456 21.7648L60.5648 23.1944C60.3003 23.9807 60.0802 24.6967 60.0758 24.7855C60.0685 24.9278 60.1662 24.9469 60.9003 24.9469C61.3584 24.9469 61.7539 24.9802 61.7792 25.0209C61.8294 25.1012 61.2556 27.0426 61.0925 27.3444C60.9975 27.5202 60.9 27.5294 59.1562 27.5281C58.1462 27.5273 57.2686 27.4944 57.2058 27.4549C57.1202 27.401 57.2054 27.0267 57.5467 25.9574C57.797 25.1734 58.1768 23.9715 58.3908 23.2867C58.6049 22.6018 58.98 21.4189 59.2245 20.658L59.6692 19.2744L63.7028 19.2283L67.7363 19.1822L67.8548 18.8132C68.4242 17.0389 68.9089 15.5571 68.9634 15.4236C69.0255 15.2711 68.7915 15.2629 64.7579 15.2747C62.4088 15.2816 60.3819 15.3045 60.2539 15.3255ZM73.8526 15.3229C72.1229 15.6323 70.3139 16.9537 69.5793 18.4443C69.4292 18.7487 69.0688 19.7656 68.7782 20.7041C68.4877 21.6426 68.0674 22.9915 67.8444 23.7017C66.4637 28.0987 66.4381 28.2087 66.5955 29.0519C66.7784 30.0318 67.2305 30.6411 68.1243 31.112L68.59 31.3573H71.4774C74.6245 31.3573 74.5909 31.3618 75.7806 30.7845C76.9707 30.207 78.1292 29.0894 78.7146 27.9543C78.8164 27.7567 79.0595 27.0718 79.2547 26.4324C79.814 24.6001 80.8845 21.1331 81.2654 19.9201C81.5484 19.0194 81.614 18.6672 81.6175 18.0292C81.6214 17.3329 81.5916 17.1902 81.3507 16.7533C81.0293 16.1702 80.6941 15.8709 79.9999 15.5472C79.488 15.3085 79.4856 15.3083 76.7865 15.2947C75.3009 15.2873 73.9806 15.2999 73.8526 15.3229ZM73.215 19.5742C72.9249 20.4988 72.3217 22.4062 72.0848 23.1483C71.939 23.6049 71.6447 24.5388 71.4307 25.2236C71.2166 25.9085 70.9805 26.652 70.9061 26.8759C70.6804 27.5545 70.6244 27.5362 72.848 27.5083L74.8284 27.4834L74.988 27.0222C75.0758 26.7686 75.2951 26.0837 75.4755 25.5003C75.6559 24.9169 76.1015 23.485 76.4658 22.3182C76.8302 21.1514 77.1638 20.0723 77.2072 19.9201C77.2506 19.7679 77.3149 19.55 77.3499 19.4358L77.4136 19.2283H75.3686H73.3235L73.215 19.5742Z" fill="#FF1223"/>
</svg>
