<svg width="103" height="46" viewBox="0 0 103 46" fill="none" xmlns="http://www.w3.org/2000/svg">
<path d="M40.3146 20.507C40.1831 20.2068 39.9727 19.9457 39.6965 19.763C39.565 19.6716 39.4072 19.5933 39.2494 19.5541C39.0915 19.5019 38.9206 19.4758 38.7364 19.4758H34.0544C33.8703 19.4758 33.6862 19.5541 33.5547 19.6847C33.4232 19.8152 33.3442 19.9979 33.3442 20.1807V25.8193C33.3442 26.2108 33.6599 26.5241 34.0544 26.5241C34.449 26.5241 34.7646 26.2108 34.7646 25.8193V24.1747H38.7364C38.9731 24.1747 39.1967 24.1225 39.394 24.0441C39.6965 23.9136 39.9595 23.7048 40.1436 23.4307C40.2357 23.3002 40.3146 23.1435 40.354 22.9869C40.4067 22.8303 40.433 22.6606 40.433 22.4779V21.1726C40.4461 20.9377 40.3935 20.7158 40.3146 20.507ZM39.0257 22.4779C39.0257 22.517 39.0126 22.5562 38.9994 22.5823C38.9731 22.6345 38.9469 22.6736 38.8942 22.7128C38.8679 22.7259 38.8416 22.7389 38.8153 22.752C38.789 22.765 38.7627 22.765 38.7364 22.765H34.7646V20.8855H38.7364C38.7759 20.8855 38.8153 20.8985 38.8416 20.9116C38.8942 20.9377 38.9337 20.9638 38.9731 21.016C38.9863 21.0421 38.9994 21.0682 39.0126 21.0943C39.0257 21.1204 39.0257 21.1465 39.0257 21.1726V22.4779Z" fill="white"/>
<path d="M74.3127 22.5836C74.1809 22.4922 74.0235 22.414 73.8655 22.3748C73.7075 22.3226 73.5365 22.2965 73.3524 22.2965H69.1836C69.1439 22.2965 69.1046 22.2834 69.078 22.2704C69.0256 22.2443 68.9859 22.2182 68.9467 22.1659C68.9336 22.1398 68.9205 22.1138 68.9074 22.0877C68.8938 22.0615 68.8938 22.0354 68.8938 22.0093V21.1609C68.8938 21.1217 68.9074 21.0826 68.9205 21.0565C68.9467 21.0043 68.9728 20.9651 69.0256 20.926C69.0518 20.9129 69.078 20.8999 69.1046 20.8868C69.1308 20.8738 69.1569 20.8738 69.1836 20.8738H74.1019C74.4968 20.8738 74.8122 20.5605 74.8122 20.1689C74.8122 19.7774 74.4968 19.4641 74.1019 19.4641H69.1836C68.9467 19.4641 68.7233 19.5163 68.5256 19.5946C68.2233 19.7252 67.9602 19.934 67.7761 20.2081C67.684 20.3386 67.605 20.4952 67.5658 20.6519C67.513 20.8085 67.4868 20.9782 67.4868 21.1609V22.0093C67.4868 22.2443 67.5396 22.4661 67.6186 22.6619C67.7499 22.9621 67.9602 23.2232 68.2364 23.4059C68.3682 23.4973 68.5256 23.5756 68.6836 23.6148C68.8415 23.667 69.0126 23.693 69.1967 23.693H73.3655C73.4052 23.693 73.4444 23.7061 73.4711 23.7192C73.5234 23.7453 73.5632 23.7714 73.6024 23.8236C73.6155 23.8497 73.6286 23.8758 73.6416 23.9019C73.6552 23.928 73.6552 23.9541 73.6552 23.9802V24.8286C73.6552 24.8678 73.6416 24.9069 73.6286 24.933C73.6024 24.9853 73.5762 25.0244 73.5234 25.0635C73.4973 25.0766 73.4711 25.0897 73.4444 25.1027C73.4183 25.1158 73.3921 25.1158 73.3655 25.1158H68.4471C68.0522 25.1158 67.7368 25.429 67.7368 25.8206C67.7368 26.2122 68.0522 26.5255 68.4471 26.5255H73.3655C73.6024 26.5255 73.8258 26.4732 74.0235 26.3949C74.3258 26.2644 74.5889 26.0556 74.773 25.7815C74.8651 25.6509 74.944 25.4943 74.9833 25.3377C75.0361 25.181 75.0623 25.0114 75.0623 24.8286V23.9802C75.0623 23.7453 75.0094 23.5234 74.9305 23.3276C74.7992 23.0274 74.5758 22.7663 74.3127 22.5836Z" fill="white"/>
<path d="M65.7764 19.6467C65.4866 19.3857 65.0263 19.4248 64.7768 19.712L62.0015 22.8706L59.2135 19.712C58.9504 19.4248 58.5032 19.3857 58.2139 19.6467C57.9246 19.9078 57.8851 20.3516 58.1482 20.6387L61.2781 24.202V25.8205C61.2781 26.212 61.594 26.5253 61.9884 26.5253C62.3828 26.5253 62.6987 26.212 62.6987 25.8205V24.202L65.8418 20.6387C66.0918 20.3516 66.0656 19.9078 65.7764 19.6467Z" fill="white"/>
<path d="M84.3732 20.507C84.2419 20.2068 84.0311 19.9457 83.7549 19.763C83.6237 19.6716 83.4657 19.5933 83.3082 19.5541C83.1503 19.5019 82.9792 19.4758 82.7951 19.4758H78.6394C78.4025 19.4758 78.1786 19.528 77.9814 19.6064C77.6791 19.7369 77.416 19.9457 77.2319 20.2198C77.1398 20.3503 77.0608 20.507 77.0216 20.6636C76.9688 20.8202 76.9426 20.9899 76.9426 21.1726V24.8403C76.9426 25.0753 76.9954 25.2972 77.0739 25.493C77.2057 25.7932 77.416 26.0542 77.6922 26.237C77.824 26.3283 77.9814 26.4066 78.1394 26.4458C78.2973 26.498 78.4684 26.5241 78.6525 26.5241H82.8213C83.0582 26.5241 83.2816 26.4719 83.4788 26.3936C83.7816 26.2631 84.0447 26.0542 84.2288 25.7801C84.3209 25.6496 84.3994 25.493 84.4391 25.3364C84.4919 25.1797 84.5181 25.01 84.5181 24.8273V21.1726C84.505 20.9377 84.4522 20.7158 84.3732 20.507ZM83.0844 24.8273C83.0844 24.8665 83.0713 24.9056 83.0582 24.9317C83.0321 24.9839 83.0054 25.0231 82.9531 25.0622C82.9264 25.0753 82.9003 25.0883 82.8741 25.1014C82.8479 25.1144 82.8213 25.1144 82.7951 25.1144H78.6394C78.5997 25.1144 78.5604 25.1014 78.5338 25.0883C78.4815 25.0622 78.4417 25.0362 78.4025 24.9839C78.3894 24.9578 78.3763 24.9317 78.3632 24.9056C78.3497 24.8795 78.3497 24.8534 78.3497 24.8273V21.1726C78.3497 21.1335 78.3632 21.0943 78.3763 21.0682C78.4025 21.016 78.4286 20.9768 78.4815 20.9377C78.5076 20.9247 78.5338 20.9116 78.5604 20.8985C78.5866 20.8855 78.6128 20.8855 78.6394 20.8855H82.8082C82.8479 20.8855 82.8872 20.8985 82.9133 20.9116C82.9662 20.9377 83.0054 20.9638 83.0451 21.016C83.0582 21.0421 83.0713 21.0682 83.0844 21.0943C83.0975 21.1204 83.0975 21.1465 83.0975 21.1726V24.8273H83.0844Z" fill="white"/>
<path d="M93.3425 19.4758C92.9481 19.4758 92.6327 19.7891 92.6327 20.1807V24.2138L87.6742 19.6716C87.4639 19.4758 87.1616 19.4367 86.9115 19.5411C86.6484 19.6586 86.4905 19.9066 86.4905 20.1807V25.8193C86.4905 26.2108 86.8064 26.5241 87.2008 26.5241C87.5957 26.5241 87.9111 26.2108 87.9111 25.8193V21.7861L92.8692 26.3283C93.0794 26.5241 93.3823 26.5633 93.6323 26.4588C93.8949 26.3413 94.0528 26.0934 94.0528 25.8193V20.1807C94.0528 19.7891 93.7374 19.4758 93.3425 19.4758Z" fill="white"/>
<path d="M47.9706 25.1144H43.7095V20.1807C43.7095 19.7891 43.3938 19.4758 42.9993 19.4758C42.6047 19.4758 42.2891 19.7891 42.2891 20.1807V25.8193C42.2891 26.002 42.368 26.1847 42.4995 26.3152C42.631 26.4458 42.8152 26.5241 42.9993 26.5241H47.9706C48.3652 26.5241 48.6808 26.2108 48.6808 25.8193C48.6808 25.4277 48.3652 25.1144 47.9706 25.1144Z" fill="white"/>
<path d="M57.6348 26.5255C57.3849 26.5255 57.1482 26.3949 57.0167 26.173L54.3206 21.5786L51.6245 26.173C51.4272 26.5124 50.9932 26.6168 50.6513 26.421C50.3093 26.2252 50.2041 25.7945 50.4014 25.4552L53.7156 19.8165C53.8471 19.5946 54.0707 19.4641 54.3337 19.4641C54.5836 19.4641 54.8204 19.5946 54.9519 19.8165L58.2529 25.4682C58.4502 25.8075 58.3319 26.2383 58.0031 26.434C57.8847 26.4993 57.7532 26.5255 57.6348 26.5255Z" fill="white"/>
<path d="M11.4993 29.8536V18.0021L21.5735 23.0011L15.8656 25.8335V23.0011C15.8656 22.3746 15.3527 21.8656 14.7215 21.8656C14.0902 21.8656 13.5773 22.3746 13.5773 23.0011V27.6739C13.5773 28.0654 13.7877 28.4309 14.1165 28.6398C14.4584 28.8486 14.8793 28.8616 15.2344 28.6919L24.6641 24.0192C25.0586 23.8234 25.2954 23.4319 25.2954 23.0011C25.2954 22.5704 25.0455 22.1788 24.6641 21.983L10.868 15.1306C10.4998 14.9609 10.0789 14.9739 9.73697 15.1828C9.40818 15.3916 9.19775 15.7571 9.19775 16.1487V29.8406C9.19775 30.4671 9.71067 30.9761 10.3419 30.9761C10.9864 30.9891 11.4993 30.4801 11.4993 29.8536Z" fill="#FF002A"/>
</svg>
