<svg width="103" height="46" viewBox="0 0 103 46" fill="none" xmlns="http://www.w3.org/2000/svg">
<path d="M82.7982 16.3177C78.4729 16.5845 80.415 22.1751 85.1967 21.88C89.8742 21.5914 87.4065 16.0335 82.7982 16.3177Z" fill="#F19021"/>
<path d="M80.9724 12.8647C78.2164 12.8647 75.5222 13.6758 73.2306 15.1954C70.9391 16.715 69.153 18.8749 68.0983 21.4019C67.0436 23.9289 66.7677 26.7096 67.3054 29.3923C67.843 32.075 69.1702 34.5392 71.119 36.4733C73.0678 38.4074 75.5508 39.7245 78.2539 40.2581C80.957 40.7917 83.7588 40.5179 86.305 39.4711C88.8513 38.4244 91.0276 36.6518 92.5588 34.3776C94.09 32.1033 94.9072 29.4295 94.9072 26.6943C94.9072 23.0264 93.4391 19.5088 90.8258 16.9153C88.2125 14.3217 84.6682 12.8647 80.9724 12.8647ZM80.9724 39.0745C78.5058 39.0749 76.0944 38.3494 74.0432 36.9896C71.9921 35.6299 70.3933 33.697 69.449 31.4355C68.5048 29.1739 68.2575 26.6853 68.7385 24.2843C69.2194 21.8832 70.407 19.6777 72.151 17.9465C73.8951 16.2153 76.1172 15.0363 78.5364 14.5586C80.9556 14.0808 83.4633 14.3258 85.7422 15.2625C88.0211 16.1992 89.969 17.7856 91.3394 19.8211C92.7099 21.8565 93.4413 24.2495 93.4413 26.6975C93.4413 29.9797 92.1277 33.1275 89.7894 35.4486C87.4511 37.7696 84.2796 39.0739 80.9724 39.0745ZM80.5522 3.21011C77.244 5.69181 77.819 9.49767 77.819 9.49767C77.819 9.49767 75.7397 4.14115 73.0394 0.866699C72.6752 5.082 74.0061 10.6672 74.0061 10.6672C74.0061 10.6672 72.3153 7.20435 68.1721 7.01052C71.6087 8.97062 72.9418 12.5021 73.2468 13.4494C75.2948 12.1949 77.6367 11.4915 80.042 11.4088C79.7709 10.5267 78.8076 6.81015 80.5522 3.21011Z" fill="#F19021"/>
<path d="M9.07096 28.0501V30.9445H7.85742V23.4874H10.4118C11.2779 23.4874 11.9289 23.6918 12.3648 24.1005C12.8008 24.5092 13.0203 25.0689 13.0232 25.7796C13.0232 26.4845 12.7997 27.0392 12.3528 27.4435C11.9058 27.8479 11.2603 28.0501 10.4162 28.0501H9.07096ZM11.7844 25.7796C11.7844 25.3571 11.6655 25.0348 11.4278 24.8127C11.1901 24.5905 10.809 24.4798 10.2845 24.4805H9.07096V27.0679H10.2845C11.2837 27.0679 11.7837 26.6385 11.7844 25.7796ZM18.032 30.9445L16.1591 27.9662H15.2966V30.9445H14.0831V23.4874H16.734C17.592 23.4874 18.2431 23.695 18.6871 24.1103C19.1311 24.5255 19.3527 25.0751 19.352 25.7589C19.352 26.3397 19.187 26.8185 18.8571 27.1953C18.5272 27.572 18.0518 27.8112 17.4307 27.9129L19.4058 30.9445H18.032ZM15.2966 27.1103H16.6353C17.6154 27.1103 18.1052 26.6809 18.1044 25.8221C18.1044 25.4141 17.9856 25.0954 17.7478 24.866C17.5097 24.6373 17.14 24.523 16.6353 24.523H15.2966V27.1103ZM24.9292 29.3285H21.7571L21.1822 30.9445H19.8842L22.6514 23.6039H24.0459L26.8022 30.9445H25.5031L24.9292 29.3285ZM24.588 28.3996L23.3426 24.915L22.0973 28.3996H24.588ZM32.9324 24.0787C33.5281 24.5153 33.9471 25.1486 34.1141 25.8646H32.8369C32.6778 25.4679 32.3963 25.1313 32.0327 24.903C31.6364 24.6568 31.1757 24.5318 30.7083 24.5437C30.2656 24.5365 29.8293 24.6495 29.4465 24.8704C29.072 25.0906 28.7692 25.413 28.5742 25.7992C28.3573 26.2409 28.2515 26.7281 28.2659 27.2192C28.2517 27.7272 28.3612 28.2312 28.5852 28.6882C28.7838 29.0818 29.0969 29.4073 29.4838 29.6225C29.8966 29.8451 30.3604 29.9577 30.8301 29.9492C31.4197 29.9594 31.992 29.7513 32.4354 29.3655C32.8816 28.9822 33.1511 28.4559 33.244 27.7866H30.4845V26.8991H34.2622V28.0501C34.1826 28.5865 33.9807 29.0978 33.6719 29.5452C33.3587 29.9967 32.9386 30.3651 32.4485 30.6178C31.9107 30.8919 31.3128 31.0296 30.7083 31.0185C30.0302 31.0323 29.3608 30.8646 28.7706 30.5329C28.2171 30.2163 27.7666 29.7488 27.4726 29.1859C27.1715 28.5722 27.015 27.8985 27.015 27.216C27.015 26.5334 27.1715 25.8597 27.4726 25.2461C27.7654 24.6854 28.2139 24.2199 28.7651 23.9045C29.3545 23.5762 30.0216 23.4104 30.6973 23.4243C31.592 23.4243 32.337 23.6424 32.9324 24.0787ZM42.8305 23.6039V30.9445H41.606V25.4421L39.4675 30.9445H38.4032L36.2526 25.4421V30.9445H35.0402V23.6039H36.5083L38.9562 29.4657L41.3613 23.6039H42.8305ZM48.7687 29.3285H45.6021L45.0272 30.9445H43.7248L46.492 23.6039H47.8854L50.6428 30.9445H49.3437L48.7687 29.3285ZM48.4286 28.3996L47.1832 24.915L45.9379 28.3996H48.4286ZM55.836 23.4874V24.4587H53.7392V30.9445H52.5147V24.4587H50.4299V23.4874H55.836ZM57.698 23.4874V30.9445H56.4855V23.4874H57.698ZM64.5633 24.1103C65.179 24.5836 65.6143 25.2506 65.7977 26.0018H64.5096C64.3451 25.5666 64.0498 25.1921 63.6636 24.9292C63.2423 24.6552 62.7461 24.5168 62.2427 24.5328C61.8204 24.5261 61.4051 24.6395 61.0456 24.8595C60.6862 25.0878 60.3985 25.4115 60.215 25.7938C60.0154 26.2394 59.9122 26.7217 59.9122 27.2094C59.9122 27.6971 60.0154 28.1794 60.215 28.625C60.3982 29.0079 60.6859 29.332 61.0456 29.5605C61.405 29.7805 61.8204 29.8939 62.2427 29.8871C62.746 29.9035 63.2422 29.7655 63.6636 29.4918C64.0477 29.2314 64.3427 28.8611 64.5096 28.4301H65.7977C65.6153 29.18 65.1797 29.8452 64.5633 30.3151C63.9533 30.7768 63.187 31.0077 62.2646 31.0077C61.6043 31.0201 60.953 30.8537 60.3807 30.5263C59.8373 30.2094 59.3977 29.7436 59.1145 29.1848C58.8197 28.5693 58.6668 27.8963 58.6668 27.2149C58.6668 26.5334 58.8197 25.8605 59.1145 25.245C59.3987 24.6854 59.838 24.2181 60.3807 23.8979C60.952 23.5678 61.6037 23.3997 62.2646 23.4123C63.1863 23.413 63.9525 23.6457 64.5633 24.1103ZM71.522 28.0501V30.9445H70.3095V23.4874H72.8639C73.7285 23.4874 74.3795 23.6918 74.8169 24.1005C75.2544 24.5092 75.4738 25.0689 75.4753 25.7796C75.4753 26.4845 75.2518 27.0392 74.8049 27.4435C74.3579 27.8479 73.7124 28.0501 72.8683 28.0501H71.522ZM74.2398 25.7796C74.2398 25.3571 74.1209 25.0348 73.8832 24.8127C73.6455 24.5905 73.264 24.4798 72.7388 24.4805H71.522V27.0679H72.7355C73.7384 27.0679 74.2398 26.6385 74.2398 25.7796ZM77.5567 30.0047H80.1539V30.9445H76.3432V23.4874H77.5567V30.0047ZM85.7091 29.3285H82.5381L81.9632 30.9445H80.6641L83.4324 23.6039H84.8259L87.5832 30.9445H86.2841L85.7091 29.3285ZM85.369 28.3996L84.1236 24.915L82.8783 28.3996H85.369ZM92.4538 23.4874L89.9532 28.2298V30.9445H88.732V28.2298L86.2204 23.4874H87.626L89.3508 26.9415L91.0746 23.4874H92.4538Z" fill="white"/>
</svg>
