<svg width="103" height="46" viewBox="0 0 103 46" fill="none" xmlns="http://www.w3.org/2000/svg">
<path fill-rule="evenodd" clip-rule="evenodd" d="M32.4647 22.9068L32.4931 26.8085L32.954 26.8416L33.4149 26.8747V23.3166C33.4149 21.3597 33.4543 19.7586 33.5025 19.7586C33.5505 19.7586 34.1008 21.3449 34.7251 23.2835C35.8035 26.6317 35.8743 26.8101 36.1359 26.8407C36.4042 26.8719 36.4308 26.8122 37.1534 24.5462C38.3659 20.7445 38.6726 19.8505 38.7708 19.8309C38.822 19.8207 38.8703 21.3865 38.8779 23.3105L38.8918 26.8085L39.3527 26.8416L39.8136 26.8747V22.9354V18.9961L38.9746 19.0275L38.1355 19.059L37.1623 22.0984C36.627 23.7702 36.1556 25.1021 36.115 25.0583C36.0743 25.0146 35.6114 23.6346 35.0865 21.992L34.132 19.0051H33.2841H32.4362L32.4647 22.9068ZM41.2235 19.4895V19.9738H41.7115H42.1995V19.4895V19.0051H41.7115H41.2235V19.4895ZM81.5315 19.0769C81.4917 19.1163 81.4591 19.3343 81.4591 19.5613V19.9738H81.9472H82.4352V19.4895V19.0051H82.0195C81.7908 19.0051 81.5712 19.0374 81.5315 19.0769ZM44.8157 20.8291C44.2969 20.9592 43.9227 21.2645 43.6094 21.8132C43.3559 22.2571 43.3383 22.3859 43.3383 23.7948C43.3383 25.1868 43.3589 25.3427 43.6094 25.8398C44.0253 26.6655 44.5626 26.9179 45.8869 26.91C46.7366 26.905 46.9994 26.8615 47.3863 26.6616C47.9064 26.3928 48.2662 25.7845 48.2705 25.1671C48.2727 24.8303 48.2567 24.8173 47.839 24.8173C47.4753 24.8173 47.4052 24.8526 47.4052 25.036C47.4052 25.1564 47.3338 25.4245 47.2465 25.6319C47.0377 26.1277 46.4875 26.3645 45.6958 26.2994C44.5778 26.2074 44.2807 25.7076 44.2711 23.9024C44.264 22.5896 44.3755 22.0706 44.7431 21.706C44.9981 21.4527 45.1036 21.4269 45.8806 21.4269C46.6395 21.4269 46.7692 21.4568 47.0189 21.6897C47.1836 21.8432 47.3283 22.1232 47.367 22.3624C47.4306 22.758 47.4481 22.7723 47.867 22.7723H48.3011L48.2447 22.2757C48.129 21.2581 47.4891 20.8049 46.1108 20.7644C45.5999 20.7494 45.0171 20.7786 44.8157 20.8291ZM51.3637 20.8702C51.1848 20.9398 50.8822 21.0815 50.6913 21.1849C50.2523 21.4229 50.2614 21.4243 50.1804 21.104C50.1241 20.8814 50.0471 20.8349 49.7349 20.8349H49.3574V23.8486V26.8623H49.8433H50.3293L50.3585 24.4675L50.3877 22.0727L50.9556 21.7707C51.3118 21.5812 51.7365 21.4542 52.0944 21.43C52.6426 21.3931 52.6665 21.3784 52.6991 21.0594C52.7329 20.7287 52.7309 20.7273 52.2111 20.7354C51.924 20.74 51.5427 20.8006 51.3637 20.8702ZM54.5671 20.8475C53.9785 21.0247 53.5793 21.3647 53.33 21.9013C53.132 22.3273 53.1002 22.5967 53.0996 23.8515C53.099 25.2001 53.1192 25.3467 53.3743 25.8385C53.7837 26.6279 54.3889 26.9081 55.6949 26.9127C56.5409 26.9156 56.7613 26.877 57.223 26.6448C58.0014 26.2531 58.2561 25.7029 58.3301 24.2518C58.4245 22.4038 58.0897 21.4248 57.2187 21.0014C56.714 20.756 55.1689 20.6663 54.5671 20.8475ZM60.3135 20.9628C59.4779 21.391 59.3892 21.6627 59.3892 23.7948C59.3892 25.4307 59.4122 25.6633 59.6061 25.9907C59.8853 26.4622 60.4736 26.7608 61.2592 26.8299C61.8579 26.8826 62.0773 26.8306 63.1579 26.3803C63.3235 26.3112 63.3477 26.3677 63.3475 26.8239C63.3475 27.1114 63.262 27.5162 63.1577 27.7234C62.9081 28.2194 62.2395 28.4074 61.0569 28.3143L60.2302 28.2492L60.1718 28.5513C60.1396 28.7176 60.1346 28.875 60.1607 28.9011C60.1868 28.9274 60.8291 28.9516 61.5881 28.9549C62.8461 28.9607 63.0076 28.9387 63.4146 28.7073C64.2451 28.2349 64.2651 28.1347 64.3023 24.2522L64.335 20.8349H63.9498C63.6485 20.8349 63.5646 20.8779 63.5646 21.0322C63.5646 21.3508 63.4846 21.3542 62.8877 21.0609C62.0762 20.6624 60.9811 20.6206 60.3135 20.9628ZM66.6076 20.9628C66.3427 21.0997 66.0361 21.3342 65.9262 21.4841C65.4273 22.165 65.3835 25.0272 65.8575 25.9721C66.2182 26.6914 66.648 26.9116 67.6833 26.9077C68.4521 26.9046 68.7437 26.8222 69.6566 26.3496C69.6968 26.3288 69.7456 26.4235 69.7651 26.5601C69.7944 26.7656 69.8663 26.8085 70.1801 26.8085H70.5597L70.5886 23.8217L70.6174 20.8349H70.1819C69.8187 20.8349 69.7463 20.8706 69.7463 21.0502C69.7463 21.3217 69.6803 21.3196 69.0889 21.0287C68.3595 20.6701 67.2322 20.6401 66.6076 20.9628ZM73.7584 20.8278C73.6089 20.873 73.3307 20.9899 73.1401 21.0876C72.7075 21.3097 72.7116 21.31 72.6431 21.0502C72.5997 20.8853 72.4952 20.8349 72.1967 20.8349H71.8069V23.8486V26.8623H72.295H72.783V24.3544V21.8465L73.274 21.6097C73.9696 21.2744 74.836 21.2844 75.2442 21.6326L75.5485 21.8922L75.6027 24.3503L75.657 26.8085L76.0709 26.8423L76.4849 26.8762L76.4505 24.3415L76.4161 21.8067L76.9242 21.5898C77.6339 21.2871 78.4339 21.3005 78.8101 21.6217C79.2001 21.9546 79.2757 22.4776 79.2836 24.898L79.2901 26.8623H79.7239H80.1577L80.1575 24.4137C80.1574 22.2952 80.1318 21.9153 79.9677 21.596C79.6353 20.9489 79.2875 20.7811 78.2787 20.7811C77.5298 20.7811 77.2988 20.8269 76.7955 21.0755C76.2814 21.3293 76.1827 21.348 76.0797 21.2112C75.7755 20.8075 74.5152 20.5993 73.7584 20.8278ZM85.5261 20.9232C85.2279 21.0341 84.8956 21.1629 84.7875 21.2091C84.6392 21.2729 84.5766 21.2376 84.5309 21.0642C84.4843 20.8872 84.3868 20.8349 84.1035 20.8349H83.7366V23.8486V26.8623H84.2247H84.7127V24.3462V21.8301L85.2479 21.6016C85.9713 21.2928 86.9615 21.2888 87.3515 21.5932C87.7778 21.9261 87.8565 22.4165 87.8572 24.7427L87.8578 26.8747L88.3187 26.8416L88.7797 26.8085L88.7778 24.4944C88.7756 21.8833 88.7076 21.5348 88.113 21.0846C87.6018 20.6977 86.3433 20.6191 85.5261 20.9232ZM90.897 20.9617C90.0612 21.3919 89.9726 21.6633 89.9726 23.7948C89.9726 25.899 90.0695 26.2098 90.8433 26.5893C91.4546 26.8891 92.6145 26.8756 93.3213 26.5602C93.6123 26.4304 93.8684 26.3242 93.8907 26.3242C93.9986 26.3242 93.9126 27.3438 93.7777 27.6644C93.5446 28.2178 93.274 28.3145 91.9574 28.315C90.8919 28.3154 90.7925 28.3328 90.7409 28.5288C90.71 28.6461 90.7196 28.7763 90.7625 28.8178C90.8052 28.8594 91.256 28.9265 91.7641 28.967C92.8941 29.057 93.8042 28.8918 94.2558 28.5147C94.8345 28.0315 94.9072 27.5267 94.9072 23.9905V20.8349H94.5393C94.2372 20.8349 94.1593 20.8831 94.1033 21.1046L94.0351 21.3745L93.4679 21.0878C92.6474 20.6732 91.5609 20.6198 90.897 20.9617ZM41.2235 23.8486V26.8623H41.7115H42.1995V23.8486V20.8349H41.7115H41.2235V23.8486ZM81.4845 23.8217L81.5134 26.8085L81.9743 26.8416L82.4352 26.8747V23.8548V20.8349H81.9454H81.4557L81.4845 23.8217ZM54.8884 21.4437C54.4988 21.598 54.2414 21.9669 54.1201 22.5445C53.9482 23.3636 54.0464 25.2072 54.2865 25.6679C54.5336 26.1421 55.0835 26.3594 55.8895 26.3016C57.0657 26.2171 57.3621 25.7374 57.3719 23.9024C57.3789 22.5914 57.2674 22.0706 56.9019 21.708C56.6603 21.4681 56.5177 21.4275 55.8371 21.405C55.4048 21.3908 54.9779 21.4082 54.8884 21.4437ZM60.8946 21.5786C60.4207 21.8654 60.311 22.2854 60.311 23.8143C60.311 25.4082 60.44 25.8231 61.0086 26.059C61.5344 26.277 62.031 26.2563 62.7415 25.9863L63.3477 25.7561V23.7931V21.8301L62.8125 21.6016C62.1383 21.3138 61.3477 21.3043 60.8946 21.5786ZM67.2624 21.5092C67.119 21.5823 66.8994 21.7788 66.7743 21.946C66.5677 22.2223 66.547 22.3941 66.547 23.8343C66.547 25.1877 66.576 25.4626 66.7453 25.7191C67.1679 26.3592 68.2483 26.4852 69.1967 26.005L69.6379 25.7816V23.8004V21.8191L69.0373 21.5961C68.3623 21.3454 67.6517 21.3106 67.2624 21.5092ZM91.5511 21.5094C91.4053 21.5827 91.1857 21.812 91.0632 22.0191C90.8694 22.3466 90.8405 22.5774 90.8405 23.7948C90.8405 25.3965 90.946 25.7308 91.5453 26.028C92.0463 26.2765 92.5972 26.2659 93.3305 25.9935L93.9311 25.7705V23.8085V21.8465L93.4402 21.6097C92.8868 21.343 91.9786 21.2947 91.5511 21.5094Z" fill="url(#paint0_linear_12025_16399)"/>
<path fill-rule="evenodd" clip-rule="evenodd" d="M17.0404 12.4969C14.78 12.9028 12.7916 13.9614 11.2117 15.6C10.7473 16.0816 10.1802 16.7569 9.95152 17.1008C8.52787 19.2401 7.8738 22.1802 8.29253 24.5574C8.5859 26.2229 8.50911 26.2213 9.6292 24.5852C11.6986 21.5625 13.5485 18.5064 14.7628 16.1045C15.5653 14.5171 15.8858 14.2621 16.6466 14.6061C17.1403 14.8292 17.1808 15.1317 17.034 17.4878C16.8658 20.1837 16.9478 24.3699 17.1951 25.7203C17.3808 26.7341 17.7736 27.8436 17.9693 27.9066C18.5444 28.0921 20.8178 24.3918 22.5661 20.4242C23.2157 18.9498 23.4574 18.709 24.1562 18.8391C24.6544 18.9319 24.8112 19.2191 24.9519 20.2967C25.282 22.8225 25.8685 24.6672 26.7725 26.0231C27.0287 26.4072 27.0432 26.7546 26.803 26.7546C26.3628 26.7546 24.8601 24.7516 24.1875 23.2682L23.8239 22.4665L22.837 24.3684C21.2138 27.4966 19.9548 29.209 18.9366 29.6734C18.3546 29.9389 17.6497 29.9282 17.0603 29.6451C15.7198 29.001 14.9918 26.3705 14.9798 22.1264L14.9747 20.3505L14.5811 21.0501C13.3117 23.3069 11.9542 25.6238 11.026 27.1183C9.78635 29.1138 9.78093 28.8735 11.098 30.2569C14.4747 33.8037 19.6587 34.6493 23.9482 32.3531C26.5992 30.934 28.4729 28.548 29.2645 25.5835C29.6456 24.1558 29.6678 21.9922 29.3155 20.5865C27.9247 15.0366 22.5657 11.505 17.0404 12.4969Z" fill="url(#paint1_linear_12025_16399)"/>
<defs>
<linearGradient id="paint0_linear_12025_16399" x1="32.4362" y1="23.9936" x2="94.9072" y2="23.9936" gradientUnits="userSpaceOnUse">
<stop stop-color="#049AD4"/>
<stop offset="1" stop-color="#43B16A"/>
</linearGradient>
<linearGradient id="paint1_linear_12025_16399" x1="18.8667" y1="12.3303" x2="18.8667" y2="33.6341" gradientUnits="userSpaceOnUse">
<stop stop-color="#009CCF"/>
<stop offset="1" stop-color="#45B06C"/>
</linearGradient>
</defs>
</svg>
