<svg width="103" height="46" viewBox="0 0 103 46" fill="none" xmlns="http://www.w3.org/2000/svg">
<mask id="mask0_12025_16409" style="mask-type:luminance" maskUnits="userSpaceOnUse" x="9" y="15" width="85" height="16">
<path d="M93.0678 15.6985H9.93213V30.3017H93.0678V15.6985Z" fill="white"/>
</mask>
<g mask="url(#mask0_12025_16409)">
<path fill-rule="evenodd" clip-rule="evenodd" d="M34.8759 15.6985H39.2955C39.1152 15.8512 38.9685 16.0444 38.886 16.3186C38.2777 16.3467 37.6664 16.4339 37.0582 16.5866C36.3766 16.758 35.7836 17.1725 35.7836 17.8862C35.7836 18.1168 35.8448 18.3349 35.9487 18.525L35.9426 18.3754L36.0343 18.3287C36.1168 18.285 36.2054 18.2477 36.291 18.2103C36.5111 18.1168 36.7403 18.0389 36.9695 17.9734C38.3144 17.587 40.295 17.587 41.6398 17.9734C41.8691 18.0389 42.0983 18.1199 42.3184 18.2103C42.4039 18.2445 42.4926 18.285 42.5751 18.3287L42.6668 18.3754L42.6607 18.525C42.7646 18.3349 42.8257 18.1168 42.8257 17.8862C42.8257 17.1725 42.2328 16.7518 41.5512 16.5866C40.9032 16.4308 40.2552 16.3373 39.6073 16.3155C39.7417 16.141 39.9496 16.0288 40.1574 15.9197C40.2889 15.8481 40.4203 15.7795 40.5395 15.6985H43.7335C44.1675 15.6985 44.522 16.06 44.522 16.5025V29.4945C44.522 29.9371 44.1675 30.2986 43.7335 30.2986H34.8759C34.4418 30.2986 34.0873 29.9371 34.0873 29.4945V16.5025C34.0842 16.06 34.4388 15.6985 34.8759 15.6985ZM39.9649 22.0247C41.0866 21.3734 41.6001 20.6223 41.6643 19.3789C41.2089 20.8997 40.5425 21.6351 39.9649 22.0247ZM36.181 20.0801C36.3399 22.2615 38.6506 22.4454 39.3047 23.6795C39.9588 22.4454 42.2694 22.2584 42.4284 20.0801L42.5017 18.472C40.9215 17.6337 37.6909 17.6337 36.1107 18.472L36.181 20.0801Z" fill="url(#paint0_linear_12025_16409)"/>
<path fill-rule="evenodd" clip-rule="evenodd" d="M22.7968 15.6985H31.6544C32.0884 15.6985 32.4429 16.06 32.4429 16.5025V29.4945C32.4429 29.9371 32.0884 30.2986 31.6544 30.2986H22.7968C22.3627 30.2986 22.0082 29.9371 22.0082 29.4945V16.5025C22.0082 16.06 22.3627 15.6985 22.7968 15.6985ZM27.9347 25.6926C29.0564 25.0413 29.5699 24.2902 29.634 23.0468C29.1786 24.5676 28.5123 25.3031 27.9347 25.6926ZM24.1049 23.8664C24.2638 26.0479 26.5745 26.2348 27.2286 27.4658C27.8827 26.2317 30.1934 26.0447 30.3523 23.8664L30.4257 22.2584C28.8455 21.4201 25.6148 21.4201 24.0346 22.2584L24.1049 23.8664ZM26.8099 20.105C26.2016 20.133 25.5904 20.2203 24.9821 20.373C24.3005 20.5444 23.7076 20.9589 23.7076 21.6725C23.7076 21.9031 23.7687 22.1213 23.8726 22.3114L23.8665 22.1618L23.9582 22.115C24.0407 22.0714 24.1294 22.034 24.215 21.9966C24.435 21.9031 24.6643 21.8252 24.8935 21.7598C26.2383 21.3734 28.2189 21.3734 29.5637 21.7598C29.793 21.8252 30.0222 21.9062 30.2423 21.9966C30.3279 22.0309 30.4165 22.0714 30.499 22.115L30.5907 22.1618L30.5846 22.3114C30.6885 22.1213 30.7497 21.9031 30.7497 21.6725C30.7497 20.9589 30.1567 20.5382 29.4751 20.373C28.8271 20.2172 28.1792 20.1237 27.5312 20.1019C27.6657 19.9273 27.8735 19.8152 28.0814 19.7061C28.5398 19.4599 28.9861 19.22 29.0411 18.5312C28.1914 18.6403 28.6193 18.5998 27.7818 19.1265C27.3784 19.3446 26.9658 19.5659 26.8099 20.105Z" fill="url(#paint1_linear_12025_16409)"/>
<path fill-rule="evenodd" clip-rule="evenodd" d="M10.7207 15.6985H11.9952L12.0258 16.381C12.1847 18.5624 14.4954 18.7463 15.1495 19.9804C15.8036 18.7463 18.1143 18.5593 18.2732 16.381L18.3038 15.6985H19.5783C20.0123 15.6985 20.3669 16.06 20.3669 16.5025V29.4945C20.3669 29.9371 20.0123 30.2986 19.5783 30.2986H18.3068L18.3466 29.4353C16.7664 28.597 13.5357 28.597 11.9555 29.4353L11.9952 30.2986H10.7207C10.2867 30.3017 9.93213 29.9371 9.93213 29.4945V16.5025C9.93213 16.06 10.2867 15.6985 10.7207 15.6985ZM17.5702 15.6985C17.1209 16.998 16.5127 17.6555 15.9778 18.0139C16.9956 17.4218 17.5122 16.7456 17.6466 15.6985H17.5702ZM14.7338 27.285C14.1256 27.3131 13.5143 27.4003 12.9061 27.5531C12.2245 27.7245 11.6315 28.1389 11.6315 28.8526C11.6315 29.0832 11.6926 29.3013 11.7966 29.4914L11.7905 29.3418L11.8822 29.2951C11.9647 29.2514 12.0533 29.2141 12.1389 29.1767C12.359 29.0832 12.5882 29.0053 12.8174 28.9398C14.1623 28.5534 16.1428 28.5534 17.4877 28.9398C17.7169 29.0053 17.9462 29.0863 18.1662 29.1767C18.2518 29.2109 18.3405 29.2514 18.423 29.2951L18.5147 29.3418L18.5086 29.4914C18.6125 29.3013 18.6736 29.0832 18.6736 28.8526C18.6736 28.1389 18.0806 27.7182 17.3991 27.5531C16.7511 27.3972 16.1031 27.3037 15.4551 27.2819C15.5896 27.1074 15.7975 26.9952 16.0053 26.8862C16.4638 26.64 16.91 26.4 16.965 25.7113C16.1154 25.8203 16.5433 25.7799 15.7058 26.3065C15.3023 26.5216 14.8897 26.7428 14.7338 27.285Z" fill="url(#paint2_linear_12025_16409)"/>
<path fill-rule="evenodd" clip-rule="evenodd" d="M53.077 24.0972C54.853 24.0972 55.9441 22.9722 55.9441 21.442V21.4202C55.9441 19.9119 54.8865 19.3323 53.8046 19.1453L55.819 17.1851V15.8389H50.4365V17.369H53.5663L51.6652 19.3167L51.937 20.4542H52.6646C53.6428 20.4542 54.2233 20.825 54.2233 21.4857V21.5075C54.2233 22.1121 53.7557 22.4923 53.0954 22.4923C52.2887 22.4923 51.72 22.1432 51.173 21.5168L49.9719 22.6948C50.6536 23.5175 51.6438 24.0972 53.077 24.0972Z" fill="white"/>
<path fill-rule="evenodd" clip-rule="evenodd" d="M64.8414 24.097C67.2987 24.097 69.0839 22.2054 69.0839 19.8962V19.8744C69.0839 17.5652 67.32 15.6985 64.8627 15.6985C62.4055 15.6985 60.6202 17.5901 60.6202 19.8962V19.918C60.6202 22.2303 62.3841 24.097 64.8414 24.097ZM64.8627 22.4485C63.4505 22.4485 62.4511 21.2892 62.4511 19.8962V19.8744C62.4511 18.4814 63.4292 17.347 64.8414 17.347C66.2536 17.347 67.2531 18.5063 67.2531 19.8993V19.9211C67.2531 21.3141 66.2749 22.4485 64.8627 22.4485Z" fill="white"/>
<path fill-rule="evenodd" clip-rule="evenodd" d="M69.4478 23.9568H71.2326L71.9599 22.1369H75.3283L76.0556 23.9568H77.8864L74.4786 15.7795H72.8618L69.4478 23.9568ZM72.5896 20.56L73.6472 17.9267L74.7048 20.56H72.5896Z" fill="white"/>
<path fill-rule="evenodd" clip-rule="evenodd" d="M79.1183 23.9569H80.8726V21.4763L81.7926 20.5009L84.262 23.9569H86.3651L82.9753 19.2824L86.2183 15.8389H84.1031L80.8726 19.3884V15.8389H79.1183V23.9569Z" fill="white"/>
<path fill-rule="evenodd" clip-rule="evenodd" d="M90.1427 24.0752C91.8606 24.0752 93.0679 23.1715 93.0679 21.5572V21.5354C93.0679 20.1205 92.1571 19.5284 90.5433 19.0984C89.1679 18.74 88.8254 18.5655 88.8254 18.0326V18.0077C88.8254 17.6119 89.1771 17.3003 89.8495 17.3003C90.5219 17.3003 91.2157 17.6025 91.9187 18.1012L92.8295 16.7549C92.0224 16.0942 91.0322 15.7234 89.8708 15.7234C88.2449 15.7234 87.0832 16.6988 87.0832 18.1697V18.1915C87.0832 19.8027 88.1195 20.2577 89.7241 20.6753C91.0568 21.0243 91.3286 21.2549 91.3286 21.7068V21.7286C91.3286 22.2054 90.8979 22.4952 90.1795 22.4952C89.2686 22.4952 88.5197 22.1119 87.8016 21.5104L86.7654 22.7757C87.7192 23.6451 88.9387 24.0752 90.1427 24.0752Z" fill="white"/>
<path fill-rule="evenodd" clip-rule="evenodd" d="M51.72 30.3015C52.3284 30.3015 52.7989 30.0584 53.1414 29.7624V28.2914H51.6957V28.9365H52.4322V29.4196C52.2456 29.5567 52.0106 29.6221 51.7446 29.6221C51.1546 29.6221 50.7389 29.1671 50.7389 28.547V28.5376C50.7389 27.9611 51.1608 27.4812 51.6928 27.4812C52.0779 27.4812 52.3071 27.6058 52.5605 27.824L53.0222 27.2568C52.6768 26.9576 52.313 26.7925 51.717 26.7925C50.7113 26.7925 49.9749 27.5809 49.9749 28.547V28.5563C49.9719 29.5598 50.6841 30.3015 51.72 30.3015Z" fill="white"/>
<path fill-rule="evenodd" clip-rule="evenodd" d="M58.1204 30.2424H58.866L59.1688 29.482H60.5747L60.8775 30.2424H61.6415L60.2172 26.8269H59.5418L58.1204 30.2424ZM59.4318 28.8245L59.8747 27.7244L60.3179 28.8245H59.4318Z" fill="white"/>
<path fill-rule="evenodd" clip-rule="evenodd" d="M66.7241 30.2426H67.4392V28.0425L68.3655 29.4791H68.3868L69.3223 28.03V30.2426H70.0495V26.8521H69.2612L68.3868 28.2856L67.5128 26.8521H66.7241V30.2426Z" fill="white"/>
<path d="M76.1748 26.8521H75.4442V30.2426H76.1748V26.8521Z" fill="white"/>
<path fill-rule="evenodd" clip-rule="evenodd" d="M81.5693 30.2426H82.2936V28.0861L83.9045 30.2426H84.5251V26.8521H83.8037V28.94L82.2447 26.8521H81.5693V30.2426Z" fill="white"/>
<path fill-rule="evenodd" clip-rule="evenodd" d="M91.4879 30.3015C92.096 30.3015 92.5669 30.0584 92.909 29.7624V28.2914H91.4633V28.9365H92.2001V29.4196C92.0136 29.5567 91.7782 29.6221 91.5122 29.6221C90.9225 29.6221 90.5035 29.1671 90.5035 28.547V28.5376C90.5035 27.9611 90.9255 27.4812 91.4574 27.4812C91.8425 27.4812 92.0717 27.6058 92.3252 27.824L92.7868 27.2568C92.4414 26.9576 92.0776 26.7925 91.4817 26.7925C90.4763 26.7925 89.7395 27.5809 89.7395 28.547V28.5563C89.7395 29.5598 90.4546 30.3015 91.4879 30.3015Z" fill="white"/>
</g>
<defs>
<linearGradient id="paint0_linear_12025_16409" x1="44.0093" y1="16.2709" x2="34.4609" y2="29.4057" gradientUnits="userSpaceOnUse">
<stop stop-color="#F8B900"/>
<stop offset="1" stop-color="#E67508"/>
</linearGradient>
<linearGradient id="paint1_linear_12025_16409" x1="31.9329" y1="16.2709" x2="22.3845" y2="29.4057" gradientUnits="userSpaceOnUse">
<stop stop-color="#F8B900"/>
<stop offset="1" stop-color="#E67508"/>
</linearGradient>
<linearGradient id="paint2_linear_12025_16409" x1="19.8565" y1="16.2709" x2="10.308" y2="29.4057" gradientUnits="userSpaceOnUse">
<stop stop-color="#F8B900"/>
<stop offset="1" stop-color="#E67508"/>
</linearGradient>
</defs>
</svg>
