<svg width="24" height="24" viewBox="0 0 24 24" fill="none" xmlns="http://www.w3.org/2000/svg">
<g clip-path="url(#clip0_12001_6012)">
<path d="M21.9887 11.5215C21.9875 11.4965 21.9863 11.4711 21.9848 11.4461C21.9844 11.4313 21.9832 11.4164 21.9824 11.4012C21.9766 11.3016 21.9691 11.202 21.9605 11.1023C21.9504 10.9883 21.9383 10.8746 21.9246 10.7613C21.9195 10.7207 21.9145 10.6797 21.9086 10.6391C21.9031 10.5984 21.8977 10.5578 21.8914 10.5176C21.8789 10.4328 21.8656 10.348 21.8508 10.2641C21.8445 10.2273 21.8379 10.1906 21.8309 10.1543C21.8234 10.1141 21.816 10.0738 21.8078 10.034C21.8 9.99375 21.7918 9.95391 21.7832 9.91406C21.7676 9.83945 21.7512 9.76523 21.7336 9.69141C21.7234 9.64922 21.7133 9.60703 21.7031 9.56484C21.6328 9.28281 21.5504 9.00469 21.4559 8.73086C21.4426 8.6918 21.4289 8.65313 21.4148 8.61445C21.3754 8.50352 21.3336 8.39297 21.2895 8.28359C21.2746 8.24609 21.2594 8.20859 21.2438 8.17109C21.2305 8.13867 21.2168 8.10664 21.2031 8.07422C21.1879 8.03828 21.1723 8.00234 21.1562 7.9668C21.1422 7.93477 21.1281 7.90312 21.1137 7.87148C21.1023 7.84609 21.0906 7.82109 21.0789 7.7957C21.075 7.78633 21.0703 7.77734 21.066 7.76797C21.0535 7.74141 21.041 7.71445 21.0281 7.68789C20.9992 7.62656 20.9691 7.56602 20.9387 7.50586C20.9211 7.47031 20.9027 7.43516 20.8844 7.39961C20.8426 7.31875 20.7992 7.23828 20.7547 7.15859C20.7434 7.1375 20.732 7.1168 20.7199 7.09609C20.7105 7.07891 20.7008 7.06211 20.691 7.04531H20.6906C20.677 7.02109 20.6637 6.99687 20.6496 6.97305C20.6281 6.93672 20.607 6.90078 20.5855 6.86523C20.5102 6.73945 20.4316 6.61523 20.3504 6.49258C20.3086 6.42969 20.2668 6.36758 20.2234 6.30547C20.1949 6.26406 20.166 6.22344 20.1367 6.18281C20.1125 6.14883 20.0879 6.11484 20.0629 6.08125C20.0523 6.06641 20.0414 6.05195 20.0305 6.0375C19.9902 5.9832 19.9492 5.92969 19.9078 5.87656C19.8574 5.81172 19.8059 5.74727 19.7535 5.6832C19.7402 5.66719 19.727 5.65078 19.7133 5.63438C19.5922 5.48789 19.4668 5.34492 19.3367 5.20469C19.3184 5.18516 19.3 5.16523 19.2812 5.14531L19.2777 5.1418C19.2516 5.11406 19.2254 5.08633 19.1984 5.05898C19.1566 5.01523 19.1141 4.97188 19.0711 4.92891C19.0402 4.89805 19.0094 4.86758 18.9781 4.8375C18.9598 4.81914 18.941 4.80117 18.9223 4.7832C18.8941 4.75586 18.8656 4.72891 18.8367 4.70195C18.8023 4.66953 18.7676 4.6375 18.7328 4.60586C18.6945 4.5707 18.6559 4.53633 18.6172 4.50195C18.5758 4.46523 18.5344 4.42891 18.4922 4.39336C18.4652 4.36953 18.4375 4.34648 18.4098 4.32344C18.3773 4.29609 18.3445 4.26914 18.3117 4.24219C18.2789 4.21523 18.2461 4.18867 18.2129 4.1625C18.1859 4.14102 18.1586 4.11953 18.1313 4.09805C18.1023 4.07578 18.0734 4.05312 18.0441 4.03125C18.0254 4.0168 18.0066 4.00273 17.9879 3.98867C17.9652 3.97148 17.9426 3.9543 17.9195 3.9375C17.9082 3.9293 17.8969 3.92109 17.8855 3.9125C17.8629 3.89648 17.8406 3.88008 17.8176 3.86367C17.7805 3.83672 17.7434 3.81055 17.7055 3.78437C17.6367 3.73594 17.5672 3.68906 17.4969 3.64258C17.4566 3.61602 17.4164 3.58984 17.3758 3.56406C17.3391 3.54062 17.3023 3.51719 17.2656 3.49453C17.2562 3.48828 17.2461 3.48203 17.2363 3.47617C17.2062 3.45742 17.1758 3.43945 17.1457 3.42109C17.1336 3.41367 17.1215 3.40664 17.1094 3.39922C17.0723 3.37695 17.0352 3.35508 16.9977 3.33359C16.9563 3.30937 16.9148 3.28594 16.8727 3.2625C16.8535 3.25156 16.8344 3.24102 16.8148 3.23047C16.7055 3.16992 16.5949 3.11172 16.4828 3.05586C16.4563 3.04219 16.4297 3.02891 16.4027 3.01602C16.3762 3.00273 16.3496 2.98984 16.3227 2.97695C16.2957 2.96406 16.2691 2.95117 16.2422 2.93867C16.2152 2.92578 16.1883 2.91328 16.1613 2.90117C16.0145 2.83398 15.866 2.77031 15.7164 2.71055C15.6789 2.69531 15.641 2.68047 15.6031 2.66602C15.5652 2.65156 15.5273 2.63711 15.4895 2.62305C15.4605 2.61211 15.4316 2.60156 15.4023 2.59102C15.3508 2.57227 15.2992 2.5543 15.2473 2.53672C15.2133 2.525 15.1793 2.51367 15.1453 2.50234C14.9262 2.42969 14.7043 2.36523 14.4801 2.3082C14.4504 2.30078 14.4203 2.29336 14.3902 2.28594C14.3562 2.27773 14.3227 2.26953 14.2883 2.26172C14.2598 2.25469 14.2312 2.24844 14.2023 2.2418C14.1637 2.2332 14.125 2.225 14.0859 2.2168C14.059 2.21094 14.032 2.20547 14.0047 2.2C13.984 2.1957 13.9637 2.1918 13.943 2.18789C13.732 2.14609 13.5195 2.11172 13.3051 2.08398C13.2762 2.08008 13.2469 2.07656 13.2176 2.07305C13.1246 2.06172 13.0316 2.05195 12.9383 2.04336C12.9375 2.04297 12.9371 2.04297 12.9367 2.04336C12.9043 2.03984 12.8715 2.03711 12.8387 2.03477C12.7547 2.02734 12.6703 2.02148 12.5859 2.01719C12.566 2.01562 12.5457 2.01445 12.5258 2.01367C12.5059 2.0125 12.4859 2.01172 12.4656 2.01094C12.4582 2.01055 12.4512 2.01016 12.4437 2.01016C12.3977 2.00781 12.3516 2.00625 12.3055 2.00469C12.2992 2.0043 12.2926 2.0043 12.2859 2.0043C12.2391 2.00273 12.1922 2.00156 12.1449 2.00117C12.0969 2.00039 12.0484 2 12 2C11.8039 2 11.6086 2.00547 11.4141 2.01719C10.0242 2.09648 8.68789 2.45977 7.47227 3.07852C7.43789 3.09609 7.40391 3.11367 7.36992 3.13164C7.26758 3.18477 7.16563 3.24023 7.06523 3.29766C6.85977 3.41445 6.6582 3.53867 6.46094 3.67031C6.36484 3.73477 6.26992 3.80078 6.17578 3.86836C5.73633 4.18438 5.31914 4.53867 4.92891 4.92891C4.52266 5.33516 4.15547 5.7707 3.82969 6.23008C3.7582 6.33047 3.68906 6.43203 3.62148 6.53477C3.40664 6.86289 3.21211 7.20195 3.03867 7.55117C2.43867 8.75664 2.08828 10.0785 2.01484 11.452C2.00508 11.634 2 11.8164 2 12C2 12.209 2.00625 12.4168 2.01914 12.6238C2.02539 12.7301 2.03359 12.8359 2.04375 12.9418C2.14805 14.0691 2.44023 15.1566 2.9043 16.1684C2.9582 16.2855 3.01406 16.4016 3.07266 16.5164C3.24883 16.8641 3.44609 17.202 3.66328 17.5285C4.02891 18.0773 4.45195 18.5941 4.92891 19.0711C5.42109 19.5633 5.95586 19.998 6.52422 20.3711C6.85195 20.5867 7.19102 20.782 7.54023 20.9559C7.63867 21.0051 7.73789 21.0527 7.83789 21.0984C8.8543 21.5641 9.94766 21.8559 11.0805 21.9582C11.1996 21.9695 11.3191 21.9781 11.4391 21.9844C11.625 21.9949 11.8121 22 12 22C12.0621 22 12.1238 21.9996 12.1855 21.998C12.218 21.9977 12.2504 21.9969 12.2824 21.9957C12.2855 21.9961 12.2887 21.9961 12.2918 21.9957C12.3039 21.9953 12.316 21.9953 12.3281 21.9945C12.3301 21.9945 12.3324 21.9945 12.3344 21.9941C12.3758 21.993 12.4172 21.9914 12.4586 21.9895C12.5035 21.9875 12.5484 21.9852 12.593 21.9824C12.5988 21.9824 12.6047 21.982 12.6109 21.9816C12.6563 21.9789 12.7016 21.9762 12.7465 21.9727C12.8289 21.9664 12.9113 21.9594 12.9934 21.9516C13.0363 21.9473 13.0797 21.943 13.1227 21.9379C13.1652 21.9332 13.2078 21.9281 13.25 21.923C13.2871 21.9188 13.3238 21.9137 13.3609 21.9086C13.3863 21.9055 13.4113 21.902 13.4367 21.898C13.4543 21.8957 13.4719 21.893 13.4895 21.8902C13.5277 21.8848 13.566 21.8789 13.6039 21.8727C13.6328 21.8684 13.6613 21.8637 13.6898 21.8586C13.7113 21.8551 13.7332 21.8512 13.7547 21.8473C13.7586 21.8469 13.7625 21.8461 13.7664 21.8453C13.7887 21.8414 13.8109 21.8375 13.8328 21.8332C13.841 21.832 13.8492 21.8305 13.8574 21.8285C13.8793 21.8246 13.9008 21.8207 13.9223 21.816C13.927 21.8156 13.9316 21.8148 13.9363 21.8133C13.9535 21.8102 13.9707 21.807 13.9875 21.8035C14.0207 21.7969 14.0531 21.7902 14.0859 21.7832C14.1895 21.7617 14.2922 21.7383 14.3945 21.7129C14.4297 21.7047 14.4645 21.6957 14.4992 21.6867C14.5199 21.6816 14.5406 21.6762 14.5613 21.6707C14.5887 21.6637 14.6156 21.6562 14.643 21.6488C14.6438 21.6488 14.6441 21.6484 14.6449 21.6484C14.6777 21.6395 14.7109 21.6305 14.7437 21.6207C14.7727 21.6125 14.802 21.6043 14.8309 21.5957C14.8863 21.5793 14.9422 21.5625 14.9973 21.5453C15.034 21.534 15.0703 21.5223 15.1066 21.5102C15.1465 21.4973 15.1863 21.484 15.2262 21.4703C15.2461 21.4637 15.266 21.457 15.2859 21.45C15.3059 21.4434 15.3258 21.4363 15.3457 21.4289C15.3852 21.4148 15.425 21.4008 15.4645 21.3859C15.5039 21.3715 15.543 21.357 15.5824 21.3418C15.6215 21.3266 15.6609 21.3113 15.7 21.2957C15.7391 21.2801 15.7781 21.2645 15.8168 21.2484C15.8559 21.2324 15.8945 21.216 15.9332 21.1996C15.9355 21.1988 15.9383 21.1977 15.941 21.1965C15.9879 21.1762 16.0348 21.1559 16.0816 21.1348C16.0832 21.1344 16.0848 21.1336 16.0863 21.1328C16.1328 21.1117 16.1789 21.0906 16.225 21.0691C16.3191 21.025 16.4125 20.9797 16.5051 20.9328C16.5484 20.9109 16.5918 20.8887 16.6352 20.866C16.6687 20.8484 16.7023 20.8305 16.7355 20.8125C16.834 20.7602 16.9309 20.7055 17.027 20.6496C17.0668 20.6262 17.1063 20.6027 17.1457 20.5789C17.2359 20.525 17.325 20.4691 17.4133 20.4121C17.4484 20.3895 17.4832 20.3664 17.518 20.3434C17.6102 20.2824 17.7016 20.2195 17.7918 20.1547C17.8484 20.1145 17.9043 20.0734 17.9602 20.032C18.016 19.9906 18.0711 19.9488 18.1258 19.9059L18.1914 19.8543C18.2242 19.8285 18.257 19.8023 18.2895 19.7758C18.3168 19.7539 18.3438 19.7316 18.3703 19.7094C18.402 19.6832 18.4332 19.657 18.4645 19.6305C18.673 19.4535 18.8754 19.2668 19.0711 19.0711C19.1168 19.0254 19.1621 18.9793 19.2066 18.9328C19.2336 18.9051 19.2602 18.877 19.2863 18.8488C19.3379 18.7945 19.3879 18.7398 19.4379 18.6848C19.4852 18.632 19.532 18.5793 19.5781 18.5258C19.5828 18.5203 19.5875 18.5148 19.5922 18.5094C19.6199 18.4773 19.6473 18.4449 19.6742 18.4125C19.7156 18.3633 19.7566 18.3137 19.7969 18.2637C19.8137 18.2426 19.8305 18.2215 19.8473 18.2004C19.8711 18.1703 19.8945 18.1406 19.918 18.1102C19.9414 18.0801 19.9648 18.0496 19.9879 18.0187C20.0266 17.968 20.0645 17.9168 20.1016 17.8656C20.1207 17.8391 20.1398 17.8129 20.1586 17.7863C20.1602 17.7848 20.1613 17.7828 20.1629 17.7805C20.2039 17.723 20.2445 17.6645 20.2844 17.6059C20.3105 17.568 20.3359 17.5297 20.3609 17.4914C20.3621 17.4898 20.3633 17.4883 20.3645 17.4863C20.3656 17.4844 20.3672 17.4824 20.368 17.4805C20.384 17.4566 20.3996 17.4332 20.4148 17.409C20.4203 17.4004 20.4262 17.3918 20.4316 17.3828C20.4625 17.3344 20.4934 17.2855 20.5238 17.2363C20.5492 17.1949 20.5742 17.1535 20.5992 17.1117C20.609 17.0953 20.6188 17.0785 20.6285 17.0617C20.6434 17.0367 20.6582 17.0117 20.6727 16.9867C20.7465 16.8594 20.8168 16.7305 20.8844 16.6004C20.9066 16.5574 20.9285 16.5145 20.95 16.4711C20.9836 16.4043 21.0164 16.3375 21.048 16.2699C21.0738 16.2148 21.0996 16.1598 21.1246 16.1043C21.1383 16.0742 21.1512 16.0445 21.1645 16.0145C21.1805 15.9785 21.1957 15.9422 21.2109 15.9062C21.2797 15.7457 21.3434 15.5828 21.4027 15.4187C21.4133 15.3906 21.4234 15.3621 21.4332 15.3336C21.4715 15.2262 21.5074 15.1176 21.5414 15.0086C21.5531 14.9723 21.5641 14.9359 21.575 14.8996C21.5855 14.8652 21.5957 14.8309 21.6059 14.7965C21.6195 14.7496 21.6328 14.7023 21.6457 14.6551C21.6477 14.648 21.6496 14.641 21.6512 14.634C21.6617 14.5957 21.6719 14.5574 21.6816 14.5188C21.6844 14.509 21.6871 14.4992 21.6891 14.4895C21.6973 14.4582 21.7055 14.4266 21.7129 14.3949C21.718 14.3742 21.723 14.3531 21.7281 14.3324C21.7727 14.1449 21.8121 13.9555 21.8453 13.7648C21.8504 13.7359 21.8559 13.7066 21.8605 13.6773C21.8648 13.6527 21.8687 13.6285 21.8727 13.6039C21.8793 13.5637 21.8855 13.523 21.8914 13.4824C21.8977 13.4422 21.9031 13.4016 21.9086 13.3609C21.9168 13.3016 21.9242 13.2426 21.9309 13.1832C21.9348 13.1508 21.9383 13.118 21.9418 13.0852C21.9465 13.043 21.9508 13.0004 21.9547 12.9578C21.957 12.9363 21.959 12.9148 21.9605 12.8938C21.9625 12.8727 21.9641 12.8512 21.966 12.8297C21.9691 12.7918 21.9719 12.7539 21.9746 12.716C21.9762 12.6996 21.9773 12.6828 21.9781 12.6664C21.9801 12.6352 21.982 12.6043 21.9836 12.573C21.9863 12.5254 21.9887 12.4777 21.9906 12.4301C21.9949 12.3348 21.9977 12.2395 21.9988 12.1437C21.9996 12.0957 22 12.048 22 12V11.9895C22 11.8328 21.9961 11.677 21.9887 11.5215Z" fill="#F1F1F1"/>
<path d="M22 12C22 12.048 21.9996 12.0957 21.9988 12.1437C21.9977 12.2395 21.9949 12.3348 21.9906 12.4301C21.9887 12.4777 21.9863 12.5254 21.9836 12.573C21.982 12.6043 21.9801 12.6352 21.9781 12.6664C21.9773 12.6828 21.9762 12.6996 21.9746 12.716C21.9719 12.7539 21.9691 12.7918 21.966 12.8297C21.9641 12.8512 21.9625 12.8727 21.9605 12.8938C21.959 12.9148 21.957 12.9363 21.9547 12.9578C21.9508 13.0004 21.9465 13.043 21.9418 13.0852C21.9383 13.118 21.9348 13.1508 21.9309 13.1832C21.9242 13.2426 21.9168 13.3016 21.9086 13.3609C21.9031 13.4016 21.8977 13.4422 21.8914 13.4824C21.8855 13.523 21.8793 13.5637 21.8727 13.6039C21.8687 13.6285 21.8648 13.6527 21.8605 13.6773C21.8559 13.7066 21.8504 13.7359 21.8453 13.7648C21.8121 13.9555 21.7727 14.1449 21.7281 14.3324C21.723 14.3531 21.718 14.3742 21.7129 14.3949C21.7055 14.4266 21.6973 14.4582 21.6891 14.4895C21.6871 14.4992 21.6844 14.509 21.6816 14.5188C21.6719 14.5574 21.6617 14.5957 21.6512 14.634C21.6496 14.641 21.6477 14.648 21.6457 14.6551C21.6328 14.7023 21.6195 14.7496 21.6059 14.7965C21.5957 14.8309 21.5855 14.8652 21.575 14.8996C21.5641 14.9359 21.5531 14.9723 21.5414 15.0086C21.5074 15.1176 21.4715 15.2262 21.4332 15.3336C21.4234 15.3621 21.4133 15.3906 21.4027 15.4187C21.3434 15.5828 21.2797 15.7457 21.2109 15.9062C21.1961 15.9426 21.1805 15.9785 21.1645 16.0145C21.1512 16.0445 21.1383 16.0742 21.1246 16.1043C21.0996 16.1598 21.0738 16.2148 21.048 16.2699C21.0164 16.3375 20.9836 16.4043 20.95 16.4711C20.9285 16.5145 20.9066 16.5574 20.8844 16.6004C20.8168 16.7305 20.7465 16.8594 20.6727 16.9867C20.6484 17.0285 20.6238 17.0703 20.5992 17.1117C20.5742 17.1535 20.5492 17.1949 20.5238 17.2363C20.4934 17.2855 20.4625 17.3344 20.4316 17.3828C20.4262 17.3918 20.4203 17.4004 20.4148 17.409C20.3996 17.4332 20.384 17.4566 20.368 17.4805C20.3672 17.4824 20.3656 17.4844 20.3645 17.4863C20.3633 17.4883 20.3621 17.4898 20.3609 17.4914C20.3359 17.5297 20.3105 17.568 20.2844 17.6059C20.2445 17.6645 20.2039 17.723 20.1629 17.7805C20.1613 17.7828 20.1602 17.7848 20.1586 17.7863C20.1398 17.8129 20.1207 17.8391 20.1016 17.8656C20.0645 17.9168 20.0266 17.968 19.9879 18.0187C19.9648 18.0496 19.9414 18.0801 19.918 18.1102C19.8945 18.1406 19.8711 18.1703 19.8473 18.2004C19.8305 18.2215 19.8137 18.2426 19.7969 18.2637C19.7566 18.3137 19.7156 18.3633 19.6742 18.4125C19.6473 18.4449 19.6199 18.4773 19.5922 18.5094C19.5875 18.5148 19.5828 18.5203 19.5781 18.5258C19.532 18.5793 19.4852 18.632 19.4379 18.6848C19.3879 18.7398 19.3379 18.7945 19.2863 18.8488C19.2602 18.877 19.2336 18.9051 19.2066 18.9328C19.1621 18.9793 19.1168 19.0254 19.0711 19.0711C18.8754 19.2668 18.673 19.4535 18.4645 19.6305C18.4332 19.657 18.402 19.6832 18.3703 19.7094C18.3437 19.7316 18.3168 19.7539 18.2895 19.7758C18.257 19.8023 18.2242 19.8285 18.1914 19.8543L18.1258 19.9059C18.0711 19.9488 18.016 19.9906 17.9602 20.032C17.9043 20.0734 17.8484 20.1145 17.7918 20.1547C17.7016 20.2195 17.6102 20.2824 17.518 20.3434C17.4832 20.3664 17.4484 20.3895 17.4133 20.4121C17.325 20.4691 17.2359 20.525 17.1457 20.5789C17.1063 20.6027 17.0668 20.6262 17.027 20.6496C16.9309 20.7055 16.834 20.7602 16.7355 20.8125C16.7023 20.8305 16.6688 20.8484 16.6352 20.866C16.5918 20.8887 16.5484 20.9109 16.5051 20.9328C16.4125 20.9801 16.3191 21.0254 16.225 21.0691C16.1789 21.0906 16.1328 21.1117 16.0863 21.1328C16.0848 21.1336 16.0832 21.1344 16.0816 21.1348C16.0348 21.1559 15.9879 21.1762 15.941 21.1965C15.9383 21.1977 15.9355 21.1988 15.9332 21.1996C15.8945 21.216 15.8559 21.2324 15.8168 21.2484C15.7781 21.2645 15.7391 21.2801 15.7 21.2957C15.6609 21.3113 15.6215 21.3266 15.5824 21.3418C15.543 21.357 15.5039 21.3715 15.4645 21.3859C15.425 21.4008 15.3852 21.4148 15.3457 21.4289C15.3258 21.4363 15.3059 21.4434 15.2859 21.45C15.266 21.457 15.2461 21.4637 15.2262 21.4703C15.1863 21.484 15.1465 21.4973 15.1066 21.5102C15.0703 21.5223 15.034 21.534 14.9973 21.5453C14.9422 21.5625 14.8863 21.5793 14.8309 21.5957C14.802 21.6043 14.7727 21.6125 14.7437 21.6207C14.7109 21.6305 14.6777 21.6395 14.6449 21.6484C14.6441 21.6484 14.6438 21.6488 14.643 21.6488C14.6156 21.6562 14.5887 21.6637 14.5613 21.6707C14.5406 21.6762 14.5199 21.6816 14.4992 21.6867C14.4645 21.6957 14.4297 21.7047 14.3945 21.7129C14.2922 21.7383 14.1895 21.7617 14.0859 21.7832C14.0531 21.7902 14.0207 21.7969 13.9875 21.8035C13.9707 21.807 13.9535 21.8102 13.9363 21.8133C13.9316 21.8148 13.927 21.8156 13.9223 21.816C13.9008 21.8207 13.8793 21.8246 13.8574 21.8285C13.8492 21.8305 13.841 21.832 13.8328 21.8332C13.8109 21.8375 13.7887 21.8414 13.7664 21.8453C13.7625 21.8461 13.7586 21.8469 13.7547 21.8473C13.7332 21.8512 13.7113 21.8551 13.6898 21.8586C13.6613 21.8637 13.6328 21.8684 13.6039 21.8727C13.566 21.8789 13.5277 21.8848 13.4895 21.8902C13.4719 21.893 13.4543 21.8957 13.4367 21.898C13.4113 21.902 13.3863 21.9055 13.3609 21.9086C13.3238 21.9137 13.2871 21.9188 13.25 21.923C13.2078 21.9281 13.1652 21.9332 13.1227 21.9379C13.0797 21.943 13.0363 21.9473 12.9934 21.9516C12.9113 21.9594 12.8289 21.9664 12.7465 21.9727C12.7016 21.9762 12.6563 21.9789 12.6109 21.9816C12.6047 21.982 12.5988 21.9824 12.593 21.9824C12.5484 21.9852 12.5035 21.9875 12.4586 21.9895C12.4172 21.9914 12.3758 21.993 12.3344 21.9941C12.3324 21.9945 12.3301 21.9945 12.3281 21.9945C12.316 21.9953 12.3039 21.9953 12.2918 21.9957C12.2887 21.9961 12.2855 21.9961 12.2824 21.9957C12.2504 21.9969 12.218 21.9977 12.1855 21.998C12.1238 21.9996 12.0621 22 12 22V2C12.0484 2 12.0969 2.00039 12.1449 2.00117C12.2523 2.00234 12.359 2.00586 12.4656 2.01094C12.4859 2.01172 12.5059 2.0125 12.5258 2.01367C12.5457 2.01445 12.566 2.01562 12.5859 2.01719C12.6703 2.02148 12.7547 2.02734 12.8387 2.03477C12.8715 2.03711 12.9043 2.03984 12.9367 2.04336C12.9371 2.04297 12.9375 2.04297 12.9383 2.04336C13.0316 2.05195 13.1246 2.06172 13.2176 2.07305C13.2469 2.07656 13.2762 2.08008 13.3051 2.08398C13.5195 2.11172 13.732 2.14609 13.943 2.18789C13.9637 2.1918 13.984 2.1957 14.0047 2.2C14.032 2.20547 14.059 2.21094 14.0859 2.2168C14.125 2.225 14.1637 2.2332 14.2023 2.2418C14.2313 2.24844 14.2598 2.25469 14.2883 2.26172C14.3227 2.26953 14.3563 2.27773 14.3902 2.28594C14.4203 2.29336 14.4504 2.30078 14.4801 2.3082C14.7043 2.36523 14.9262 2.42969 15.1453 2.50234C15.1793 2.51367 15.2133 2.525 15.2473 2.53672C15.2992 2.5543 15.3508 2.57227 15.4023 2.59102C15.4316 2.60156 15.4605 2.61211 15.4895 2.62305C15.5273 2.63711 15.5652 2.65156 15.6031 2.66602C15.641 2.68047 15.6789 2.69531 15.7164 2.71055C15.866 2.77031 16.0145 2.83398 16.1613 2.90117C16.1883 2.91328 16.2152 2.92578 16.2422 2.93867C16.2691 2.95117 16.2957 2.96406 16.3227 2.97695C16.3496 2.98984 16.3762 3.00273 16.4027 3.01602C16.4297 3.02891 16.4563 3.04219 16.4828 3.05586C16.5949 3.11172 16.7055 3.16992 16.8148 3.23047C16.8344 3.24102 16.8535 3.25156 16.8727 3.2625C16.9148 3.28594 16.9563 3.30937 16.9977 3.33359C17.0352 3.35508 17.0723 3.37695 17.1094 3.39922C17.152 3.42461 17.1941 3.45 17.2363 3.47617C17.2461 3.48203 17.2562 3.48828 17.2656 3.49453C17.3023 3.51719 17.3391 3.54062 17.3758 3.56406C17.4164 3.58984 17.4566 3.61602 17.4969 3.64258C17.5672 3.68906 17.6367 3.73594 17.7055 3.78437C17.7434 3.81055 17.7805 3.83672 17.8176 3.86367C17.8406 3.88008 17.8629 3.89648 17.8855 3.9125C17.8969 3.92109 17.9082 3.9293 17.9195 3.9375C17.9426 3.9543 17.9652 3.97148 17.9879 3.98867C18.0066 4.00273 18.0254 4.0168 18.0441 4.03125C18.0734 4.05312 18.1023 4.07578 18.1312 4.09805C18.1586 4.11953 18.1859 4.14102 18.2129 4.1625C18.2461 4.18867 18.2789 4.21523 18.3117 4.24219C18.3445 4.26914 18.3773 4.29609 18.4098 4.32344C18.4375 4.34648 18.4652 4.36953 18.4922 4.39336C18.5344 4.42891 18.5758 4.46523 18.6172 4.50195C18.6559 4.53633 18.6945 4.5707 18.7328 4.60586C18.7676 4.6375 18.8023 4.66953 18.8367 4.70195C18.8656 4.72891 18.8941 4.75586 18.9223 4.7832C18.941 4.80117 18.9598 4.81914 18.9781 4.8375C19.0094 4.86758 19.0402 4.89805 19.0711 4.92891C19.1141 4.97188 19.1566 5.01523 19.1984 5.05898C19.2254 5.08633 19.2516 5.11406 19.2777 5.1418L19.2812 5.14531C19.3 5.16523 19.3184 5.18516 19.3367 5.20469C19.4668 5.34492 19.5922 5.48789 19.7133 5.63438C19.727 5.65078 19.7402 5.66719 19.7535 5.6832C19.8059 5.74727 19.8574 5.81172 19.9078 5.87656C19.9492 5.92969 19.9902 5.9832 20.0305 6.0375C20.0414 6.05195 20.0523 6.06641 20.0629 6.08125C20.0879 6.11484 20.1125 6.14883 20.1367 6.18281C20.166 6.22344 20.1949 6.26406 20.2234 6.30547C20.2668 6.36758 20.3086 6.42969 20.3504 6.49258C20.4316 6.61523 20.5102 6.73945 20.5855 6.86523C20.607 6.90078 20.6281 6.93672 20.6496 6.97305C20.6734 7.01367 20.6969 7.05469 20.7199 7.09609C20.732 7.1168 20.7434 7.1375 20.7547 7.15859C20.7992 7.23828 20.8426 7.31875 20.8844 7.39961C20.9027 7.43516 20.9211 7.47031 20.9387 7.50586C20.9691 7.56602 20.9992 7.62656 21.0281 7.68789C21.041 7.71445 21.0535 7.74141 21.066 7.76797C21.0703 7.77734 21.075 7.78633 21.0789 7.7957C21.0906 7.82109 21.1023 7.84609 21.1137 7.87148C21.1281 7.90312 21.1422 7.93477 21.1562 7.9668C21.1723 8.00234 21.1879 8.03828 21.2031 8.07422C21.2168 8.10664 21.2305 8.13867 21.2438 8.17109C21.2594 8.20859 21.2746 8.24609 21.2895 8.28359C21.3336 8.39297 21.3754 8.50352 21.4148 8.61445C21.4289 8.65313 21.4426 8.6918 21.4559 8.73086C21.5504 9.00469 21.6328 9.28281 21.7031 9.56484C21.7133 9.60703 21.7234 9.64922 21.7336 9.69141C21.7512 9.76523 21.7676 9.83945 21.7832 9.91406C21.7918 9.95391 21.8 9.99375 21.8078 10.034C21.816 10.0738 21.8234 10.1141 21.8309 10.1543C21.8379 10.1906 21.8445 10.2273 21.8508 10.2641C21.8656 10.348 21.8789 10.4328 21.8914 10.5176C21.8977 10.5578 21.9031 10.5984 21.9086 10.6391C21.9145 10.6797 21.9195 10.7207 21.9246 10.7613C21.9383 10.8746 21.9504 10.9883 21.9605 11.1023C21.9691 11.202 21.9766 11.3016 21.9824 11.4012C21.9832 11.4164 21.9844 11.4313 21.9848 11.4461C21.9863 11.4711 21.9875 11.4965 21.9887 11.5215C21.9961 11.6805 22 11.8398 22 12Z" fill="#E1E1E4"/>
<path d="M21.9887 11.5215C21.9875 11.4965 21.9863 11.4711 21.9848 11.4461C21.9844 11.4313 21.9832 11.4164 21.9824 11.4012C21.9766 11.3016 21.9691 11.202 21.9605 11.1023C21.9504 10.9883 21.9383 10.8746 21.9246 10.7613C21.9195 10.7207 21.9145 10.6797 21.9086 10.6391C21.9031 10.5984 21.8977 10.5578 21.8914 10.5176C21.8789 10.4328 21.8656 10.348 21.8508 10.2641C21.8445 10.2273 21.8379 10.1906 21.8309 10.1543C21.8234 10.1141 21.816 10.0738 21.8078 10.034C21.8 9.99375 21.7918 9.95391 21.7832 9.91406C21.7676 9.83945 21.7512 9.76523 21.7336 9.69141C21.7234 9.64922 21.7133 9.60703 21.7031 9.56484C21.6328 9.28281 21.5504 9.00469 21.4559 8.73086C21.4426 8.6918 21.4289 8.65313 21.4148 8.61445C21.3754 8.50352 21.3336 8.39297 21.2895 8.28359C21.2746 8.24609 21.2594 8.20859 21.2438 8.17109C21.2305 8.13867 21.2168 8.10664 21.2031 8.07422C21.1879 8.03828 21.1723 8.00234 21.1562 7.9668C21.1422 7.93477 21.1281 7.90312 21.1137 7.87148C21.1023 7.84609 21.0906 7.82109 21.0789 7.7957C21.075 7.78633 21.0703 7.77734 21.066 7.76797C21.0535 7.74141 21.041 7.71445 21.0281 7.68789C20.9992 7.62656 20.9691 7.56602 20.9387 7.50586C20.9211 7.47031 20.9027 7.43516 20.8844 7.39961C20.8426 7.31875 20.7992 7.23828 20.7547 7.15859C20.7434 7.1375 20.732 7.1168 20.7199 7.09609C20.6969 7.05469 20.6734 7.01367 20.6496 6.97305C20.6281 6.93672 20.607 6.90078 20.5855 6.86523C20.5102 6.73945 20.4316 6.61523 20.3504 6.49258L17.7641 7.98867C17.2863 7.30391 16.6895 6.70781 16.0039 6.23086L17.4969 3.64258C17.4566 3.61602 17.4164 3.58984 17.3758 3.56406C17.3391 3.54062 17.3023 3.51719 17.2656 3.49453C17.2562 3.48828 17.2461 3.48203 17.2363 3.47617C17.1941 3.45 17.152 3.42461 17.1094 3.39922C17.0723 3.37695 17.0352 3.35508 16.9977 3.33359C16.9563 3.30937 16.9148 3.28594 16.8727 3.2625C16.8535 3.25156 16.8344 3.24102 16.8148 3.23047C16.7055 3.16992 16.5949 3.11172 16.4828 3.05586C16.4563 3.04219 16.4297 3.02891 16.4027 3.01602C16.3762 3.00273 16.3496 2.98984 16.3227 2.97695C16.2957 2.96406 16.2691 2.95117 16.2422 2.93867C16.2152 2.92578 16.1883 2.91328 16.1613 2.90117C16.0145 2.83398 15.866 2.77031 15.7164 2.71055C15.6789 2.69531 15.641 2.68047 15.6031 2.66602C15.5652 2.65156 15.5273 2.63711 15.4895 2.62305C15.4605 2.61211 15.4316 2.60156 15.4023 2.59102C15.3508 2.57227 15.2992 2.5543 15.2473 2.53672C15.2133 2.525 15.1793 2.51367 15.1453 2.50234C14.9262 2.42969 14.7043 2.36523 14.4801 2.3082C14.4504 2.30078 14.4203 2.29336 14.3902 2.28594C14.3562 2.27773 14.3227 2.26953 14.2883 2.26172C14.2598 2.25469 14.2312 2.24844 14.2023 2.2418C14.1637 2.2332 14.125 2.225 14.0859 2.2168C14.059 2.21094 14.032 2.20547 14.0047 2.2C13.984 2.1957 13.9637 2.1918 13.943 2.18789C13.732 2.14609 13.5195 2.11172 13.3051 2.08398C13.2762 2.08008 13.2469 2.07656 13.2176 2.07305C13.1246 2.06172 13.0316 2.05195 12.9383 2.04336C12.9375 2.04297 12.9371 2.04297 12.9367 2.04336C12.9043 2.03984 12.8715 2.03711 12.8387 2.03477C12.7547 2.02734 12.6703 2.02148 12.5859 2.01719C12.566 2.01562 12.5457 2.01445 12.5258 2.01367C12.5059 2.0125 12.4859 2.01172 12.4656 2.01094C12.4059 2.0082 12.3461 2.00586 12.2859 2.0043C12.2625 2.00352 12.2391 2.00273 12.2156 2.00234C12.1922 2.00195 12.1684 2.00156 12.1449 2.00117C12.0969 2.00039 12.0484 2 12 2C11.8039 2 11.6086 2.00547 11.4141 2.01719V4.99922C10.5484 5.07109 9.72656 5.30039 8.97773 5.65859L7.47227 3.07852C7.43789 3.09609 7.40391 3.11367 7.36992 3.13164C7.26758 3.18516 7.16641 3.24141 7.06562 3.29844L7.06523 3.29766C6.85977 3.41445 6.6582 3.53867 6.46094 3.67031C6.36484 3.73477 6.26992 3.80078 6.17578 3.86836C5.73633 4.18438 5.31914 4.53867 4.92891 4.92891C4.52266 5.33516 4.15547 5.7707 3.82969 6.23008C3.7582 6.33047 3.68906 6.43203 3.62148 6.53477C3.40664 6.86289 3.21211 7.20195 3.03867 7.55117L5.63242 9.03438C5.28555 9.77578 5.06445 10.5867 4.99688 11.4406L2.01484 11.452C2.00508 11.634 2 11.8164 2 12C2 12.209 2.00625 12.4168 2.01914 12.6238C2.02539 12.7301 2.03359 12.8359 2.04375 12.9418C2.14805 14.0691 2.44023 15.1566 2.9043 16.1684C2.9582 16.2855 3.01406 16.4016 3.07266 16.5164C3.24883 16.8641 3.44609 17.202 3.66328 17.5285L6.24609 16.0258C6.72578 16.7094 7.32383 17.3039 8.01055 17.7793L6.52422 20.3711C6.85195 20.5867 7.19102 20.782 7.54023 20.9559C7.63867 21.0051 7.73789 21.0527 7.83789 21.0984C8.8543 21.5641 9.94766 21.8559 11.0805 21.9582C11.1996 21.9695 11.3191 21.9781 11.4391 21.9844C11.625 21.9949 11.8121 22 12 22C12.0621 22 12.1238 21.9996 12.1855 21.998C12.218 21.9977 12.2504 21.9969 12.2824 21.9957C12.2855 21.9961 12.2887 21.9961 12.2918 21.9957C12.3039 21.9953 12.316 21.9953 12.3281 21.9945C12.3301 21.9945 12.3324 21.9945 12.3344 21.9941C12.3758 21.993 12.4172 21.9914 12.4586 21.9895C12.5035 21.9875 12.5484 21.9852 12.593 21.9824C12.5988 21.9824 12.6047 21.982 12.6109 21.9816L12.6035 18.9992C13.4566 18.9262 14.2668 18.7004 15.0059 18.3488L16.5051 20.9328C16.5484 20.9109 16.5918 20.8887 16.6352 20.866C16.6687 20.8484 16.7023 20.8305 16.7355 20.8125C16.834 20.7602 16.9309 20.7055 17.027 20.6496C17.0668 20.6262 17.1063 20.6027 17.1457 20.5789C17.2359 20.525 17.325 20.4691 17.4133 20.4121C17.4484 20.3895 17.4832 20.3664 17.518 20.3434C17.6102 20.2824 17.7016 20.2195 17.7918 20.1547C17.8484 20.1145 17.9043 20.0734 17.9602 20.032C18.016 19.9906 18.0711 19.9488 18.1258 19.9059L18.1914 19.8543C18.2242 19.8285 18.257 19.8023 18.2895 19.7758C18.3168 19.7539 18.3438 19.7316 18.3703 19.7094C18.402 19.6832 18.4332 19.657 18.4645 19.6305C18.673 19.4535 18.8754 19.2668 19.0711 19.0711C19.1168 19.0254 19.1621 18.9793 19.2066 18.9328C19.2336 18.9051 19.2602 18.877 19.2863 18.8488C19.3379 18.7945 19.3879 18.7398 19.4379 18.6848C19.4852 18.632 19.532 18.5793 19.5781 18.5258C19.5828 18.5203 19.5875 18.5148 19.5922 18.5094C19.6199 18.4773 19.6473 18.4449 19.6742 18.4125C19.7156 18.3633 19.7566 18.3137 19.7969 18.2637C19.8137 18.2426 19.8305 18.2215 19.8473 18.2004C19.8711 18.1703 19.8945 18.1406 19.918 18.1102C19.9414 18.0801 19.9648 18.0496 19.9879 18.0187C20.0266 17.968 20.0645 17.9168 20.1016 17.8656C20.1207 17.8391 20.1398 17.8129 20.1586 17.7863C20.1602 17.7848 20.1613 17.7828 20.1629 17.7805C20.2039 17.723 20.2445 17.6645 20.2844 17.6059C20.3105 17.568 20.3359 17.5297 20.3609 17.4914C20.3621 17.4898 20.3633 17.4883 20.3645 17.4863C20.3656 17.4844 20.3672 17.4824 20.368 17.4805C20.384 17.4566 20.3996 17.4332 20.4148 17.409C20.4203 17.4004 20.4262 17.3918 20.4316 17.3828C20.4625 17.3344 20.4934 17.2855 20.5238 17.2363C20.5492 17.1949 20.5742 17.1535 20.5992 17.1117C20.6238 17.0703 20.6484 17.0285 20.6727 16.9867C20.7465 16.8594 20.8168 16.7305 20.8844 16.6004C20.9066 16.5574 20.9285 16.5145 20.95 16.4711L18.3602 14.9816C18.7086 14.2414 18.9316 13.4305 19.0016 12.577L21.9836 12.573C21.9863 12.5254 21.9887 12.4777 21.9906 12.4301C21.9949 12.3348 21.9977 12.2395 21.9988 12.1437C21.9996 12.0957 22 12.048 22 12C22 11.8398 21.9961 11.6805 21.9887 11.5215ZM12 17.8535C8.77227 17.8535 6.14648 15.2277 6.14648 12C6.14648 8.77227 8.77227 6.14648 12 6.14648C15.2277 6.14648 17.8535 8.77227 17.8535 12C17.8535 15.2277 15.2277 17.8535 12 17.8535Z" fill="#E70020"/>
<path d="M16.1393 16.1393C15.0335 17.2445 13.5635 17.8535 12 17.8535V6.14648C13.5635 6.14648 15.0335 6.75555 16.1393 7.86074C17.2445 8.96645 17.8535 10.4365 17.8535 12C17.8535 13.5635 17.2445 15.0336 16.1393 16.1393Z" fill="#E1E1E4"/>
<path d="M22 12C22 12.048 21.9996 12.0957 21.9988 12.1437C21.9977 12.2395 21.9949 12.3348 21.9906 12.4301C21.9887 12.4777 21.9863 12.5254 21.9836 12.573L19.0016 12.577C18.9316 13.4305 18.7086 14.2414 18.3602 14.9816L20.95 16.4711C20.9285 16.5145 20.9066 16.5574 20.8844 16.6004C20.8168 16.7305 20.7465 16.8594 20.6727 16.9867C20.6484 17.0285 20.6238 17.0703 20.5992 17.1117C20.5742 17.1535 20.5492 17.1949 20.5238 17.2363C20.4934 17.2855 20.4625 17.3344 20.4316 17.3828C20.4262 17.3918 20.4203 17.4004 20.4148 17.409C20.3996 17.4332 20.384 17.4566 20.368 17.4805C20.3672 17.4824 20.3656 17.4844 20.3645 17.4863C20.3633 17.4883 20.3621 17.4898 20.3609 17.4914C20.3359 17.5297 20.3105 17.568 20.2844 17.6059C20.2445 17.6645 20.2039 17.723 20.1629 17.7805C20.1613 17.7828 20.1602 17.7848 20.1586 17.7863C20.1398 17.8129 20.1207 17.8391 20.1016 17.8656C20.0645 17.9168 20.0266 17.968 19.9879 18.0187C19.9648 18.0496 19.9414 18.0801 19.918 18.1102C19.8945 18.1406 19.8711 18.1703 19.8473 18.2004C19.8305 18.2215 19.8137 18.2426 19.7969 18.2637C19.7566 18.3137 19.7156 18.3633 19.6742 18.4125C19.6473 18.4449 19.6199 18.4773 19.5922 18.5094C19.5875 18.5148 19.5828 18.5203 19.5781 18.5258C19.532 18.5793 19.4852 18.632 19.4379 18.6848C19.3879 18.7398 19.3379 18.7945 19.2863 18.8488C19.2602 18.877 19.2336 18.9051 19.2066 18.9328C19.1621 18.9793 19.1168 19.0254 19.0711 19.0711C18.8754 19.2668 18.673 19.4535 18.4645 19.6305C18.4332 19.657 18.402 19.6832 18.3703 19.7094C18.3437 19.7316 18.3168 19.7539 18.2895 19.7758C18.257 19.8023 18.2242 19.8285 18.1914 19.8543L18.1258 19.9059C18.0711 19.9488 18.016 19.9906 17.9602 20.032C17.9043 20.0734 17.8484 20.1145 17.7918 20.1547C17.7016 20.2195 17.6102 20.2824 17.518 20.3434C17.4832 20.3664 17.4484 20.3895 17.4133 20.4121C17.325 20.4691 17.2359 20.525 17.1457 20.5789C17.1063 20.6027 17.0668 20.6262 17.027 20.6496C16.9309 20.7055 16.834 20.7602 16.7355 20.8125C16.7023 20.8305 16.6688 20.8484 16.6352 20.866C16.5918 20.8887 16.5484 20.9109 16.5051 20.9328L15.0059 18.3488C14.2668 18.7004 13.4566 18.9262 12.6035 18.9992L12.6109 21.9816C12.6047 21.982 12.5988 21.9824 12.593 21.9824C12.5484 21.9852 12.5035 21.9875 12.4586 21.9895C12.4172 21.9914 12.3758 21.993 12.3344 21.9941C12.3324 21.9945 12.3301 21.9945 12.3281 21.9945C12.316 21.9953 12.3039 21.9953 12.2918 21.9957C12.2887 21.9961 12.2855 21.9961 12.2824 21.9957C12.2504 21.9969 12.218 21.9977 12.1855 21.998C12.1238 21.9996 12.0621 22 12 22V17.8535C15.2277 17.8535 17.8535 15.2277 17.8535 12C17.8535 8.77227 15.2277 6.14648 12 6.14648V2C12.0484 2 12.0969 2.00039 12.1449 2.00117C12.1684 2.00156 12.1922 2.00195 12.2156 2.00234C12.2391 2.00273 12.2625 2.00352 12.2859 2.0043C12.3461 2.00586 12.4059 2.0082 12.4656 2.01094C12.4859 2.01172 12.5059 2.0125 12.5258 2.01367C12.5457 2.01445 12.566 2.01562 12.5859 2.01719C12.6703 2.02148 12.7547 2.02734 12.8387 2.03477C12.8715 2.03711 12.9043 2.03984 12.9367 2.04336C12.9371 2.04297 12.9375 2.04297 12.9383 2.04336C13.0316 2.05195 13.1246 2.06172 13.2176 2.07305C13.2469 2.07656 13.2762 2.08008 13.3051 2.08398C13.5195 2.11172 13.732 2.14609 13.943 2.18789C13.9637 2.1918 13.984 2.1957 14.0047 2.2C14.032 2.20547 14.059 2.21094 14.0859 2.2168C14.125 2.225 14.1637 2.2332 14.2023 2.2418C14.2313 2.24844 14.2598 2.25469 14.2883 2.26172C14.3227 2.26953 14.3563 2.27773 14.3902 2.28594C14.4203 2.29336 14.4504 2.30078 14.4801 2.3082C14.7043 2.36523 14.9262 2.42969 15.1453 2.50234C15.1793 2.51367 15.2133 2.525 15.2473 2.53672C15.2992 2.5543 15.3508 2.57227 15.4023 2.59102C15.4316 2.60156 15.4605 2.61211 15.4895 2.62305C15.5273 2.63711 15.5652 2.65156 15.6031 2.66602C15.641 2.68047 15.6789 2.69531 15.7164 2.71055C15.866 2.77031 16.0145 2.83398 16.1613 2.90117C16.1883 2.91328 16.2152 2.92578 16.2422 2.93867C16.2691 2.95117 16.2957 2.96406 16.3227 2.97695C16.3496 2.98984 16.3762 3.00273 16.4027 3.01602C16.4297 3.02891 16.4563 3.04219 16.4828 3.05586C16.5949 3.11172 16.7055 3.16992 16.8148 3.23047C16.8344 3.24102 16.8535 3.25156 16.8727 3.2625C16.9148 3.28594 16.9563 3.30937 16.9977 3.33359C17.0352 3.35508 17.0723 3.37695 17.1094 3.39922C17.152 3.42461 17.1941 3.45 17.2363 3.47617C17.2461 3.48203 17.2562 3.48828 17.2656 3.49453C17.3023 3.51719 17.3391 3.54062 17.3758 3.56406C17.4164 3.58984 17.4566 3.61602 17.4969 3.64258L16.0039 6.23086C16.6895 6.70781 17.2863 7.30391 17.7641 7.98867L20.3504 6.49258C20.4316 6.61523 20.5102 6.73945 20.5855 6.86523C20.607 6.90078 20.6281 6.93672 20.6496 6.97305C20.6734 7.01367 20.6969 7.05469 20.7199 7.09609C20.732 7.1168 20.7434 7.1375 20.7547 7.15859C20.7992 7.23828 20.8426 7.31875 20.8844 7.39961C20.9027 7.43516 20.9211 7.47031 20.9387 7.50586C20.9691 7.56602 20.9992 7.62656 21.0281 7.68789C21.041 7.71445 21.0535 7.74141 21.066 7.76797C21.0703 7.77734 21.075 7.78633 21.0789 7.7957C21.0906 7.82109 21.1023 7.84609 21.1137 7.87148C21.1281 7.90312 21.1422 7.93477 21.1562 7.9668C21.1723 8.00234 21.1879 8.03828 21.2031 8.07422C21.2168 8.10664 21.2305 8.13867 21.2438 8.17109C21.2594 8.20859 21.2746 8.24609 21.2895 8.28359C21.3336 8.39297 21.3754 8.50352 21.4148 8.61445C21.4289 8.65313 21.4426 8.6918 21.4559 8.73086C21.5504 9.00469 21.6328 9.28281 21.7031 9.56484C21.7133 9.60703 21.7234 9.64922 21.7336 9.69141C21.7512 9.76523 21.7676 9.83945 21.7832 9.91406C21.7918 9.95391 21.8 9.99375 21.8078 10.034C21.816 10.0738 21.8234 10.1141 21.8309 10.1543C21.8379 10.1906 21.8445 10.2273 21.8508 10.2641C21.8656 10.348 21.8789 10.4328 21.8914 10.5176C21.8977 10.5578 21.9031 10.5984 21.9086 10.6391C21.9145 10.6797 21.9195 10.7207 21.9246 10.7613C21.9383 10.8746 21.9504 10.9883 21.9605 11.1023C21.9691 11.202 21.9766 11.3016 21.9824 11.4012C21.9832 11.4164 21.9844 11.4313 21.9848 11.4461C21.9863 11.4711 21.9875 11.4965 21.9887 11.5215C21.9961 11.6805 22 11.8398 22 12Z" fill="#990013"/>
<path d="M14.8017 13.1303C14.3619 13.8484 13.749 14.0031 13.3122 14.0064C13.0852 14.0081 12.858 13.9684 12.6417 13.8906C12.6892 14.0868 12.7502 14.1937 12.8015 14.2297L12.8817 14.2861V14.8125H11.1182V14.2861L11.1985 14.2296C11.2497 14.1936 11.3107 14.0868 11.3582 13.8905C11.1419 13.9684 10.9148 14.0081 10.6877 14.0063C10.251 14.003 9.63802 13.8484 9.19826 13.1302C8.8438 12.5513 8.83447 11.8647 9.17255 11.2466C9.43341 10.7694 9.83763 10.3891 10.2285 10.0213C10.2973 9.95672 10.3621 9.89562 10.4268 9.83363C10.669 9.60098 10.9143 9.37676 11.1513 9.16C11.3867 8.94473 11.6302 8.72215 11.869 8.49277L12 8.36719L12.1308 8.49277C12.3697 8.72215 12.6131 8.94473 12.8486 9.16C13.0856 9.3768 13.3309 9.60098 13.5731 9.83363C13.6377 9.89562 13.7026 9.95668 13.7714 10.0213C14.1622 10.3891 14.5665 10.7694 14.8273 11.2466C15.1654 11.8647 15.1561 12.5513 14.8017 13.1303Z" fill="#3C3A41"/>
<path d="M14.8017 13.1303C14.362 13.8484 13.749 14.0031 13.3123 14.0064C13.0853 14.0081 12.858 13.9684 12.6418 13.8906C12.6893 14.0868 12.7502 14.1937 12.8015 14.2297L12.8817 14.2861V14.8125H12V8.36719L12.1309 8.49277C12.3697 8.72215 12.6132 8.94473 12.8486 9.16C13.0857 9.3768 13.3309 9.60098 13.5731 9.83363C13.6377 9.89562 13.7026 9.95668 13.7714 10.0213C14.1623 10.3891 14.5665 10.7694 14.8273 11.2466C15.1655 11.8647 15.1561 12.5513 14.8017 13.1303Z" fill="#17171A"/>
</g>
<defs>
<clipPath id="clip0_12001_6012">
<rect width="20" height="20" fill="white" transform="translate(2 2)"/>
</clipPath>
</defs>
</svg>
