<svg width="24" height="24" viewBox="0 0 24 24" fill="none" xmlns="http://www.w3.org/2000/svg">
<g clip-path="url(#clip0_12001_6023)">
<path d="M12 21.997C17.5212 21.997 21.997 17.5212 21.997 12C21.997 6.47875 17.5212 2.00293 12 2.00293C6.47875 2.00293 2.00293 6.47875 2.00293 12C2.00293 17.5212 6.47875 21.997 12 21.997Z" fill="url(#paint0_linear_12001_6023)"/>
<g opacity="0.25">
<path fill-rule="evenodd" clip-rule="evenodd" d="M7.61757 7.46154C10.211 4.86826 14.4151 4.86826 17.0085 7.4617C19.6013 10.0547 19.6016 14.259 17.0085 16.8523C14.4151 19.4456 10.2107 19.4454 7.61757 16.8525C5.02413 14.259 5.02444 10.0548 7.61757 7.46154Z" fill="black"/>
<path fill-rule="evenodd" clip-rule="evenodd" d="M18.0382 10.7929L18.6581 10.2011C18.3434 9.17677 17.8006 8.28099 17.1006 7.55442L16.2206 7.31442L16.0314 8.9338L13.6924 9.92458L11.6474 8.96942L11.2742 6.72099C11.6389 6.56505 12.3824 6.24724 12.8123 6.06333L12.9156 5.62724L12.8485 5.53724C12.1106 5.47739 11.3504 5.54052 10.5943 5.74302C10.0174 5.89771 9.47916 6.12396 8.98557 6.40911L10.8404 6.77021L11.2204 9.0588L9.66494 10.6982L7.11713 10.5875L6.49057 8.96505C5.85057 10.1319 5.55854 11.4911 5.71119 12.876L5.74416 12.8999L6.24291 12.9205C6.45338 12.4525 6.8976 11.4668 7.09744 11.0225L9.60838 11.1319L10.676 13.1751L10.6632 13.1694L9.43244 15.8869L7.76588 15.936L7.55807 16.4911L7.65276 16.888C8.50885 17.7296 9.58151 18.3274 10.7499 18.6116L11.2213 18.0974L14.7971 17.4824L15.5143 17.9757C16.612 17.3729 17.4957 16.4805 18.0924 15.4252L17.8409 14.5169L18.0382 10.7929ZM14.669 17.0622L11.3014 17.6413L9.83526 16.0535L11.0596 13.349L13.3174 12.9444L15.317 15.1074L15.3399 15.0863L14.669 17.0622ZM17.4263 14.1033C16.9676 14.281 16.0493 14.6383 15.6282 14.8021L13.6043 12.6127L13.9354 10.2949L16.2242 9.32552L17.6017 10.7897L17.4263 14.1033Z" fill="black"/>
</g>
<path fill-rule="evenodd" clip-rule="evenodd" d="M7.30507 7.30529C9.89851 4.71201 14.1026 4.71201 16.696 7.30545C19.2888 9.89842 19.2891 14.1028 16.696 16.6961C14.1026 19.2894 9.89819 19.2892 7.30507 16.6962C4.71163 14.1028 4.71194 9.89857 7.30507 7.30529Z" fill="#EEEEEE"/>
<path fill-rule="evenodd" clip-rule="evenodd" d="M17.7257 10.6366L18.3456 10.0449C18.0309 9.02052 17.4881 8.12474 16.7881 7.39817L15.9081 7.15817L15.7189 8.77755L13.3799 9.76833L11.3349 8.81317L10.9617 6.56474C11.3264 6.4088 12.0699 6.09099 12.4998 5.90708L12.6031 5.47099L12.536 5.38099C11.7981 5.32114 11.0379 5.38427 10.2818 5.58677C9.70494 5.74146 9.16666 5.96771 8.67307 6.25286L10.5279 6.61396L10.9079 8.90255L9.35244 10.5419L6.80463 10.4313L6.17807 8.8088C5.53807 9.97567 5.24604 11.3349 5.39869 12.7197L5.43166 12.7436L5.93041 12.7643C6.14088 12.2963 6.5851 11.3105 6.78494 10.8663L9.29588 10.9757L10.3635 13.0188L10.3507 13.0132L9.11994 15.7307L7.45338 15.7797L7.24557 16.3349L7.34026 16.7318C8.19635 17.5733 9.26901 18.1711 10.4374 18.4554L10.9088 17.9411L14.4846 17.3261L15.2018 17.8194C16.2995 17.2166 17.1832 16.3243 17.7799 15.269L17.5284 14.3607L17.7257 10.6366ZM14.3565 16.906L10.9889 17.485L9.52276 15.8972L10.7471 13.1927L13.0049 12.7882L15.0045 14.9511L15.0274 14.93L14.3565 16.906ZM17.1138 13.9471C16.6551 14.1247 15.7368 14.4821 15.3157 14.6458L13.2918 12.4565L13.6229 10.1386L15.9117 9.16927L17.2892 10.6335L17.1138 13.9471Z" fill="#333333"/>
</g>
<defs>
<linearGradient id="paint0_linear_12001_6023" x1="12" y1="2.00293" x2="12" y2="21.997" gradientUnits="userSpaceOnUse">
<stop stop-color="#FF0067"/>
<stop offset="1" stop-color="#DA27DA"/>
</linearGradient>
<clipPath id="clip0_12001_6023">
<rect width="20" height="20" fill="white" transform="translate(2 2)"/>
</clipPath>
</defs>
</svg>
