<svg width="54" height="17" viewBox="0 0 54 17" fill="none" xmlns="http://www.w3.org/2000/svg">
<path d="M50.1853 0.243896H46.8359C45.8233 0.243896 45.0444 0.555468 44.577 1.56808L38.1898 16.1341H42.7076C42.7076 16.1341 43.4865 14.1867 43.6423 13.7194C44.1097 13.7194 48.5496 13.7194 49.1727 13.7194C49.3285 14.2646 49.718 16.0562 49.718 16.0562H53.7684L50.1853 0.243896ZM44.8886 10.4479C45.2781 9.51315 46.6023 6.00797 46.6023 6.00797C46.6023 6.08587 46.9917 5.07326 47.1475 4.52801L47.4591 5.93008C47.4591 5.93008 48.3159 9.74683 48.4717 10.5258H44.8886V10.4479Z" fill="#8297BD"/>
<path d="M38.5014 10.9153C38.5014 14.1868 35.5415 16.3678 30.9458 16.3678C28.9985 16.3678 27.1291 15.9783 26.1165 15.5109L26.7396 11.9279L27.2848 12.1615C28.6869 12.7847 29.6216 13.0184 31.3353 13.0184C32.5816 13.0184 33.9057 12.551 33.9057 11.4605C33.9057 10.7595 33.3605 10.2921 31.6469 9.51319C30.0111 8.73426 27.8301 7.48797 27.8301 5.22908C27.8301 2.11336 30.8679 0.0102539 35.152 0.0102539C36.7878 0.0102539 38.1899 0.321826 39.0467 0.71129L38.4235 4.13858L38.112 3.82701C37.333 3.51544 36.3204 3.20386 34.8405 3.20386C33.2047 3.28176 32.4258 3.98279 32.4258 4.60594C32.4258 5.30697 33.3605 5.85222 34.8405 6.55326C37.333 7.72165 38.5014 9.04583 38.5014 10.9153Z" fill="white"/>
<path d="M0.48938 0.399706L0.567273 0.0881348H7.26606C8.20078 0.0881348 8.90182 0.399706 9.13549 1.41231L10.6155 8.42268C9.13549 4.68382 5.70821 1.64599 0.48938 0.399706Z" fill="#8297BD"/>
<path d="M20.0404 0.244153L13.2638 16.0564H8.66808L4.77344 2.81462C7.57758 4.60616 9.91437 7.4103 10.7712 9.35762L11.2385 10.9934L15.4448 0.16626H20.0404V0.244153Z" fill="white"/>
<path d="M21.8323 0.16626H26.1164L23.3902 16.0564H19.1061L21.8323 0.16626Z" fill="white"/>
</svg>
